M48
; DRILL file KiCad 10.0.6 date 2026-09-16T22:58:40
; FORMAT={-:-/ absolute / metric / decimal}
; #@! TF.CreationDate,2026-09-16T22:58:40-06:00
; #@! TF.GenerationSoftware,Kicad,Pcbnew,10.0.6
; #@! TF.FileFunction,MixedPlating,1,2
FMAT,2
METRIC
; #@! TA.AperFunction,Plated,PTH,ComponentDrill
T1C0.200
; #@! TA.AperFunction,Plated,PTH,ViaDrill
T2C0.300
; #@! TA.AperFunction,Plated,PTH,ViaDrill
T3C0.400
; #@! TA.AperFunction,Plated,PTH,ComponentDrill
T4C0.750
; #@! TA.AperFunction,Plated,PTH,ComponentDrill
T5C0.900
; #@! TA.AperFunction,Plated,PTH,ComponentDrill
T6C1.000
; #@! TA.AperFunction,Plated,PTH,ComponentDrill
T7C1.200
; #@! TA.AperFunction,Plated,PTH,ComponentDrill
T8C1.300
; #@! TA.AperFunction,NonPlated,NPTH,ComponentDrill
T9C1.850
; #@! TA.AperFunction,NonPlated,NPTH,ComponentDrill
T10C2.200
; #@! TA.AperFunction,NonPlated,NPTH,ComponentDrill
T11C3.200
%
G90
G05
T1
X49.3Y-70.8
X49.3Y-72.0
X49.3Y-73.2
X50.7Y-70.8
X50.7Y-72.0
X50.7Y-73.2
T2
X38.0Y-68.0
X39.0Y-66.25
X39.0Y-69.0
X41.55Y-67.0
X42.0Y-68.0
X42.0Y-69.0
X43.0Y-50.0
X43.5Y-55.0
X45.0Y-57.0
X45.5Y-71.5
X46.0Y-40.0
X46.1Y-72.855
X47.948Y-67.052
X48.05Y-52.068
X48.5Y-57.0
X48.948Y-68.052
X49.0Y-41.0
X49.948Y-69.052
X50.0Y-52.0
X50.0Y-66.0
X50.046Y-58.95
X50.353Y-41.496
X50.5Y-48.5
X50.5Y-51.276
X50.5Y-54.021
X50.918Y-58.754
X51.0Y-67.0
X51.285Y-62.051
X51.518Y-57.801
X52.0Y-66.0
X52.0Y-68.0
X52.93Y-33.35
X53.0Y-49.5
X53.0Y-51.0
X53.0Y-69.0
X53.634Y-42.366
X54.0Y-31.0
X54.0Y-61.0
X54.2Y-41.8
X54.4Y-54.0
X55.0Y-67.0
X55.0Y-70.0
X55.4Y-66.0
X55.5Y-74.2
X55.6Y-48.5
X55.66Y-41.8
X56.0Y-69.0
X56.101Y-42.474
X56.667Y-61.6
X57.0Y-48.05
X57.5Y-74.0
X58.0Y-31.0
X58.0Y-52.0
X58.0Y-67.0
X58.012Y-48.05
X58.207Y-67.793
X58.952Y-70.1
X59.3Y-61.0
X59.415Y-52.415
X60.0Y-54.0
X60.0Y-57.0
X60.015Y-51.5
X60.789Y-57.134
X61.0Y-45.862
X61.0Y-61.0
X62.2Y-55.06
X62.5Y-64.4
X63.0Y-32.0
X63.5Y-51.5
X63.5Y-68.0
X63.5Y-70.6
X64.0Y-62.0
X64.0Y-66.0
X65.5Y-68.0
X65.5Y-70.6
X66.4Y-51.5
X66.5Y-58.7
X66.5Y-66.0
X67.0Y-33.0
X68.0Y-36.0
X68.0Y-39.0
X68.0Y-52.0
X68.579Y-46.0
X69.179Y-42.6
X70.0Y-32.0
X70.0Y-47.0
X71.5Y-67.0
X75.0Y-36.0
X78.439Y-61.0
X79.0Y-35.05
X79.0Y-57.95
X79.0Y-60.05
X80.0Y-61.0
T3
X39.0Y-46.0
X43.455Y-40.0
X44.0Y-66.0
X44.0Y-71.245
X44.329Y-46.575
X51.0Y-60.0
X53.0Y-56.175
X54.0Y-46.925
X55.0Y-37.0
X57.0Y-57.0
X60.0Y-47.0
X63.0Y-59.75
X66.0Y-46.97
X69.101Y-48.101
X77.0Y-51.0
X81.0Y-51.0
T4
X40.55Y-71.0
X40.55Y-73.0
X60.55Y-71.0
X60.55Y-73.0
X77.55Y-71.0
X77.55Y-73.0
T5
X62.0Y-36.0
X66.0Y-36.0
X70.0Y-36.0
X76.957Y-36.0
X80.957Y-36.0
X84.957Y-36.0
T6
X34.0Y-49.962
X34.0Y-52.502
X34.0Y-55.042
X34.0Y-57.582
X44.9Y-44.86
X44.9Y-62.64
X47.44Y-44.86
X47.44Y-62.64
X49.98Y-44.86
X49.98Y-62.64
X52.52Y-44.86
X52.52Y-62.64
X55.06Y-44.86
X55.06Y-62.64
X57.6Y-44.86
X57.6Y-62.64
X60.14Y-44.86
X60.14Y-62.64
X62.68Y-44.86
X62.68Y-62.64
X65.22Y-44.86
X65.22Y-62.64
X67.76Y-44.86
X67.76Y-62.64
X70.3Y-44.86
X70.3Y-62.64
X72.84Y-44.86
X72.84Y-62.64
X74.84Y-41.0
X74.84Y-66.5
X75.38Y-44.86
X75.38Y-62.64
X77.38Y-41.0
X77.38Y-66.5
X77.92Y-44.86
X77.92Y-62.64
X79.92Y-41.0
X79.92Y-66.5
X80.46Y-44.86
X80.46Y-62.64
X82.46Y-41.0
X82.46Y-66.5
X83.0Y-44.86
X83.0Y-62.64
X85.0Y-41.0
X85.0Y-66.5
X85.54Y-44.86
X85.54Y-62.64
X87.54Y-41.0
X87.54Y-66.5
X88.08Y-44.86
X88.08Y-62.64
X90.08Y-41.0
X90.08Y-66.5
X90.62Y-44.86
X90.62Y-62.64
X92.62Y-41.0
X92.62Y-66.5
X93.16Y-44.86
X93.16Y-62.64
T7
X60.0Y-31.75
X60.0Y-37.75
X72.0Y-31.75
X72.0Y-37.75
X74.957Y-31.75
X74.957Y-37.75
X86.957Y-31.75
X86.957Y-37.75
T8
X50.0Y-34.25
X55.0Y-34.25
T9
X90.0Y-51.325
X90.0Y-56.175
T10
X93.03Y-51.025
X93.03Y-56.475
T11
X33.0Y-32.0
X33.0Y-73.0
X93.0Y-32.0
X93.0Y-73.0
M30
