%TF.GenerationSoftware,KiCad,Pcbnew,10.0.6*%
%TF.CreationDate,2026-09-16T22:58:31-06:00*%
%TF.ProjectId,ignition-system,69676e69-7469-46f6-9e2d-73797374656d,rev?*%
%TF.SameCoordinates,Original*%
%TF.FileFunction,Soldermask,Top*%
%TF.FilePolarity,Negative*%
%FSLAX46Y46*%
G04 Gerber Fmt 4.6, Leading zero omitted, Abs format (unit mm)*
G04 Created by KiCad (PCBNEW 10.0.6) date 2026-09-16 22:58:31*
%MOMM*%
%LPD*%
G01*
G04 APERTURE LIST*
G04 Aperture macros list*
%AMRoundRect*
0 Rectangle with rounded corners*
0 $1 Rounding radius*
0 $2 $3 $4 $5 $6 $7 $8 $9 X,Y pos of 4 corners*
0 Add a 4 corners polygon primitive as box body*
4,1,4,$2,$3,$4,$5,$6,$7,$8,$9,$2,$3,0*
0 Add four circle primitives for the rounded corners*
1,1,$1+$1,$2,$3*
1,1,$1+$1,$4,$5*
1,1,$1+$1,$6,$7*
1,1,$1+$1,$8,$9*
0 Add four rect primitives between the rounded corners*
20,1,$1+$1,$2,$3,$4,$5,0*
20,1,$1+$1,$4,$5,$6,$7,0*
20,1,$1+$1,$6,$7,$8,$9,0*
20,1,$1+$1,$8,$9,$2,$3,0*%
%AMFreePoly0*
4,1,37,0.603843,0.796157,0.639018,0.796157,0.711114,0.766294,0.766294,0.711114,0.796157,0.639018,0.796157,0.603843,0.800000,0.600000,0.800000,-0.600000,0.796157,-0.603843,0.796157,-0.639018,0.766294,-0.711114,0.711114,-0.766294,0.639018,-0.796157,0.603843,-0.796157,0.600000,-0.800000,0.000000,-0.800000,0.000000,-0.796148,-0.078414,-0.796148,-0.232228,-0.765552,-0.377117,-0.705537,
-0.507515,-0.618408,-0.618408,-0.507515,-0.705537,-0.377117,-0.765552,-0.232228,-0.796148,-0.078414,-0.796148,0.078414,-0.765552,0.232228,-0.705537,0.377117,-0.618408,0.507515,-0.507515,0.618408,-0.377117,0.705537,-0.232228,0.765552,-0.078414,0.796148,0.000000,0.796148,0.000000,0.800000,0.600000,0.800000,0.603843,0.796157,0.603843,0.796157,$1*%
%AMFreePoly1*
4,1,37,0.000000,0.796148,0.078414,0.796148,0.232228,0.765552,0.377117,0.705537,0.507515,0.618408,0.618408,0.507515,0.705537,0.377117,0.765552,0.232228,0.796148,0.078414,0.796148,-0.078414,0.765552,-0.232228,0.705537,-0.377117,0.618408,-0.507515,0.507515,-0.618408,0.377117,-0.705537,0.232228,-0.765552,0.078414,-0.796148,0.000000,-0.796148,0.000000,-0.800000,-0.600000,-0.800000,
-0.603843,-0.796157,-0.639018,-0.796157,-0.711114,-0.766294,-0.766294,-0.711114,-0.796157,-0.639018,-0.796157,-0.603843,-0.800000,-0.600000,-0.800000,0.600000,-0.796157,0.603843,-0.796157,0.639018,-0.766294,0.711114,-0.711114,0.766294,-0.639018,0.796157,-0.603843,0.796157,-0.600000,0.800000,0.000000,0.800000,0.000000,0.796148,0.000000,0.796148,$1*%
G04 Aperture macros list end*
%ADD10RoundRect,0.250000X0.250000X0.475000X-0.250000X0.475000X-0.250000X-0.475000X0.250000X-0.475000X0*%
%ADD11RoundRect,0.243750X0.456250X-0.243750X0.456250X0.243750X-0.456250X0.243750X-0.456250X-0.243750X0*%
%ADD12RoundRect,0.250000X-0.450000X0.262500X-0.450000X-0.262500X0.450000X-0.262500X0.450000X0.262500X0*%
%ADD13RoundRect,0.250000X0.262500X0.450000X-0.262500X0.450000X-0.262500X-0.450000X0.262500X-0.450000X0*%
%ADD14C,3.200000*%
%ADD15RoundRect,0.150000X0.825000X0.150000X-0.825000X0.150000X-0.825000X-0.150000X0.825000X-0.150000X0*%
%ADD16R,2.410000X3.300000*%
%ADD17C,2.000000*%
%ADD18C,1.700000*%
%ADD19RoundRect,0.243750X-0.456250X0.243750X-0.456250X-0.243750X0.456250X-0.243750X0.456250X0.243750X0*%
%ADD20R,1.700000X1.700000*%
%ADD21RoundRect,0.250000X0.350000X-0.850000X0.350000X0.850000X-0.350000X0.850000X-0.350000X-0.850000X0*%
%ADD22RoundRect,0.249997X2.650003X-2.950003X2.650003X2.950003X-2.650003X2.950003X-2.650003X-2.950003X0*%
%ADD23RoundRect,0.250001X-1.149999X-1.149999X1.149999X-1.149999X1.149999X1.149999X-1.149999X1.149999X0*%
%ADD24C,2.800000*%
%ADD25RoundRect,0.250000X-0.625000X0.350000X-0.625000X-0.350000X0.625000X-0.350000X0.625000X0.350000X0*%
%ADD26O,1.750000X1.200000*%
%ADD27C,2.200000*%
%ADD28C,1.850000*%
%ADD29RoundRect,0.200000X0.600000X-0.600000X0.600000X0.600000X-0.600000X0.600000X-0.600000X-0.600000X0*%
%ADD30C,1.600000*%
%ADD31FreePoly0,90.000000*%
%ADD32FreePoly1,90.000000*%
G04 APERTURE END LIST*
D10*
%TO.C,C1*%
X45000000Y-53050000D03*
X45000000Y-54950000D03*
%TD*%
D11*
%TO.C,BLED1*%
X61000000Y-60125000D03*
X61000000Y-58250000D03*
%TD*%
D12*
%TO.C,R7*%
X61000000Y-55000000D03*
X61000000Y-53175000D03*
%TD*%
%TO.C,R2*%
X49000000Y-48000000D03*
X49000000Y-49825000D03*
%TD*%
D13*
%TO.C,R6*%
X57000000Y-50000000D03*
X57000000Y-48175000D03*
%TD*%
D14*
%TO.C,REF\u002A\u002A*%
X33000000Y-32000000D03*
%TD*%
D12*
%TO.C,R3*%
X53000000Y-53087500D03*
X53000000Y-54912500D03*
%TD*%
D10*
%TO.C,C2*%
X45000000Y-48050000D03*
X45000000Y-49950000D03*
%TD*%
D12*
%TO.C,R9*%
X65000000Y-53175000D03*
X65000000Y-55000000D03*
%TD*%
D15*
%TO.C,ModuloDeCarga1*%
X52475000Y-73905000D03*
X52475000Y-72635000D03*
X52475000Y-71365000D03*
X52475000Y-70095000D03*
X47525000Y-70095000D03*
X47525000Y-71365000D03*
X47525000Y-72635000D03*
X47525000Y-73905000D03*
D16*
X50000000Y-72000000D03*
%TD*%
D12*
%TO.C,R4*%
X53000000Y-48087500D03*
X53000000Y-49912500D03*
%TD*%
D17*
%TO.C,SW2*%
X86957500Y-37750000D03*
X86957500Y-31750000D03*
X74957500Y-37750000D03*
X74957500Y-31750000D03*
D18*
X84957500Y-36000000D03*
X80957500Y-36000000D03*
X76957500Y-36000000D03*
%TD*%
D19*
%TO.C,STDBY1*%
X49000000Y-58250000D03*
X49000000Y-60125000D03*
%TD*%
D20*
%TO.C,LORA-Sx1278(B)1*%
X74840000Y-41000000D03*
D18*
X77380000Y-41000000D03*
X79920000Y-41000000D03*
X82460000Y-41000000D03*
X85000000Y-41000000D03*
X87540000Y-41000000D03*
X90080000Y-41000000D03*
X92620000Y-41000000D03*
%TD*%
D13*
%TO.C,R11*%
X65000000Y-50000000D03*
X65000000Y-48175000D03*
%TD*%
D12*
%TO.C,R1*%
X49000000Y-53175000D03*
X49000000Y-55000000D03*
%TD*%
D19*
%TO.C,CHRG1*%
X45000000Y-58125000D03*
X45000000Y-60000000D03*
%TD*%
D12*
%TO.C,R8*%
X61000000Y-48175000D03*
X61000000Y-50000000D03*
%TD*%
D14*
%TO.C,REF\u002A\u002A*%
X93000000Y-32000000D03*
%TD*%
D11*
%TO.C,RLED1*%
X53000000Y-60000000D03*
X53000000Y-58125000D03*
%TD*%
D17*
%TO.C,SW3*%
X72000000Y-37750000D03*
X72000000Y-31750000D03*
X60000000Y-37750000D03*
X60000000Y-31750000D03*
D18*
X70000000Y-36000000D03*
X66000000Y-36000000D03*
X62000000Y-36000000D03*
%TD*%
D21*
%TO.C,AOD4184A1*%
X40245000Y-40300000D03*
D22*
X42525000Y-34000000D03*
D21*
X44805000Y-40300000D03*
%TD*%
D23*
%TO.C,IGNITOR1*%
X50000000Y-34250000D03*
D24*
X55000000Y-34250000D03*
%TD*%
D13*
%TO.C,R5*%
X57000000Y-54912500D03*
X57000000Y-53087500D03*
%TD*%
D11*
%TO.C,YLED1*%
X57000000Y-60125000D03*
X57000000Y-58250000D03*
%TD*%
D14*
%TO.C,REF\u002A\u002A*%
X93000000Y-73000000D03*
%TD*%
D20*
%TO.C,LORA-Sx1278(A)1*%
X74840000Y-66500000D03*
D18*
X77380000Y-66500000D03*
X79920000Y-66500000D03*
X82460000Y-66500000D03*
X85000000Y-66500000D03*
X87540000Y-66500000D03*
X90080000Y-66500000D03*
X92620000Y-66500000D03*
%TD*%
D20*
%TO.C,Display1-SSD1306*%
X34000000Y-49962500D03*
D18*
X34000000Y-52502500D03*
X34000000Y-55042500D03*
X34000000Y-57582500D03*
%TD*%
D14*
%TO.C,REF\u002A\u002A*%
X33000000Y-73000000D03*
%TD*%
D25*
%TO.C,InBatt1*%
X40550000Y-71000000D03*
D26*
X40550000Y-73000000D03*
%TD*%
D27*
%TO.C,RaspberryPi_Pico1-RP2040*%
X93030000Y-56475000D03*
D28*
X90000000Y-56175000D03*
X90000000Y-51325000D03*
D27*
X93030000Y-51025000D03*
D29*
X93160000Y-62640000D03*
D30*
X90620000Y-62640000D03*
D31*
X88080000Y-62640000D03*
D30*
X85540000Y-62640000D03*
X83000000Y-62640000D03*
X80460000Y-62640000D03*
X77920000Y-62640000D03*
D31*
X75380000Y-62640000D03*
D30*
X72840000Y-62640000D03*
X70300000Y-62640000D03*
X67760000Y-62640000D03*
X65220000Y-62640000D03*
D31*
X62680000Y-62640000D03*
D30*
X60140000Y-62640000D03*
X57600000Y-62640000D03*
X55060000Y-62640000D03*
X52520000Y-62640000D03*
D31*
X49980000Y-62640000D03*
D30*
X47440000Y-62640000D03*
X44900000Y-62640000D03*
X44900000Y-44860000D03*
X47440000Y-44860000D03*
D32*
X49980000Y-44860000D03*
D30*
X52520000Y-44860000D03*
X55060000Y-44860000D03*
X57600000Y-44860000D03*
X60140000Y-44860000D03*
D32*
X62680000Y-44860000D03*
D30*
X65220000Y-44860000D03*
X67760000Y-44860000D03*
X70300000Y-44860000D03*
X72840000Y-44860000D03*
D32*
X75380000Y-44860000D03*
D30*
X77920000Y-44860000D03*
X80460000Y-44860000D03*
X83000000Y-44860000D03*
X85540000Y-44860000D03*
D32*
X88080000Y-44860000D03*
D30*
X90620000Y-44860000D03*
X93160000Y-44860000D03*
%TD*%
D25*
%TO.C,TH1*%
X60550000Y-71000000D03*
D26*
X60550000Y-73000000D03*
%TD*%
D25*
%TO.C,SW1*%
X77550000Y-71000000D03*
D26*
X77550000Y-73000000D03*
%TD*%
M02*
