%TF.GenerationSoftware,KiCad,Pcbnew,10.0.6*%
%TF.CreationDate,2026-09-16T22:58:31-06:00*%
%TF.ProjectId,ignition-system,69676e69-7469-46f6-9e2d-73797374656d,rev?*%
%TF.SameCoordinates,Original*%
%TF.FileFunction,Copper,L1,Top*%
%TF.FilePolarity,Positive*%
%FSLAX46Y46*%
G04 Gerber Fmt 4.6, Leading zero omitted, Abs format (unit mm)*
G04 Created by KiCad (PCBNEW 10.0.6) date 2026-09-16 22:58:31*
%MOMM*%
%LPD*%
G01*
G04 APERTURE LIST*
G04 Aperture macros list*
%AMRoundRect*
0 Rectangle with rounded corners*
0 $1 Rounding radius*
0 $2 $3 $4 $5 $6 $7 $8 $9 X,Y pos of 4 corners*
0 Add a 4 corners polygon primitive as box body*
4,1,4,$2,$3,$4,$5,$6,$7,$8,$9,$2,$3,0*
0 Add four circle primitives for the rounded corners*
1,1,$1+$1,$2,$3*
1,1,$1+$1,$4,$5*
1,1,$1+$1,$6,$7*
1,1,$1+$1,$8,$9*
0 Add four rect primitives between the rounded corners*
20,1,$1+$1,$2,$3,$4,$5,0*
20,1,$1+$1,$4,$5,$6,$7,0*
20,1,$1+$1,$6,$7,$8,$9,0*
20,1,$1+$1,$8,$9,$2,$3,0*%
%AMFreePoly0*
4,1,37,0.603843,0.796157,0.639018,0.796157,0.711114,0.766294,0.766294,0.711114,0.796157,0.639018,0.796157,0.603843,0.800000,0.600000,0.800000,-0.600000,0.796157,-0.603843,0.796157,-0.639018,0.766294,-0.711114,0.711114,-0.766294,0.639018,-0.796157,0.603843,-0.796157,0.600000,-0.800000,0.000000,-0.800000,0.000000,-0.796148,-0.078414,-0.796148,-0.232228,-0.765552,-0.377117,-0.705537,
-0.507515,-0.618408,-0.618408,-0.507515,-0.705537,-0.377117,-0.765552,-0.232228,-0.796148,-0.078414,-0.796148,0.078414,-0.765552,0.232228,-0.705537,0.377117,-0.618408,0.507515,-0.507515,0.618408,-0.377117,0.705537,-0.232228,0.765552,-0.078414,0.796148,0.000000,0.796148,0.000000,0.800000,0.600000,0.800000,0.603843,0.796157,0.603843,0.796157,$1*%
%AMFreePoly1*
4,1,37,0.000000,0.796148,0.078414,0.796148,0.232228,0.765552,0.377117,0.705537,0.507515,0.618408,0.618408,0.507515,0.705537,0.377117,0.765552,0.232228,0.796148,0.078414,0.796148,-0.078414,0.765552,-0.232228,0.705537,-0.377117,0.618408,-0.507515,0.507515,-0.618408,0.377117,-0.705537,0.232228,-0.765552,0.078414,-0.796148,0.000000,-0.796148,0.000000,-0.800000,-0.600000,-0.800000,
-0.603843,-0.796157,-0.639018,-0.796157,-0.711114,-0.766294,-0.766294,-0.711114,-0.796157,-0.639018,-0.796157,-0.603843,-0.800000,-0.600000,-0.800000,0.600000,-0.796157,0.603843,-0.796157,0.639018,-0.766294,0.711114,-0.711114,0.766294,-0.639018,0.796157,-0.603843,0.796157,-0.600000,0.800000,0.000000,0.800000,0.000000,0.796148,0.000000,0.796148,$1*%
G04 Aperture macros list end*
%TA.AperFunction,SMDPad,CuDef*%
%ADD10RoundRect,0.250000X0.250000X0.475000X-0.250000X0.475000X-0.250000X-0.475000X0.250000X-0.475000X0*%
%TD*%
%TA.AperFunction,SMDPad,CuDef*%
%ADD11RoundRect,0.243750X0.456250X-0.243750X0.456250X0.243750X-0.456250X0.243750X-0.456250X-0.243750X0*%
%TD*%
%TA.AperFunction,SMDPad,CuDef*%
%ADD12RoundRect,0.250000X-0.450000X0.262500X-0.450000X-0.262500X0.450000X-0.262500X0.450000X0.262500X0*%
%TD*%
%TA.AperFunction,SMDPad,CuDef*%
%ADD13RoundRect,0.250000X0.262500X0.450000X-0.262500X0.450000X-0.262500X-0.450000X0.262500X-0.450000X0*%
%TD*%
%TA.AperFunction,SMDPad,CuDef*%
%ADD14RoundRect,0.150000X0.825000X0.150000X-0.825000X0.150000X-0.825000X-0.150000X0.825000X-0.150000X0*%
%TD*%
%TA.AperFunction,HeatsinkPad*%
%ADD15C,0.500000*%
%TD*%
%TA.AperFunction,HeatsinkPad*%
%ADD16R,2.410000X3.300000*%
%TD*%
%TA.AperFunction,ComponentPad*%
%ADD17C,2.000000*%
%TD*%
%TA.AperFunction,ComponentPad*%
%ADD18C,1.700000*%
%TD*%
%TA.AperFunction,SMDPad,CuDef*%
%ADD19RoundRect,0.243750X-0.456250X0.243750X-0.456250X-0.243750X0.456250X-0.243750X0.456250X0.243750X0*%
%TD*%
%TA.AperFunction,ComponentPad*%
%ADD20R,1.700000X1.700000*%
%TD*%
%TA.AperFunction,SMDPad,CuDef*%
%ADD21RoundRect,0.250000X0.350000X-0.850000X0.350000X0.850000X-0.350000X0.850000X-0.350000X-0.850000X0*%
%TD*%
%TA.AperFunction,SMDPad,CuDef*%
%ADD22RoundRect,0.249997X2.650003X-2.950003X2.650003X2.950003X-2.650003X2.950003X-2.650003X-2.950003X0*%
%TD*%
%TA.AperFunction,ComponentPad*%
%ADD23RoundRect,0.250001X-1.149999X-1.149999X1.149999X-1.149999X1.149999X1.149999X-1.149999X1.149999X0*%
%TD*%
%TA.AperFunction,ComponentPad*%
%ADD24C,2.800000*%
%TD*%
%TA.AperFunction,ComponentPad*%
%ADD25RoundRect,0.250000X-0.625000X0.350000X-0.625000X-0.350000X0.625000X-0.350000X0.625000X0.350000X0*%
%TD*%
%TA.AperFunction,ComponentPad*%
%ADD26O,1.750000X1.200000*%
%TD*%
%TA.AperFunction,ComponentPad*%
%ADD27RoundRect,0.200000X0.600000X-0.600000X0.600000X0.600000X-0.600000X0.600000X-0.600000X-0.600000X0*%
%TD*%
%TA.AperFunction,ComponentPad*%
%ADD28C,1.600000*%
%TD*%
%TA.AperFunction,ComponentPad*%
%ADD29FreePoly0,90.000000*%
%TD*%
%TA.AperFunction,ComponentPad*%
%ADD30FreePoly1,90.000000*%
%TD*%
%TA.AperFunction,ViaPad*%
%ADD31C,0.600000*%
%TD*%
%TA.AperFunction,ViaPad*%
%ADD32C,0.800000*%
%TD*%
%TA.AperFunction,Conductor*%
%ADD33C,1.000000*%
%TD*%
%TA.AperFunction,Conductor*%
%ADD34C,0.200000*%
%TD*%
%TA.AperFunction,Conductor*%
%ADD35C,0.300000*%
%TD*%
G04 APERTURE END LIST*
D10*
%TO.P,C1,1*%
%TO.N,Net-(InBatt1-Pin_1)*%
X45000000Y-53050000D03*
%TO.P,C1,2*%
%TO.N,GND*%
X45000000Y-54950000D03*
%TD*%
D11*
%TO.P,BLED1,1,K_1*%
%TO.N,GND*%
X61000000Y-60125000D03*
%TO.P,BLED1,2,A_2*%
%TO.N,Net-(BLED1-A)*%
X61000000Y-58250000D03*
%TD*%
D12*
%TO.P,R7,1*%
%TO.N,Net-(AOD4184A1-G)*%
X61000000Y-55000000D03*
%TO.P,R7,2*%
%TO.N,GND*%
X61000000Y-53175000D03*
%TD*%
%TO.P,R2,1*%
%TO.N,Net-(YLED1-A)*%
X49000000Y-48000000D03*
%TO.P,R2,2*%
%TO.N,LED_MODO*%
X49000000Y-49825000D03*
%TD*%
D13*
%TO.P,R6,1*%
%TO.N,ADC_Bateria*%
X57000000Y-50000000D03*
%TO.P,R6,2*%
%TO.N,GND*%
X57000000Y-48175000D03*
%TD*%
D12*
%TO.P,R3,1*%
%TO.N,Net-(RLED1-A)*%
X53000000Y-53087500D03*
%TO.P,R3,2*%
%TO.N,LED_ARMADO*%
X53000000Y-54912500D03*
%TD*%
D10*
%TO.P,C2,1*%
%TO.N,VBUS*%
X45000000Y-48050000D03*
%TO.P,C2,2*%
%TO.N,GND*%
X45000000Y-49950000D03*
%TD*%
D12*
%TO.P,R9,1*%
%TO.N,CHRG*%
X65000000Y-53175000D03*
%TO.P,R9,2*%
%TO.N,Net-(CHRG1-K)*%
X65000000Y-55000000D03*
%TD*%
D14*
%TO.P,ModuloDeCarga1,1,TEMP_1*%
%TO.N,Net-(ModuloDeCarga1-TEMP)*%
X52475000Y-73905000D03*
%TO.P,ModuloDeCarga1,2,PROG_2*%
%TO.N,Net-(ModuloDeCarga1-PROG)*%
X52475000Y-72635000D03*
%TO.P,ModuloDeCarga1,3,GND_3*%
%TO.N,GND*%
X52475000Y-71365000D03*
%TO.P,ModuloDeCarga1,4,V_{CC}_4*%
%TO.N,VBUS*%
X52475000Y-70095000D03*
%TO.P,ModuloDeCarga1,5,BAT_5*%
%TO.N,Net-(InBatt1-Pin_1)*%
X47525000Y-70095000D03*
%TO.P,ModuloDeCarga1,6,~{STDBY}_6*%
%TO.N,STDBY*%
X47525000Y-71365000D03*
%TO.P,ModuloDeCarga1,7,~{CHRG}_7*%
%TO.N,CHRG*%
X47525000Y-72635000D03*
%TO.P,ModuloDeCarga1,8,CE_8*%
%TO.N,VBUS*%
X47525000Y-73905000D03*
D15*
%TO.P,ModuloDeCarga1,9,EPAD_9*%
%TO.N,GND*%
X50700000Y-73200000D03*
X50700000Y-72000000D03*
X50700000Y-70800000D03*
D16*
X50000000Y-72000000D03*
D15*
X49300000Y-73200000D03*
X49300000Y-72000000D03*
X49300000Y-70800000D03*
%TD*%
D12*
%TO.P,R4,1*%
%TO.N,Net-(ModuloDeCarga1-PROG)*%
X53000000Y-48087500D03*
%TO.P,R4,2*%
%TO.N,GND*%
X53000000Y-49912500D03*
%TD*%
D17*
%TO.P,SW2,*%
%TO.N,*%
X86957500Y-37750000D03*
X86957500Y-31750000D03*
X74957500Y-37750000D03*
X74957500Y-31750000D03*
D18*
%TO.P,SW2,1,A_1*%
%TO.N,VSYS*%
X84957500Y-36000000D03*
%TO.P,SW2,2,B_2*%
%TO.N,Net-(IGNITOR1-Pin_1)*%
X80957500Y-36000000D03*
%TO.P,SW2,3,C_3*%
%TO.N,GND*%
X76957500Y-36000000D03*
%TD*%
D19*
%TO.P,STDBY1,1,K_1*%
%TO.N,Net-(STDBY1-K)*%
X49000000Y-58250000D03*
%TO.P,STDBY1,2,A_2*%
%TO.N,VBUS*%
X49000000Y-60125000D03*
%TD*%
D20*
%TO.P,LORA-Sx1278(B)1,1,Pin_1_1*%
%TO.N,GND*%
X74840000Y-41000000D03*
D18*
%TO.P,LORA-Sx1278(B)1,2,Pin_2_2*%
%TO.N,NSS*%
X77380000Y-41000000D03*
%TO.P,LORA-Sx1278(B)1,3,Pin_3_3*%
%TO.N,MOSI*%
X79920000Y-41000000D03*
%TO.P,LORA-Sx1278(B)1,4,Pin_4_4*%
%TO.N,MISO*%
X82460000Y-41000000D03*
%TO.P,LORA-Sx1278(B)1,5,Pin_5_5*%
%TO.N,SCK*%
X85000000Y-41000000D03*
%TO.P,LORA-Sx1278(B)1,6,Pin_6_6*%
%TO.N,unconnected-(LORA-Sx1278(B)1-Pin_6-Pad6)*%
X87540000Y-41000000D03*
%TO.P,LORA-Sx1278(B)1,7,Pin_7_7*%
%TO.N,unconnected-(LORA-Sx1278(B)1-Pin_7-Pad7)*%
X90080000Y-41000000D03*
%TO.P,LORA-Sx1278(B)1,8,Pin_8_8*%
%TO.N,GND*%
X92620000Y-41000000D03*
%TD*%
D13*
%TO.P,R11,1*%
%TO.N,IGNITION_GATE*%
X65000000Y-50000000D03*
%TO.P,R11,2*%
%TO.N,Net-(AOD4184A1-G)*%
X65000000Y-48175000D03*
%TD*%
D12*
%TO.P,R1,1*%
%TO.N,Net-(BLED1-A)*%
X49000000Y-53175000D03*
%TO.P,R1,2*%
%TO.N,LED_LINK*%
X49000000Y-55000000D03*
%TD*%
D19*
%TO.P,CHRG1,1,K_1*%
%TO.N,Net-(CHRG1-K)*%
X45000000Y-58125000D03*
%TO.P,CHRG1,2,A_2*%
%TO.N,VBUS*%
X45000000Y-60000000D03*
%TD*%
D12*
%TO.P,R8,1*%
%TO.N,STDBY*%
X61000000Y-48175000D03*
%TO.P,R8,2*%
%TO.N,Net-(STDBY1-K)*%
X61000000Y-50000000D03*
%TD*%
D11*
%TO.P,RLED1,1,K_1*%
%TO.N,GND*%
X53000000Y-60000000D03*
%TO.P,RLED1,2,A_2*%
%TO.N,Net-(RLED1-A)*%
X53000000Y-58125000D03*
%TD*%
D17*
%TO.P,SW3,*%
%TO.N,*%
X72000000Y-37750000D03*
X72000000Y-31750000D03*
X60000000Y-37750000D03*
X60000000Y-31750000D03*
D18*
%TO.P,SW3,1,A_1*%
%TO.N,Net-(InBatt1-Pin_1)*%
X70000000Y-36000000D03*
%TO.P,SW3,2,B_2*%
%TO.N,VSYS*%
X66000000Y-36000000D03*
%TO.P,SW3,3,C_3*%
%TO.N,unconnected-(SW3-C-Pad3)*%
X62000000Y-36000000D03*
%TD*%
D21*
%TO.P,AOD4184A1,1,D_1*%
%TO.N,Net-(AOD4184A1-D)*%
X40245000Y-40300000D03*
D22*
%TO.P,AOD4184A1,2,G_2*%
%TO.N,Net-(AOD4184A1-G)*%
X42525000Y-34000000D03*
D21*
%TO.P,AOD4184A1,3,S_3*%
%TO.N,GND*%
X44805000Y-40300000D03*
%TD*%
D23*
%TO.P,IGNITOR1,1,Pin_1_1*%
%TO.N,Net-(IGNITOR1-Pin_1)*%
X50000000Y-34250000D03*
D24*
%TO.P,IGNITOR1,2,Pin_2_2*%
%TO.N,Net-(AOD4184A1-D)*%
X55000000Y-34250000D03*
%TD*%
D13*
%TO.P,R5,1*%
%TO.N,VSYS*%
X57000000Y-54912500D03*
%TO.P,R5,2*%
%TO.N,ADC_Bateria*%
X57000000Y-53087500D03*
%TD*%
D11*
%TO.P,YLED1,1,K_1*%
%TO.N,GND*%
X57000000Y-60125000D03*
%TO.P,YLED1,2,A_2*%
%TO.N,Net-(YLED1-A)*%
X57000000Y-58250000D03*
%TD*%
D20*
%TO.P,LORA-Sx1278(A)1,1,Pin_1_1*%
%TO.N,GND*%
X74840000Y-66500000D03*
D18*
%TO.P,LORA-Sx1278(A)1,2,Pin_2_2*%
X77380000Y-66500000D03*
%TO.P,LORA-Sx1278(A)1,3,Pin_3_3*%
%TO.N,3V3*%
X79920000Y-66500000D03*
%TO.P,LORA-Sx1278(A)1,4,Pin_4_4*%
%TO.N,RST*%
X82460000Y-66500000D03*
%TO.P,LORA-Sx1278(A)1,5,Pin_5_5*%
%TO.N,DIO0*%
X85000000Y-66500000D03*
%TO.P,LORA-Sx1278(A)1,6,Pin_6_6*%
%TO.N,unconnected-(LORA-Sx1278(A)1-Pin_6-Pad6)*%
X87540000Y-66500000D03*
%TO.P,LORA-Sx1278(A)1,7,Pin_7_7*%
%TO.N,unconnected-(LORA-Sx1278(A)1-Pin_7-Pad7)*%
X90080000Y-66500000D03*
%TO.P,LORA-Sx1278(A)1,8,Pin_8_8*%
%TO.N,unconnected-(LORA-Sx1278(A)1-Pin_8-Pad8)*%
X92620000Y-66500000D03*
%TD*%
D20*
%TO.P,Display1-SSD1306,1,Pin_1_1*%
%TO.N,SDA*%
X34000000Y-49962500D03*
D18*
%TO.P,Display1-SSD1306,2,Pin_2_2*%
%TO.N,SCL*%
X34000000Y-52502500D03*
%TO.P,Display1-SSD1306,3,Pin_3_3*%
%TO.N,3V3*%
X34000000Y-55042500D03*
%TO.P,Display1-SSD1306,4,Pin_4_4*%
%TO.N,GND*%
X34000000Y-57582500D03*
%TD*%
D25*
%TO.P,InBatt1,1,Pin_1_1*%
%TO.N,Net-(InBatt1-Pin_1)*%
X40550000Y-71000000D03*
D26*
%TO.P,InBatt1,2,Pin_2_2*%
%TO.N,GND*%
X40550000Y-73000000D03*
%TD*%
D27*
%TO.P,RaspberryPi_Pico1-RP2040,1,GPIO0_1*%
%TO.N,unconnected-(RaspberryPi_Pico1-RP2040-GPIO0-Pad1)_1*%
X93160000Y-62640000D03*
D28*
%TO.P,RaspberryPi_Pico1-RP2040,2,GPIO1_2*%
%TO.N,unconnected-(RaspberryPi_Pico1-RP2040-GPIO1-Pad2)*%
X90620000Y-62640000D03*
D29*
%TO.P,RaspberryPi_Pico1-RP2040,3,GND_3*%
%TO.N,GND*%
X88080000Y-62640000D03*
D28*
%TO.P,RaspberryPi_Pico1-RP2040,4,GPIO2_4*%
%TO.N,unconnected-(RaspberryPi_Pico1-RP2040-GPIO2-Pad4)_1*%
X85540000Y-62640000D03*
%TO.P,RaspberryPi_Pico1-RP2040,5,GPIO3_5*%
%TO.N,unconnected-(RaspberryPi_Pico1-RP2040-GPIO3-Pad5)*%
X83000000Y-62640000D03*
%TO.P,RaspberryPi_Pico1-RP2040,6,GPIO4_6*%
%TO.N,SDA*%
X80460000Y-62640000D03*
%TO.P,RaspberryPi_Pico1-RP2040,7,GPIO5_7*%
%TO.N,SCL*%
X77920000Y-62640000D03*
D29*
%TO.P,RaspberryPi_Pico1-RP2040,8,GND_8*%
%TO.N,GND*%
X75380000Y-62640000D03*
D28*
%TO.P,RaspberryPi_Pico1-RP2040,9,GPIO6_9*%
%TO.N,unconnected-(RaspberryPi_Pico1-RP2040-GPIO6-Pad9)*%
X72840000Y-62640000D03*
%TO.P,RaspberryPi_Pico1-RP2040,10,GPIO7_10*%
%TO.N,unconnected-(RaspberryPi_Pico1-RP2040-GPIO7-Pad10)*%
X70300000Y-62640000D03*
%TO.P,RaspberryPi_Pico1-RP2040,11,GPIO8_11*%
%TO.N,unconnected-(RaspberryPi_Pico1-RP2040-GPIO8-Pad11)_1*%
X67760000Y-62640000D03*
%TO.P,RaspberryPi_Pico1-RP2040,12,GPIO9_12*%
%TO.N,unconnected-(RaspberryPi_Pico1-RP2040-GPIO9-Pad12)*%
X65220000Y-62640000D03*
D29*
%TO.P,RaspberryPi_Pico1-RP2040,13,GND_13*%
%TO.N,GND*%
X62680000Y-62640000D03*
D28*
%TO.P,RaspberryPi_Pico1-RP2040,14,GPIO10_14*%
%TO.N,LED_LINK*%
X60140000Y-62640000D03*
%TO.P,RaspberryPi_Pico1-RP2040,15,GPIO11_15*%
%TO.N,LED_MODO*%
X57600000Y-62640000D03*
%TO.P,RaspberryPi_Pico1-RP2040,16,GPIO12_16*%
%TO.N,LED_ARMADO*%
X55060000Y-62640000D03*
%TO.P,RaspberryPi_Pico1-RP2040,17,GPIO13_17*%
%TO.N,BTN_FIRE*%
X52520000Y-62640000D03*
D29*
%TO.P,RaspberryPi_Pico1-RP2040,18,GND_18*%
%TO.N,GND*%
X49980000Y-62640000D03*
D28*
%TO.P,RaspberryPi_Pico1-RP2040,19,GPIO14_19*%
%TO.N,unconnected-(RaspberryPi_Pico1-RP2040-GPIO14-Pad19)*%
X47440000Y-62640000D03*
%TO.P,RaspberryPi_Pico1-RP2040,20,GPIO15_20*%
%TO.N,IGNITION_GATE*%
X44900000Y-62640000D03*
%TO.P,RaspberryPi_Pico1-RP2040,21,GPIO16_21*%
%TO.N,MISO*%
X44900000Y-44860000D03*
%TO.P,RaspberryPi_Pico1-RP2040,22,GPIO17_22*%
%TO.N,NSS*%
X47440000Y-44860000D03*
D30*
%TO.P,RaspberryPi_Pico1-RP2040,23,GND_23*%
%TO.N,GND*%
X49980000Y-44860000D03*
D28*
%TO.P,RaspberryPi_Pico1-RP2040,24,GPIO18_24*%
%TO.N,SCK*%
X52520000Y-44860000D03*
%TO.P,RaspberryPi_Pico1-RP2040,25,GPIO19_25*%
%TO.N,MOSI*%
X55060000Y-44860000D03*
%TO.P,RaspberryPi_Pico1-RP2040,26,GPIO20_26*%
%TO.N,RST*%
X57600000Y-44860000D03*
%TO.P,RaspberryPi_Pico1-RP2040,27,GPIO21_27*%
%TO.N,DIO0*%
X60140000Y-44860000D03*
D30*
%TO.P,RaspberryPi_Pico1-RP2040,28,GND_28*%
%TO.N,GND*%
X62680000Y-44860000D03*
D28*
%TO.P,RaspberryPi_Pico1-RP2040,29,GPIO22_29*%
%TO.N,unconnected-(RaspberryPi_Pico1-RP2040-GPIO22-Pad29)*%
X65220000Y-44860000D03*
%TO.P,RaspberryPi_Pico1-RP2040,30,RUN_30*%
%TO.N,unconnected-(RaspberryPi_Pico1-RP2040-RUN-Pad30)*%
X67760000Y-44860000D03*
%TO.P,RaspberryPi_Pico1-RP2040,31,GPIO26_ADC0_31*%
%TO.N,ADC_Bateria*%
X70300000Y-44860000D03*
%TO.P,RaspberryPi_Pico1-RP2040,32,GPIO27_ADC1_32*%
%TO.N,unconnected-(RaspberryPi_Pico1-RP2040-GPIO27_ADC1-Pad32)*%
X72840000Y-44860000D03*
D30*
%TO.P,RaspberryPi_Pico1-RP2040,33,AGND_33*%
%TO.N,unconnected-(RaspberryPi_Pico1-RP2040-AGND-Pad33)*%
X75380000Y-44860000D03*
D28*
%TO.P,RaspberryPi_Pico1-RP2040,34,GPIO28_ADC2_34*%
%TO.N,unconnected-(RaspberryPi_Pico1-RP2040-GPIO28_ADC2-Pad34)*%
X77920000Y-44860000D03*
%TO.P,RaspberryPi_Pico1-RP2040,35,ADC_VREF_35*%
%TO.N,unconnected-(RaspberryPi_Pico1-RP2040-ADC_VREF-Pad35)*%
X80460000Y-44860000D03*
%TO.P,RaspberryPi_Pico1-RP2040,36,3V3_36*%
%TO.N,3V3*%
X83000000Y-44860000D03*
%TO.P,RaspberryPi_Pico1-RP2040,37,3V3_EN_37*%
%TO.N,unconnected-(RaspberryPi_Pico1-RP2040-3V3_EN-Pad37)*%
X85540000Y-44860000D03*
D30*
%TO.P,RaspberryPi_Pico1-RP2040,38,GND_38*%
%TO.N,GND*%
X88080000Y-44860000D03*
D28*
%TO.P,RaspberryPi_Pico1-RP2040,39,VSYS_39*%
%TO.N,VSYS*%
X90620000Y-44860000D03*
%TO.P,RaspberryPi_Pico1-RP2040,40,VBUS_40*%
%TO.N,VBUS*%
X93160000Y-44860000D03*
%TD*%
D25*
%TO.P,TH1,1*%
%TO.N,Net-(ModuloDeCarga1-TEMP)*%
X60550000Y-71000000D03*
D26*
%TO.P,TH1,2*%
%TO.N,GND*%
X60550000Y-73000000D03*
%TD*%
D25*
%TO.P,SW1,1,1_1*%
%TO.N,BTN_FIRE*%
X77550000Y-71000000D03*
D26*
%TO.P,SW1,2,2_2*%
%TO.N,GND*%
X77550000Y-73000000D03*
%TD*%
D31*
%TO.N,GND*%
X51517961Y-57800802D03*
X75000000Y-36000000D03*
X50000000Y-66000000D03*
X63500000Y-51500000D03*
X53000000Y-49500000D03*
X57000000Y-48050000D03*
X62500000Y-64400000D03*
X43500000Y-55000000D03*
X56667080Y-61600000D03*
X61000000Y-61000000D03*
X46000000Y-40000000D03*
X71500000Y-67000000D03*
X43000000Y-50000000D03*
%TO.N,Net-(BLED1-A)*%
X48049999Y-52067787D03*
X60788630Y-57134404D03*
%TO.N,Net-(AOD4184A1-G)*%
X68000000Y-36000000D03*
X67000000Y-33000000D03*
X68000000Y-39000000D03*
X69179377Y-42599999D03*
%TO.N,Net-(YLED1-A)*%
X50500000Y-48500000D03*
X55600000Y-48500000D03*
%TO.N,LED_MODO*%
X50000000Y-52000000D03*
X58000000Y-52000000D03*
%TO.N,ADC_Bateria*%
X58012500Y-48050000D03*
X68579377Y-46000000D03*
X70000000Y-47000000D03*
X61000000Y-45862500D03*
%TO.N,Net-(RLED1-A)*%
X54400000Y-54000000D03*
X50500000Y-54020771D03*
D32*
%TO.N,VBUS*%
X44000000Y-66000000D03*
X51000000Y-60000000D03*
X44000000Y-71245000D03*
X63000000Y-59750000D03*
D31*
%TO.N,CHRG*%
X46100000Y-72855000D03*
X65500000Y-68000000D03*
X66500000Y-66000000D03*
X68000000Y-52000000D03*
X65500000Y-70600000D03*
X66400000Y-51500000D03*
X66500000Y-58700000D03*
X57500000Y-74000000D03*
%TO.N,Net-(CHRG1-K)*%
X45000000Y-57000000D03*
X62200000Y-55060207D03*
%TO.N,Net-(ModuloDeCarga1-PROG)*%
X53000000Y-51000000D03*
X50045880Y-58950000D03*
X51285000Y-62051419D03*
X55000000Y-70000000D03*
X50500000Y-51275566D03*
X52000000Y-66000000D03*
%TO.N,STDBY*%
X45500000Y-71500000D03*
X63500000Y-70600000D03*
X59414613Y-52414613D03*
X64000000Y-66000000D03*
X55500000Y-74200000D03*
X64000000Y-62000000D03*
X63500000Y-68000000D03*
X60000000Y-54000000D03*
D32*
%TO.N,VSYS*%
X39000000Y-46000000D03*
X53000000Y-56175000D03*
X66000000Y-46969669D03*
X43455000Y-40000000D03*
X77000000Y-51000000D03*
X55000000Y-37000000D03*
X60000000Y-47000000D03*
X81000000Y-51000000D03*
X54000000Y-46925000D03*
X57000000Y-57000000D03*
X44328858Y-46575000D03*
X69101041Y-48101041D03*
D31*
%TO.N,Net-(IGNITOR1-Pin_1)*%
X63000000Y-32000000D03*
X79000000Y-35050000D03*
X54000000Y-31000000D03*
X58000000Y-31000000D03*
X52930151Y-33350000D03*
X70000000Y-32000000D03*
%TO.N,Net-(STDBY1-K)*%
X48500000Y-57000000D03*
X60014613Y-51500000D03*
%TO.N,MISO*%
X49000000Y-41000000D03*
X55660000Y-41800000D03*
X50352521Y-41496009D03*
X54200000Y-41800000D03*
%TO.N,SCK*%
X53634313Y-42365687D03*
X56101114Y-42474307D03*
%TO.N,IGNITION_GATE*%
X54000000Y-61000000D03*
X59300000Y-61000000D03*
%TO.N,LED_LINK*%
X50917961Y-58753882D03*
X60000000Y-57000000D03*
%TO.N,3V3*%
X79000000Y-57950000D03*
X42000000Y-68000000D03*
X52000000Y-68000000D03*
X38000000Y-68000000D03*
X79000000Y-60050000D03*
X48947537Y-68052463D03*
%TO.N,SDA*%
X58000000Y-67000000D03*
X78438753Y-61000000D03*
X41550000Y-67000000D03*
X39000000Y-66250000D03*
X51000000Y-67000000D03*
X47947537Y-67052463D03*
X80000000Y-61000000D03*
X55000000Y-67000000D03*
%TO.N,SCL*%
X42000000Y-69000000D03*
X49947537Y-69052463D03*
X53000000Y-69000000D03*
X39000000Y-69000000D03*
X58207108Y-67792892D03*
X56000000Y-69000000D03*
%TO.N,BTN_FIRE*%
X55400000Y-66000000D03*
X58951710Y-70100000D03*
%TD*%
%TO.N,Net-(InBatt1-Pin_1)*%
D33*
X41000000Y-45154570D02*
X44054570Y-42100000D01*
X40550000Y-71000000D02*
X40550000Y-53450000D01*
X41000000Y-53000000D02*
X41050000Y-53050000D01*
X40550000Y-71000000D02*
X41455000Y-70095000D01*
X41000000Y-53000000D02*
X40550000Y-53450000D01*
X41000000Y-53000000D02*
X41000000Y-45154570D01*
X41455000Y-70095000D02*
X47525000Y-70095000D01*
X45555430Y-42100000D02*
X47655430Y-40000000D01*
X44054570Y-42100000D02*
X45555430Y-42100000D01*
X47655430Y-40000000D02*
X70000000Y-40000000D01*
X41050000Y-53050000D02*
X45000000Y-53050000D01*
X70000000Y-40000000D02*
X70000000Y-36000000D01*
%TO.N,GND*%
D34*
X61825000Y-53175000D02*
X63500000Y-51500000D01*
X61000000Y-60125000D02*
X61000000Y-61000000D01*
X76957500Y-36000000D02*
X75000000Y-36000000D01*
X50635000Y-71365000D02*
X50000000Y-72000000D01*
X53000000Y-60000000D02*
X51517961Y-58517961D01*
X62680000Y-64220000D02*
X62500000Y-64400000D01*
X61000000Y-53175000D02*
X61825000Y-53175000D01*
X57000000Y-60125000D02*
X57000000Y-61267080D01*
X43050000Y-49950000D02*
X43000000Y-50000000D01*
X43550000Y-54950000D02*
X43500000Y-55000000D01*
X57000000Y-48175000D02*
X57000000Y-48050000D01*
X62680000Y-62640000D02*
X62680000Y-64220000D01*
X45000000Y-54950000D02*
X43550000Y-54950000D01*
X74840000Y-66500000D02*
X72000000Y-66500000D01*
X52475000Y-71365000D02*
X50635000Y-71365000D01*
X57000000Y-61267080D02*
X56667080Y-61600000D01*
X44805000Y-40300000D02*
X45700000Y-40300000D01*
X51517961Y-58517961D02*
X51517961Y-57800802D01*
X45000000Y-49950000D02*
X43050000Y-49950000D01*
X45700000Y-40300000D02*
X46000000Y-40000000D01*
X72000000Y-66500000D02*
X71500000Y-67000000D01*
X53000000Y-49912500D02*
X53000000Y-49500000D01*
%TO.N,Net-(BLED1-A)*%
X49000000Y-53017788D02*
X48049999Y-52067787D01*
X60788630Y-57134404D02*
X60788630Y-58038630D01*
X60788630Y-58038630D02*
X61000000Y-58250000D01*
X49000000Y-53175000D02*
X49000000Y-53017788D01*
%TO.N,Net-(AOD4184A1-G)*%
X67825000Y-48175000D02*
X65000000Y-48175000D01*
X68000000Y-36000000D02*
X68000000Y-39000000D01*
X66000000Y-57000000D02*
X63000000Y-57000000D01*
X67825000Y-48175000D02*
X67000000Y-49000000D01*
X67000000Y-49000000D02*
X67000000Y-56000000D01*
X42525000Y-34000000D02*
X43975000Y-32550000D01*
X63000000Y-57000000D02*
X61000000Y-55000000D01*
X69179377Y-42599999D02*
X69179377Y-46820623D01*
X60588478Y-33000000D02*
X67000000Y-33000000D01*
X56204164Y-33050000D02*
X60538478Y-33050000D01*
X67000000Y-56000000D02*
X66000000Y-57000000D01*
X43975000Y-32550000D02*
X55704164Y-32550000D01*
X55704164Y-32550000D02*
X56204164Y-33050000D01*
X60538478Y-33050000D02*
X60588478Y-33000000D01*
X69179377Y-46820623D02*
X67825000Y-48175000D01*
%TO.N,Net-(YLED1-A)*%
X49000000Y-48000000D02*
X50000000Y-48000000D01*
X55600000Y-56850000D02*
X57000000Y-58250000D01*
X50000000Y-48000000D02*
X50500000Y-48500000D01*
X55600000Y-48500000D02*
X55600000Y-56850000D01*
%TO.N,LED_MODO*%
X57600000Y-62640000D02*
X58000000Y-62240000D01*
X49000000Y-51000000D02*
X49000000Y-49825000D01*
X50000000Y-52000000D02*
X49000000Y-51000000D01*
X58000000Y-62240000D02*
X58000000Y-52000000D01*
%TO.N,ADC_Bateria*%
X70300000Y-45700000D02*
X70000000Y-46000000D01*
X70000000Y-46000000D02*
X70000000Y-47000000D01*
X61000000Y-45862500D02*
X60862500Y-46000000D01*
X67004365Y-46000000D02*
X68579377Y-46000000D01*
X64120000Y-44404365D02*
X64764365Y-43760000D01*
X64120000Y-45719276D02*
X64120000Y-44404365D01*
X63839276Y-46000000D02*
X64120000Y-45719276D01*
X64764365Y-43760000D02*
X65675635Y-43760000D01*
X60862500Y-46000000D02*
X63839276Y-46000000D01*
X58012500Y-48050000D02*
X58012500Y-48987500D01*
X57000000Y-53087500D02*
X57000000Y-50000000D01*
X70300000Y-45700000D02*
X70300000Y-44860000D01*
X66320000Y-44404365D02*
X66320000Y-45315635D01*
X58012500Y-48987500D02*
X57000000Y-50000000D01*
X65675635Y-43760000D02*
X66320000Y-44404365D01*
X66320000Y-45315635D02*
X67004365Y-46000000D01*
%TO.N,Net-(RLED1-A)*%
X50500000Y-54020771D02*
X50500000Y-55934314D01*
X52690686Y-58125000D02*
X53000000Y-58125000D01*
X54400000Y-53600000D02*
X53887500Y-53087500D01*
X50500000Y-55934314D02*
X52690686Y-58125000D01*
X53887500Y-53087500D02*
X53000000Y-53087500D01*
X54400000Y-54000000D02*
X54400000Y-53600000D01*
X53600000Y-53200000D02*
X53300000Y-53200000D01*
%TO.N,LED_ARMADO*%
X54600000Y-62180000D02*
X54600000Y-56512500D01*
X54600000Y-56512500D02*
X53000000Y-54912500D01*
X55060000Y-62640000D02*
X54600000Y-62180000D01*
%TO.N,VBUS*%
D33*
X44257968Y-64190000D02*
X46570000Y-64190000D01*
X89306192Y-49650000D02*
X88000000Y-50956192D01*
X93160000Y-44860000D02*
X93160000Y-48278705D01*
X44000000Y-64447968D02*
X44000000Y-66000000D01*
X93160000Y-48278705D02*
X91719352Y-49719353D01*
X45000000Y-60000000D02*
X43350000Y-61650000D01*
X46570000Y-64190000D02*
X52475000Y-70095000D01*
X43350000Y-63282032D02*
X44257968Y-64190000D01*
X45125000Y-60125000D02*
X45000000Y-60000000D01*
X44257968Y-64190000D02*
X44000000Y-64447968D01*
X91719352Y-49719353D02*
X91649999Y-49650000D01*
X43350000Y-61650000D02*
X43350000Y-63282032D01*
X47000000Y-49550000D02*
X47000000Y-60125000D01*
X47000000Y-60125000D02*
X45125000Y-60125000D01*
X44000000Y-72905000D02*
X44000000Y-71345000D01*
X71000000Y-59000000D02*
X75000000Y-59000000D01*
X45000000Y-48050000D02*
X45500000Y-48050000D01*
X70250000Y-59750000D02*
X71000000Y-59000000D01*
X45000000Y-73905000D02*
X44000000Y-72905000D01*
X49000000Y-60125000D02*
X47000000Y-60125000D01*
X49125000Y-60000000D02*
X49000000Y-60125000D01*
X51000000Y-60000000D02*
X49125000Y-60000000D01*
X91649999Y-49650000D02*
X89306192Y-49650000D01*
X47525000Y-73905000D02*
X45000000Y-73905000D01*
X45500000Y-48050000D02*
X47000000Y-49550000D01*
X88000000Y-50956192D02*
X88000000Y-59000000D01*
X88000000Y-59000000D02*
X75000000Y-59000000D01*
X63000000Y-59750000D02*
X70250000Y-59750000D01*
%TO.N,CHRG*%
D34*
X65500000Y-51500000D02*
X65000000Y-52000000D01*
X57500000Y-74000000D02*
X62100000Y-74000000D01*
X47525000Y-72635000D02*
X46320000Y-72635000D01*
X68000000Y-57200000D02*
X68000000Y-52000000D01*
X65000000Y-52000000D02*
X65000000Y-53175000D01*
X62100000Y-74000000D02*
X65500000Y-70600000D01*
X65500000Y-67000000D02*
X66500000Y-66000000D01*
X66400000Y-51500000D02*
X65500000Y-51500000D01*
X65500000Y-68000000D02*
X65500000Y-67000000D01*
X46320000Y-72635000D02*
X46100000Y-72855000D01*
X66500000Y-58700000D02*
X68000000Y-57200000D01*
%TO.N,Net-(CHRG1-K)*%
X45000000Y-58125000D02*
X45000000Y-57000000D01*
X62200000Y-55060207D02*
X62260207Y-55000000D01*
X62260207Y-55000000D02*
X65000000Y-55000000D01*
%TO.N,Net-(ModuloDeCarga1-TEMP)*%
X60550000Y-71000000D02*
X57000000Y-71000000D01*
X54095000Y-73905000D02*
X52475000Y-73905000D01*
X57000000Y-71000000D02*
X54095000Y-73905000D01*
%TO.N,Net-(ModuloDeCarga1-PROG)*%
X54000000Y-49087500D02*
X53000000Y-48087500D01*
X52475000Y-72635000D02*
X54365000Y-72635000D01*
X48000000Y-54302756D02*
X48315256Y-53987500D01*
X53000000Y-51000000D02*
X53409744Y-51000000D01*
X51233581Y-62000000D02*
X51285000Y-62051419D01*
X50600000Y-53072244D02*
X50600000Y-51375566D01*
X54365000Y-72635000D02*
X55000000Y-72000000D01*
X50045880Y-58950000D02*
X50045880Y-57543124D01*
X51085000Y-62000000D02*
X51233581Y-62000000D01*
X55000000Y-72000000D02*
X55000000Y-70000000D01*
X50600000Y-51375566D02*
X50500000Y-51275566D01*
X53409744Y-51000000D02*
X54000000Y-50409744D01*
X48000000Y-55497244D02*
X48000000Y-54302756D01*
X48315256Y-53987500D02*
X49684744Y-53987500D01*
X50045880Y-57543124D02*
X48000000Y-55497244D01*
X54000000Y-50409744D02*
X54000000Y-49087500D01*
X52000000Y-66000000D02*
X51085000Y-65085000D01*
X51085000Y-65085000D02*
X51085000Y-62000000D01*
X49684744Y-53987500D02*
X50600000Y-53072244D01*
%TO.N,STDBY*%
X62097244Y-60097244D02*
X62097244Y-57594488D01*
X55500000Y-74200000D02*
X57800000Y-71900000D01*
X63500000Y-68000000D02*
X63500000Y-66500000D01*
X59414613Y-49760387D02*
X61000000Y-48175000D01*
X64000000Y-62000000D02*
X62097244Y-60097244D01*
X60000000Y-55497244D02*
X60000000Y-54000000D01*
X59414613Y-52414613D02*
X59414613Y-49760387D01*
X62097244Y-57594488D02*
X60000000Y-55497244D01*
X47525000Y-71365000D02*
X45635000Y-71365000D01*
X57800000Y-71900000D02*
X62200000Y-71900000D01*
X62200000Y-71900000D02*
X63500000Y-70600000D01*
X45635000Y-71365000D02*
X45500000Y-71500000D01*
X63500000Y-66500000D02*
X64000000Y-66000000D01*
%TO.N,VSYS*%
D33*
X84957500Y-36000000D02*
X84000000Y-35042500D01*
X72000000Y-51000000D02*
X69101041Y-48101041D01*
X84000000Y-35000000D02*
X83000000Y-34000000D01*
X54000000Y-46925000D02*
X53650000Y-46575000D01*
X53000000Y-56175000D02*
X52128858Y-56175000D01*
X90620000Y-44860000D02*
X90620000Y-45991370D01*
X64316358Y-46725000D02*
X64041358Y-47000000D01*
X57000000Y-37000000D02*
X60000000Y-34000000D01*
X53650000Y-46575000D02*
X44328858Y-46575000D01*
X60000000Y-34000000D02*
X64000000Y-34000000D01*
X65755331Y-46725000D02*
X64316358Y-46725000D01*
X39000000Y-44455000D02*
X43455000Y-40000000D01*
X83000000Y-34000000D02*
X68000000Y-34000000D01*
X55000000Y-37000000D02*
X57000000Y-37000000D01*
X61871142Y-46912500D02*
X60087500Y-46912500D01*
X52128858Y-56175000D02*
X51550000Y-55596142D01*
X60087500Y-46912500D02*
X60000000Y-47000000D01*
X52128858Y-46825000D02*
X53900000Y-46825000D01*
X61958642Y-47000000D02*
X61871142Y-46912500D01*
X90620000Y-45991370D02*
X85611370Y-51000000D01*
X77000000Y-51000000D02*
X72000000Y-51000000D01*
X53900000Y-46825000D02*
X54000000Y-46925000D01*
X51550000Y-55596142D02*
X51550000Y-47403858D01*
X57000000Y-57000000D02*
X57000000Y-54912500D01*
X68000000Y-34000000D02*
X66000000Y-36000000D01*
X85611370Y-51000000D02*
X81000000Y-51000000D01*
X39000000Y-46000000D02*
X39000000Y-44455000D01*
X51550000Y-47403858D02*
X52128858Y-46825000D01*
X66000000Y-46969669D02*
X65755331Y-46725000D01*
X84000000Y-35042500D02*
X84000000Y-35000000D01*
X64000000Y-34000000D02*
X66000000Y-36000000D01*
X64041358Y-47000000D02*
X61958642Y-47000000D01*
%TO.N,Net-(IGNITOR1-Pin_1)*%
X80957500Y-36000000D02*
X79750000Y-36000000D01*
X79750000Y-36000000D02*
X79000000Y-35250000D01*
X52030151Y-34250000D02*
X52930151Y-33350000D01*
X54000000Y-31000000D02*
X58000000Y-31000000D01*
X63000000Y-32000000D02*
X70000000Y-32000000D01*
X50000000Y-34250000D02*
X52030151Y-34250000D01*
%TO.N,Net-(STDBY1-K)*%
D34*
X60014613Y-51500000D02*
X60014613Y-50985387D01*
X49000000Y-58250000D02*
X49000000Y-57500000D01*
X60014613Y-50985387D02*
X61000000Y-50000000D01*
X49000000Y-57500000D02*
X48500000Y-57000000D01*
%TO.N,NSS*%
X77380000Y-41000000D02*
X76230000Y-39850000D01*
X76230000Y-39850000D02*
X71281371Y-39850000D01*
X50200000Y-40800000D02*
X50000000Y-41000000D01*
X70331371Y-40800000D02*
X50200000Y-40800000D01*
X50000000Y-41000000D02*
X47440000Y-43560000D01*
X47440000Y-43560000D02*
X47440000Y-44860000D01*
X71281371Y-39850000D02*
X70331371Y-40800000D01*
%TO.N,MOSI*%
X55060000Y-41260000D02*
X55060000Y-44860000D01*
X73000000Y-41460000D02*
X73000000Y-40250000D01*
X55000000Y-41200000D02*
X55060000Y-41260000D01*
X78770000Y-42150000D02*
X73690000Y-42150000D01*
X73000000Y-40250000D02*
X71447057Y-40250000D01*
X73690000Y-42150000D02*
X73000000Y-41460000D01*
X79920000Y-41000000D02*
X78770000Y-42150000D01*
X71447057Y-40250000D02*
X70497056Y-41200000D01*
X70497056Y-41200000D02*
X55000000Y-41200000D01*
%TO.N,MISO*%
X54200000Y-41800000D02*
X54000000Y-41600000D01*
X50352521Y-41213165D02*
X50352521Y-41496009D01*
X54000000Y-41200000D02*
X50365686Y-41200000D01*
X55460000Y-41600000D02*
X55660000Y-41800000D01*
X73524314Y-42550000D02*
X72600000Y-41625685D01*
X80910000Y-42550000D02*
X73524314Y-42550000D01*
X72600000Y-41625685D02*
X72600000Y-40650000D01*
X54000000Y-41600000D02*
X54000000Y-41200000D01*
X50365686Y-41200000D02*
X50352521Y-41213165D01*
X49000000Y-41000000D02*
X47786800Y-41000000D01*
X72600000Y-40650000D02*
X71612743Y-40650000D01*
X82460000Y-41000000D02*
X80910000Y-42550000D01*
X47786800Y-41000000D02*
X45786800Y-43000000D01*
X44900000Y-43100000D02*
X44900000Y-44860000D01*
X50365686Y-41200000D02*
X50282843Y-41282843D01*
X45786800Y-43000000D02*
X45000000Y-43000000D01*
X70662741Y-41600000D02*
X55460000Y-41600000D01*
X71612743Y-40650000D02*
X70662741Y-41600000D01*
X45000000Y-43000000D02*
X44900000Y-43100000D01*
%TO.N,SCK*%
X81929670Y-42096016D02*
X81025686Y-43000000D01*
X72000000Y-42000000D02*
X56308529Y-42000000D01*
X56026807Y-42400000D02*
X56101114Y-42474307D01*
X85000000Y-41000000D02*
X83850000Y-42150000D01*
X81025686Y-43000000D02*
X73000000Y-43000000D01*
X55908529Y-42400000D02*
X56026807Y-42400000D01*
X56308529Y-42000000D02*
X55908529Y-42400000D01*
X73000000Y-43000000D02*
X72000000Y-42000000D01*
X53634313Y-42365687D02*
X52520000Y-43480000D01*
X52520000Y-43480000D02*
X52520000Y-44860000D01*
X81983654Y-42150000D02*
X81929670Y-42096016D01*
X83850000Y-42150000D02*
X81983654Y-42150000D01*
%TO.N,IGNITION_GATE*%
X46540000Y-61000000D02*
X44900000Y-62640000D01*
X54000000Y-61000000D02*
X46540000Y-61000000D01*
X59300000Y-53377756D02*
X59300000Y-61000000D01*
X65000000Y-50000000D02*
X62677756Y-50000000D01*
X62677756Y-50000000D02*
X59300000Y-53377756D01*
%TO.N,LED_LINK*%
X50917961Y-56917961D02*
X49000000Y-55000000D01*
X60000000Y-57000000D02*
X60000000Y-62500000D01*
X60000000Y-62500000D02*
X60140000Y-62640000D01*
X50917961Y-58753882D02*
X50917961Y-56917961D01*
%TO.N,Net-(AOD4184A1-D)*%
D33*
X42045000Y-38500000D02*
X50750000Y-38500000D01*
X50750000Y-38500000D02*
X55000000Y-34250000D01*
X40245000Y-40300000D02*
X42045000Y-38500000D01*
%TO.N,3V3*%
D35*
X34000000Y-55000000D02*
X34000000Y-55042500D01*
D34*
X79038753Y-65618753D02*
X79038753Y-60088753D01*
D35*
X37000000Y-66000000D02*
X37000000Y-58000000D01*
X57813604Y-69450000D02*
X83747057Y-69450000D01*
X42000000Y-68000000D02*
X48895074Y-68000000D01*
X86200000Y-66002943D02*
X85497057Y-65300000D01*
X38000000Y-68000000D02*
X38000000Y-67000000D01*
X83747057Y-69450000D02*
X86200000Y-66997057D01*
X86200000Y-66997057D02*
X86200000Y-66002943D01*
X48895074Y-68000000D02*
X48947537Y-68052463D01*
X56363604Y-68000000D02*
X57813604Y-69450000D01*
D34*
X82000000Y-47000000D02*
X83000000Y-46000000D01*
X79038753Y-60088753D02*
X79000000Y-60050000D01*
X79000000Y-57950000D02*
X79000000Y-50000000D01*
D35*
X38000000Y-67000000D02*
X37000000Y-66000000D01*
X52000000Y-68000000D02*
X56363604Y-68000000D01*
D34*
X79000000Y-50000000D02*
X82000000Y-47000000D01*
D35*
X81120000Y-65300000D02*
X79920000Y-66500000D01*
D34*
X83000000Y-46000000D02*
X83000000Y-44860000D01*
D35*
X37000000Y-58000000D02*
X34000000Y-55000000D01*
D34*
X79920000Y-66500000D02*
X79038753Y-65618753D01*
D35*
X85497057Y-65300000D02*
X81120000Y-65300000D01*
%TO.N,RST*%
D34*
X57000000Y-63884365D02*
X57144365Y-63740000D01*
X57144365Y-63740000D02*
X58055635Y-63740000D01*
X58055635Y-63740000D02*
X58700000Y-63095635D01*
X82460000Y-66500000D02*
X82460000Y-68140000D01*
X82000000Y-68600000D02*
X58165687Y-68600000D01*
X58165687Y-68600000D02*
X57000000Y-67434313D01*
X82460000Y-68140000D02*
X82000000Y-68600000D01*
X57000000Y-67434313D02*
X57000000Y-63884365D01*
X58700000Y-63095635D02*
X58700000Y-45960000D01*
X58700000Y-45960000D02*
X57600000Y-44860000D01*
%TO.N,DIO0*%
X55151471Y-65400000D02*
X55000000Y-65248529D01*
X56000000Y-67000000D02*
X56000000Y-65751471D01*
X58000000Y-69000000D02*
X56000000Y-67000000D01*
X56160000Y-63095635D02*
X56160000Y-61920732D01*
X55000000Y-60760732D02*
X55000000Y-48000000D01*
X60000000Y-44000000D02*
X60000000Y-44720000D01*
X60000000Y-44720000D02*
X60140000Y-44860000D01*
X55000000Y-48000000D02*
X56500000Y-46500000D01*
X55648529Y-65400000D02*
X55151471Y-65400000D01*
X58055635Y-43760000D02*
X58295635Y-44000000D01*
X56500000Y-44404365D02*
X57144365Y-43760000D01*
X57144365Y-43760000D02*
X58055635Y-43760000D01*
X55000000Y-65248529D02*
X55000000Y-64255635D01*
X55000000Y-64255635D02*
X56160000Y-63095635D01*
X82500000Y-69000000D02*
X58000000Y-69000000D01*
X56000000Y-65751471D02*
X55648529Y-65400000D01*
X85000000Y-66500000D02*
X82500000Y-69000000D01*
X58295635Y-44000000D02*
X60000000Y-44000000D01*
X56160000Y-61920732D02*
X55000000Y-60760732D01*
X56500000Y-46500000D02*
X56500000Y-44404365D01*
%TO.N,SDA*%
X75582708Y-64000000D02*
X76485000Y-63097708D01*
X58000000Y-67000000D02*
X60000000Y-65000000D01*
X51000000Y-67000000D02*
X55000000Y-67000000D01*
X78000000Y-61000000D02*
X78438753Y-61000000D01*
X60000000Y-65000000D02*
X71000000Y-65000000D01*
X47895074Y-67000000D02*
X47947537Y-67052463D01*
X41550000Y-67000000D02*
X47895074Y-67000000D01*
X80000000Y-62180000D02*
X80460000Y-62640000D01*
X71000000Y-65000000D02*
X72000000Y-64000000D01*
X76485000Y-63097708D02*
X76485000Y-62515000D01*
X76485000Y-62515000D02*
X78000000Y-61000000D01*
X39000000Y-54962500D02*
X34000000Y-49962500D01*
X80000000Y-61000000D02*
X80000000Y-62180000D01*
X39000000Y-66000000D02*
X39000000Y-54962500D01*
X39000000Y-66250000D02*
X39000000Y-66000000D01*
X72000000Y-64000000D02*
X75582708Y-64000000D01*
%TO.N,SCL*%
X49895074Y-69000000D02*
X49947537Y-69052463D01*
X71165686Y-65400000D02*
X72165686Y-64400000D01*
X42000000Y-69000000D02*
X49895074Y-69000000D01*
X53000000Y-69000000D02*
X56000000Y-69000000D01*
X76160000Y-64400000D02*
X77920000Y-62640000D01*
X39000000Y-67363604D02*
X39000000Y-69000000D01*
X60600000Y-65400000D02*
X71165686Y-65400000D01*
X34000000Y-52502500D02*
X38000000Y-56502500D01*
X58207108Y-67792892D02*
X60600000Y-65400000D01*
X72165686Y-64400000D02*
X76160000Y-64400000D01*
X38000000Y-66363604D02*
X39000000Y-67363604D01*
X38000000Y-56502500D02*
X38000000Y-66363604D01*
%TO.N,BTN_FIRE*%
X58951710Y-70100000D02*
X59051710Y-70000000D01*
X55000000Y-66000000D02*
X54000000Y-65000000D01*
X52520000Y-64520000D02*
X52520000Y-62640000D01*
X53000000Y-65000000D02*
X52520000Y-64520000D01*
X54000000Y-65000000D02*
X53000000Y-65000000D01*
X76550000Y-70000000D02*
X77550000Y-71000000D01*
X59051710Y-70000000D02*
X76550000Y-70000000D01*
X55400000Y-66000000D02*
X55000000Y-66000000D01*
%TD*%
%TA.AperFunction,Conductor*%
%TO.N,GND*%
G36*
X59177057Y-72520185D02*
G01*
X59222812Y-72572989D01*
X59232756Y-72642147D01*
X59227949Y-72662819D01*
X59202085Y-72742417D01*
X59200884Y-72749999D01*
X59200885Y-72750000D01*
X60269670Y-72750000D01*
X60249925Y-72769745D01*
X60200556Y-72855255D01*
X60175000Y-72950630D01*
X60175000Y-73049370D01*
X60200556Y-73144745D01*
X60249925Y-73230255D01*
X60269670Y-73250000D01*
X59200885Y-73250000D01*
X59201852Y-73256105D01*
X59192895Y-73325398D01*
X59147898Y-73378849D01*
X59081146Y-73399487D01*
X59079378Y-73399500D01*
X58079766Y-73399500D01*
X58012727Y-73379815D01*
X58010875Y-73378602D01*
X57879185Y-73290609D01*
X57879172Y-73290602D01*
X57733501Y-73230264D01*
X57733491Y-73230261D01*
X57615274Y-73206746D01*
X57553363Y-73174361D01*
X57518789Y-73113645D01*
X57522529Y-73043875D01*
X57551782Y-72997451D01*
X58012416Y-72536819D01*
X58073739Y-72503334D01*
X58100097Y-72500500D01*
X59110018Y-72500500D01*
X59177057Y-72520185D01*
G37*
%TD.AperFunction*%
%TA.AperFunction,Conductor*%
G36*
X62600378Y-72445938D02*
G01*
X62643570Y-72500858D01*
X62650214Y-72570411D01*
X62618199Y-72632514D01*
X62616135Y-72634628D01*
X62037083Y-73213681D01*
X61975760Y-73247166D01*
X61949402Y-73250000D01*
X60830330Y-73250000D01*
X60850075Y-73230255D01*
X60899444Y-73144745D01*
X60925000Y-73049370D01*
X60925000Y-72950630D01*
X60899444Y-72855255D01*
X60850075Y-72769745D01*
X60830330Y-72750000D01*
X61899115Y-72750000D01*
X61899115Y-72749999D01*
X61897914Y-72742417D01*
X61872051Y-72662819D01*
X61870056Y-72592977D01*
X61906136Y-72533144D01*
X61968837Y-72502316D01*
X61989982Y-72500500D01*
X62113331Y-72500500D01*
X62113347Y-72500501D01*
X62120943Y-72500501D01*
X62279054Y-72500501D01*
X62279057Y-72500501D01*
X62431785Y-72459577D01*
X62466455Y-72439559D01*
X62534351Y-72423087D01*
X62600378Y-72445938D01*
G37*
%TD.AperFunction*%
%TA.AperFunction,Conductor*%
G36*
X54180484Y-69620185D02*
G01*
X54226239Y-69672989D01*
X54236183Y-69742147D01*
X54231159Y-69760411D01*
X54232031Y-69760676D01*
X54230261Y-69766510D01*
X54199500Y-69921153D01*
X54199500Y-70078846D01*
X54230261Y-70233489D01*
X54230264Y-70233501D01*
X54290602Y-70379172D01*
X54290609Y-70379185D01*
X54378602Y-70510874D01*
X54399480Y-70577551D01*
X54399500Y-70579765D01*
X54399500Y-71699902D01*
X54379815Y-71766941D01*
X54363181Y-71787583D01*
X54152584Y-71998181D01*
X54091261Y-72031666D01*
X54064903Y-72034500D01*
X53965326Y-72034500D01*
X53898287Y-72014815D01*
X53852532Y-71962011D01*
X53842588Y-71892853D01*
X53858594Y-71847379D01*
X53901281Y-71775198D01*
X53947100Y-71617486D01*
X53947295Y-71615001D01*
X53947295Y-71615000D01*
X52599000Y-71615000D01*
X52531961Y-71595315D01*
X52486206Y-71542511D01*
X52475000Y-71491000D01*
X52475000Y-71239000D01*
X52494685Y-71171961D01*
X52547489Y-71126206D01*
X52599000Y-71115000D01*
X53947295Y-71115000D01*
X53947295Y-71114998D01*
X53947100Y-71112513D01*
X53901281Y-70954801D01*
X53817685Y-70813447D01*
X53812900Y-70807278D01*
X53815366Y-70805364D01*
X53788802Y-70756776D01*
X53793749Y-70687082D01*
X53814856Y-70654232D01*
X53813301Y-70653026D01*
X53818077Y-70646868D01*
X53818081Y-70646865D01*
X53901744Y-70505398D01*
X53947598Y-70347569D01*
X53950500Y-70310694D01*
X53950500Y-69879306D01*
X53947598Y-69842431D01*
X53947597Y-69842426D01*
X53923387Y-69759095D01*
X53923586Y-69689226D01*
X53961528Y-69630556D01*
X54025166Y-69601712D01*
X54042463Y-69600500D01*
X54113445Y-69600500D01*
X54180484Y-69620185D01*
G37*
%TD.AperFunction*%
%TA.AperFunction,Conductor*%
G36*
X73717770Y-65020185D02*
G01*
X73763525Y-65072989D01*
X73773469Y-65142147D01*
X73744444Y-65205703D01*
X73725042Y-65223766D01*
X73632812Y-65292809D01*
X73632809Y-65292812D01*
X73546649Y-65407906D01*
X73546645Y-65407913D01*
X73496403Y-65542620D01*
X73496401Y-65542627D01*
X73490000Y-65602155D01*
X73490000Y-66250000D01*
X74406988Y-66250000D01*
X74374075Y-66307007D01*
X74340000Y-66434174D01*
X74340000Y-66565826D01*
X74374075Y-66692993D01*
X74406988Y-66750000D01*
X73490000Y-66750000D01*
X73490000Y-67397844D01*
X73496401Y-67457372D01*
X73496403Y-67457379D01*
X73546645Y-67592086D01*
X73546649Y-67592093D01*
X73632809Y-67707187D01*
X73632812Y-67707190D01*
X73725042Y-67776234D01*
X73766913Y-67832168D01*
X73771897Y-67901859D01*
X73738411Y-67963182D01*
X73677088Y-67996666D01*
X73650731Y-67999500D01*
X66417848Y-67999500D01*
X66350809Y-67979815D01*
X66305054Y-67927011D01*
X66296231Y-67899692D01*
X66269738Y-67766508D01*
X66269737Y-67766507D01*
X66269737Y-67766503D01*
X66269735Y-67766498D01*
X66209397Y-67620827D01*
X66209390Y-67620814D01*
X66121398Y-67489125D01*
X66100520Y-67422447D01*
X66100500Y-67420234D01*
X66100500Y-67300097D01*
X66120185Y-67233058D01*
X66136819Y-67212416D01*
X66270178Y-67079057D01*
X66514665Y-66834570D01*
X66575984Y-66801088D01*
X66578151Y-66800637D01*
X66578840Y-66800500D01*
X66578842Y-66800500D01*
X66733497Y-66769737D01*
X66879179Y-66709394D01*
X67010289Y-66621789D01*
X67121789Y-66510289D01*
X67209394Y-66379179D01*
X67210679Y-66376078D01*
X67223067Y-66346166D01*
X67269737Y-66233497D01*
X67275650Y-66203769D01*
X67296231Y-66100308D01*
X67328616Y-66038397D01*
X67389332Y-66003823D01*
X67417848Y-66000500D01*
X71079017Y-66000500D01*
X71079033Y-66000501D01*
X71086629Y-66000501D01*
X71244740Y-66000501D01*
X71244743Y-66000501D01*
X71397471Y-65959577D01*
X71464014Y-65921158D01*
X71534402Y-65880520D01*
X71646206Y-65768716D01*
X71646206Y-65768714D01*
X71656410Y-65758511D01*
X71656413Y-65758506D01*
X72378103Y-65036819D01*
X72439426Y-65003334D01*
X72465784Y-65000500D01*
X73650731Y-65000500D01*
X73717770Y-65020185D01*
G37*
%TD.AperFunction*%
%TA.AperFunction,Conductor*%
G36*
X76914075Y-66692993D02*
G01*
X76979901Y-66807007D01*
X77072993Y-66900099D01*
X77187007Y-66965925D01*
X77250590Y-66982962D01*
X76618282Y-67615269D01*
X76618282Y-67615270D01*
X76672449Y-67654624D01*
X76861782Y-67751095D01*
X76881706Y-67757569D01*
X76939381Y-67797006D01*
X76966580Y-67861365D01*
X76954665Y-67930211D01*
X76907421Y-67981687D01*
X76843388Y-67999500D01*
X76029269Y-67999500D01*
X75962230Y-67979815D01*
X75916475Y-67927011D01*
X75906531Y-67857853D01*
X75935556Y-67794297D01*
X75954958Y-67776234D01*
X76047187Y-67707190D01*
X76047190Y-67707187D01*
X76133350Y-67592093D01*
X76133354Y-67592086D01*
X76183598Y-67457375D01*
X76192501Y-67374556D01*
X76195550Y-67374883D01*
X76194642Y-67357984D01*
X76227642Y-67298802D01*
X76897037Y-66629408D01*
X76914075Y-66692993D01*
G37*
%TD.AperFunction*%
%TA.AperFunction,Conductor*%
G36*
X78495270Y-67261717D02*
G01*
X78495270Y-67261716D01*
X78534622Y-67207555D01*
X78539232Y-67198507D01*
X78587205Y-67147709D01*
X78655025Y-67130912D01*
X78721161Y-67153447D01*
X78760204Y-67198504D01*
X78764949Y-67207817D01*
X78889890Y-67379786D01*
X79040213Y-67530109D01*
X79212179Y-67655048D01*
X79212181Y-67655049D01*
X79212184Y-67655051D01*
X79401588Y-67751557D01*
X79420092Y-67757569D01*
X79477768Y-67797006D01*
X79504966Y-67861365D01*
X79493051Y-67930211D01*
X79445807Y-67981687D01*
X79381774Y-67999500D01*
X77916612Y-67999500D01*
X77849573Y-67979815D01*
X77803818Y-67927011D01*
X77793874Y-67857853D01*
X77822899Y-67794297D01*
X77878294Y-67757569D01*
X77898217Y-67751095D01*
X78087554Y-67654622D01*
X78141716Y-67615270D01*
X78141717Y-67615270D01*
X77509408Y-66982962D01*
X77572993Y-66965925D01*
X77687007Y-66900099D01*
X77780099Y-66807007D01*
X77845925Y-66692993D01*
X77862962Y-66629408D01*
X78495270Y-67261717D01*
G37*
%TD.AperFunction*%
%TA.AperFunction,Conductor*%
G36*
X49514075Y-62832993D02*
G01*
X49579901Y-62947007D01*
X49672993Y-63040099D01*
X49787007Y-63105925D01*
X49850589Y-63122962D01*
X49251085Y-63722465D01*
X49320493Y-63768841D01*
X49407801Y-63815509D01*
X49553387Y-63875814D01*
X49648135Y-63904555D01*
X49802699Y-63935298D01*
X49901210Y-63945000D01*
X50058790Y-63945000D01*
X50157299Y-63935298D01*
X50157302Y-63935298D01*
X50311866Y-63904554D01*
X50311875Y-63904552D01*
X50324501Y-63900722D01*
X50394368Y-63900096D01*
X50453482Y-63937342D01*
X50483075Y-64000635D01*
X50484500Y-64019381D01*
X50484500Y-64998330D01*
X50484499Y-64998348D01*
X50484499Y-65164054D01*
X50484498Y-65164054D01*
X50488002Y-65177131D01*
X50521390Y-65301735D01*
X50525423Y-65316784D01*
X50525424Y-65316788D01*
X50552722Y-65364070D01*
X50552723Y-65364070D01*
X50604477Y-65453712D01*
X50604481Y-65453717D01*
X50723349Y-65572585D01*
X50723355Y-65572590D01*
X51138584Y-65987819D01*
X51172069Y-66049142D01*
X51167085Y-66118834D01*
X51125213Y-66174767D01*
X51059749Y-66199184D01*
X51050903Y-66199500D01*
X50921155Y-66199500D01*
X50766510Y-66230261D01*
X50766498Y-66230264D01*
X50620827Y-66290602D01*
X50620814Y-66290609D01*
X50489711Y-66378210D01*
X50419101Y-66448820D01*
X50357777Y-66482304D01*
X50288086Y-66477319D01*
X50243739Y-66448819D01*
X47856567Y-64061647D01*
X47823082Y-64000324D01*
X47828066Y-63930632D01*
X47869938Y-63874699D01*
X47905926Y-63856037D01*
X47939219Y-63845220D01*
X48121610Y-63752287D01*
X48227733Y-63675185D01*
X48287213Y-63631971D01*
X48287215Y-63631968D01*
X48287219Y-63631966D01*
X48431966Y-63487219D01*
X48431968Y-63487215D01*
X48431971Y-63487213D01*
X48552286Y-63321611D01*
X48552287Y-63321610D01*
X48596058Y-63235703D01*
X48644030Y-63184909D01*
X48711851Y-63168113D01*
X48777986Y-63190650D01*
X48815900Y-63233545D01*
X48851158Y-63299506D01*
X48897533Y-63368912D01*
X48897533Y-63368913D01*
X49497037Y-62769409D01*
X49514075Y-62832993D01*
G37*
%TD.AperFunction*%
%TA.AperFunction,Conductor*%
G36*
X43995880Y-54070185D02*
G01*
X44041635Y-54122989D01*
X44051579Y-54192147D01*
X44046547Y-54213504D01*
X44010494Y-54322302D01*
X44010493Y-54322309D01*
X44000000Y-54425013D01*
X44000000Y-54700000D01*
X44876000Y-54700000D01*
X44943039Y-54719685D01*
X44988794Y-54772489D01*
X45000000Y-54824000D01*
X45000000Y-55076000D01*
X44980315Y-55143039D01*
X44927511Y-55188794D01*
X44876000Y-55200000D01*
X44000001Y-55200000D01*
X44000001Y-55474986D01*
X44010494Y-55577697D01*
X44065641Y-55744119D01*
X44065643Y-55744124D01*
X44157684Y-55893345D01*
X44281654Y-56017315D01*
X44430875Y-56109356D01*
X44430880Y-56109358D01*
X44498294Y-56131697D01*
X44555739Y-56171470D01*
X44582562Y-56235985D01*
X44570247Y-56304761D01*
X44528182Y-56352504D01*
X44489713Y-56378208D01*
X44489707Y-56378213D01*
X44378213Y-56489707D01*
X44378210Y-56489711D01*
X44290609Y-56620814D01*
X44290602Y-56620827D01*
X44230264Y-56766498D01*
X44230261Y-56766510D01*
X44199500Y-56921153D01*
X44199500Y-57078841D01*
X44207550Y-57119315D01*
X44201321Y-57188906D01*
X44158457Y-57244083D01*
X44151031Y-57249042D01*
X44078995Y-57293475D01*
X43955974Y-57416496D01*
X43955971Y-57416500D01*
X43864642Y-57564566D01*
X43864637Y-57564577D01*
X43809913Y-57729723D01*
X43799500Y-57831644D01*
X43799500Y-58418355D01*
X43809913Y-58520276D01*
X43864637Y-58685422D01*
X43864642Y-58685433D01*
X43955971Y-58833499D01*
X43955974Y-58833503D01*
X44078996Y-58956525D01*
X44079000Y-58956528D01*
X44079703Y-58956962D01*
X44080083Y-58957385D01*
X44084664Y-58961007D01*
X44084045Y-58961789D01*
X44126428Y-59008910D01*
X44137649Y-59077872D01*
X44109806Y-59141954D01*
X44084544Y-59163842D01*
X44084664Y-59163993D01*
X44081315Y-59166640D01*
X44079703Y-59168038D01*
X44079000Y-59168471D01*
X44078996Y-59168474D01*
X43955974Y-59291496D01*
X43955971Y-59291500D01*
X43864642Y-59439566D01*
X43864637Y-59439577D01*
X43809913Y-59604723D01*
X43799500Y-59706644D01*
X43799500Y-59734217D01*
X43779815Y-59801256D01*
X43763181Y-59821898D01*
X42712220Y-60872859D01*
X42712218Y-60872861D01*
X42667855Y-60917224D01*
X42572859Y-61012219D01*
X42463371Y-61176079D01*
X42463364Y-61176092D01*
X42419629Y-61281681D01*
X42419629Y-61281682D01*
X42387949Y-61358162D01*
X42387199Y-61361933D01*
X42374946Y-61423535D01*
X42349500Y-61551456D01*
X42349500Y-63380576D01*
X42387947Y-63573860D01*
X42387949Y-63573867D01*
X42389755Y-63578228D01*
X42463366Y-63755943D01*
X42463371Y-63755952D01*
X42572859Y-63919812D01*
X42572860Y-63919813D01*
X42572861Y-63919814D01*
X42712218Y-64059171D01*
X42712219Y-64059171D01*
X42719286Y-64066238D01*
X42719285Y-64066238D01*
X42719289Y-64066241D01*
X42963181Y-64310133D01*
X42996666Y-64371456D01*
X42999500Y-64397814D01*
X42999500Y-66098545D01*
X43029887Y-66251309D01*
X43023660Y-66320900D01*
X42980797Y-66376078D01*
X42914907Y-66399322D01*
X42908270Y-66399500D01*
X42129766Y-66399500D01*
X42062727Y-66379815D01*
X42060875Y-66378602D01*
X41929185Y-66290609D01*
X41929172Y-66290602D01*
X41783501Y-66230264D01*
X41783491Y-66230261D01*
X41650308Y-66203769D01*
X41588397Y-66171384D01*
X41553823Y-66110668D01*
X41550500Y-66082152D01*
X41550500Y-54174500D01*
X41570185Y-54107461D01*
X41622989Y-54061706D01*
X41674500Y-54050500D01*
X43928841Y-54050500D01*
X43995880Y-54070185D01*
G37*
%TD.AperFunction*%
%TA.AperFunction,Conductor*%
G36*
X78405608Y-63925861D02*
G01*
X78436437Y-63988561D01*
X78438253Y-64009707D01*
X78438253Y-65356810D01*
X78418568Y-65423849D01*
X78365764Y-65469604D01*
X78296606Y-65479548D01*
X78241368Y-65457128D01*
X78087557Y-65345379D01*
X77898217Y-65248904D01*
X77696129Y-65183242D01*
X77486246Y-65150000D01*
X77273754Y-65150000D01*
X77063872Y-65183242D01*
X77063869Y-65183242D01*
X76861782Y-65248904D01*
X76672439Y-65345380D01*
X76618282Y-65384727D01*
X76618282Y-65384728D01*
X77250591Y-66017037D01*
X77187007Y-66034075D01*
X77072993Y-66099901D01*
X76979901Y-66192993D01*
X76914075Y-66307007D01*
X76897037Y-66370591D01*
X76227642Y-65701196D01*
X76194157Y-65639873D01*
X76195077Y-65625166D01*
X76192501Y-65625444D01*
X76183596Y-65542619D01*
X76133354Y-65407913D01*
X76133350Y-65407906D01*
X76047190Y-65292812D01*
X76047187Y-65292809D01*
X75954958Y-65223766D01*
X75913087Y-65167832D01*
X75908103Y-65098141D01*
X75941589Y-65036818D01*
X76002912Y-65003334D01*
X76029269Y-65000500D01*
X76073331Y-65000500D01*
X76073347Y-65000501D01*
X76080943Y-65000501D01*
X76239054Y-65000501D01*
X76239057Y-65000501D01*
X76391785Y-64959577D01*
X76457074Y-64921882D01*
X76528716Y-64880520D01*
X76640520Y-64768716D01*
X76640520Y-64768714D01*
X76650724Y-64758511D01*
X76650728Y-64758506D01*
X77475158Y-63934075D01*
X77536479Y-63900592D01*
X77601151Y-63903825D01*
X77615466Y-63908477D01*
X77817648Y-63940500D01*
X77817649Y-63940500D01*
X78022351Y-63940500D01*
X78022352Y-63940500D01*
X78224534Y-63908477D01*
X78275934Y-63891775D01*
X78345775Y-63889781D01*
X78405608Y-63925861D01*
G37*
%TD.AperFunction*%
%TA.AperFunction,Conductor*%
G36*
X63762465Y-63368912D02*
G01*
X63808838Y-63299511D01*
X63808849Y-63299493D01*
X63844099Y-63233546D01*
X63893061Y-63183702D01*
X63961199Y-63168241D01*
X64026879Y-63192073D01*
X64063941Y-63235702D01*
X64094976Y-63296613D01*
X64107715Y-63321614D01*
X64228028Y-63487213D01*
X64372786Y-63631971D01*
X64497343Y-63722465D01*
X64538390Y-63752287D01*
X64654607Y-63811503D01*
X64720776Y-63845218D01*
X64720778Y-63845218D01*
X64720781Y-63845220D01*
X64795818Y-63869601D01*
X64915465Y-63908477D01*
X64987031Y-63919812D01*
X65117648Y-63940500D01*
X65117649Y-63940500D01*
X65322351Y-63940500D01*
X65322352Y-63940500D01*
X65524534Y-63908477D01*
X65719219Y-63845220D01*
X65901610Y-63752287D01*
X66007733Y-63675185D01*
X66067213Y-63631971D01*
X66067215Y-63631968D01*
X66067219Y-63631966D01*
X66211966Y-63487219D01*
X66211968Y-63487215D01*
X66211971Y-63487213D01*
X66332284Y-63321614D01*
X66332286Y-63321611D01*
X66332287Y-63321610D01*
X66379516Y-63228917D01*
X66427489Y-63178123D01*
X66495310Y-63161328D01*
X66561445Y-63183865D01*
X66600483Y-63228917D01*
X66636453Y-63299511D01*
X66647715Y-63321614D01*
X66768028Y-63487213D01*
X66912786Y-63631971D01*
X67037343Y-63722465D01*
X67078390Y-63752287D01*
X67194607Y-63811503D01*
X67260776Y-63845218D01*
X67260778Y-63845218D01*
X67260781Y-63845220D01*
X67335818Y-63869601D01*
X67455465Y-63908477D01*
X67527031Y-63919812D01*
X67657648Y-63940500D01*
X67657649Y-63940500D01*
X67862351Y-63940500D01*
X67862352Y-63940500D01*
X68064534Y-63908477D01*
X68259219Y-63845220D01*
X68441610Y-63752287D01*
X68547733Y-63675185D01*
X68607213Y-63631971D01*
X68607215Y-63631968D01*
X68607219Y-63631966D01*
X68751966Y-63487219D01*
X68751968Y-63487215D01*
X68751971Y-63487213D01*
X68872284Y-63321614D01*
X68872286Y-63321611D01*
X68872287Y-63321610D01*
X68919516Y-63228917D01*
X68967489Y-63178123D01*
X69035310Y-63161328D01*
X69101445Y-63183865D01*
X69140483Y-63228917D01*
X69176453Y-63299511D01*
X69187715Y-63321614D01*
X69308028Y-63487213D01*
X69452786Y-63631971D01*
X69577343Y-63722465D01*
X69618390Y-63752287D01*
X69734607Y-63811503D01*
X69800776Y-63845218D01*
X69800778Y-63845218D01*
X69800781Y-63845220D01*
X69875818Y-63869601D01*
X69995465Y-63908477D01*
X70067031Y-63919812D01*
X70197648Y-63940500D01*
X70197649Y-63940500D01*
X70402351Y-63940500D01*
X70402352Y-63940500D01*
X70604534Y-63908477D01*
X70799219Y-63845220D01*
X70981610Y-63752287D01*
X71087733Y-63675185D01*
X71147213Y-63631971D01*
X71147215Y-63631968D01*
X71147219Y-63631966D01*
X71291966Y-63487219D01*
X71291968Y-63487215D01*
X71291971Y-63487213D01*
X71412284Y-63321614D01*
X71412286Y-63321611D01*
X71412287Y-63321610D01*
X71459516Y-63228917D01*
X71507489Y-63178123D01*
X71575310Y-63161328D01*
X71641445Y-63183865D01*
X71680483Y-63228917D01*
X71716453Y-63299511D01*
X71729925Y-63325951D01*
X71727960Y-63326952D01*
X71743814Y-63385558D01*
X71722698Y-63452160D01*
X71681843Y-63490288D01*
X71631290Y-63519475D01*
X71631282Y-63519481D01*
X70787584Y-64363181D01*
X70726261Y-64396666D01*
X70699903Y-64399500D01*
X60079057Y-64399500D01*
X59920943Y-64399500D01*
X59768215Y-64440423D01*
X59768214Y-64440423D01*
X59768212Y-64440424D01*
X59768209Y-64440425D01*
X59718096Y-64469359D01*
X59718095Y-64469360D01*
X59684611Y-64488692D01*
X59631285Y-64519479D01*
X59631282Y-64519481D01*
X57985339Y-66165425D01*
X57924016Y-66198910D01*
X57921850Y-66199361D01*
X57766508Y-66230261D01*
X57760676Y-66232031D01*
X57759873Y-66229385D01*
X57702056Y-66235396D01*
X57639687Y-66203902D01*
X57604245Y-66143689D01*
X57600500Y-66113444D01*
X57600500Y-64464500D01*
X57620185Y-64397461D01*
X57672989Y-64351706D01*
X57724500Y-64340500D01*
X57968966Y-64340500D01*
X57968982Y-64340501D01*
X57976578Y-64340501D01*
X58134689Y-64340501D01*
X58134692Y-64340501D01*
X58287420Y-64299577D01*
X58367953Y-64253081D01*
X58424351Y-64220520D01*
X58536155Y-64108716D01*
X58536155Y-64108714D01*
X58546359Y-64098511D01*
X58546363Y-64098506D01*
X59065161Y-63579708D01*
X59126484Y-63546223D01*
X59196176Y-63551207D01*
X59240523Y-63579708D01*
X59292786Y-63631971D01*
X59417343Y-63722465D01*
X59458390Y-63752287D01*
X59574607Y-63811503D01*
X59640776Y-63845218D01*
X59640778Y-63845218D01*
X59640781Y-63845220D01*
X59715818Y-63869601D01*
X59835465Y-63908477D01*
X59907031Y-63919812D01*
X60037648Y-63940500D01*
X60037649Y-63940500D01*
X60242351Y-63940500D01*
X60242352Y-63940500D01*
X60444534Y-63908477D01*
X60639219Y-63845220D01*
X60821610Y-63752287D01*
X60927733Y-63675185D01*
X60987213Y-63631971D01*
X60987215Y-63631968D01*
X60987219Y-63631966D01*
X61131966Y-63487219D01*
X61131968Y-63487215D01*
X61131971Y-63487213D01*
X61252286Y-63321611D01*
X61252287Y-63321610D01*
X61296058Y-63235703D01*
X61344030Y-63184909D01*
X61411851Y-63168113D01*
X61477986Y-63190650D01*
X61515900Y-63233545D01*
X61551158Y-63299506D01*
X61597533Y-63368912D01*
X61597534Y-63368913D01*
X62197037Y-62769409D01*
X62214075Y-62832993D01*
X62279901Y-62947007D01*
X62372993Y-63040099D01*
X62487007Y-63105925D01*
X62550590Y-63122962D01*
X61951085Y-63722465D01*
X62020493Y-63768841D01*
X62107801Y-63815509D01*
X62253387Y-63875814D01*
X62348135Y-63904555D01*
X62502699Y-63935298D01*
X62601210Y-63945000D01*
X62758790Y-63945000D01*
X62857299Y-63935298D01*
X62857302Y-63935298D01*
X63011864Y-63904555D01*
X63106612Y-63875814D01*
X63252198Y-63815509D01*
X63339501Y-63768844D01*
X63339511Y-63768838D01*
X63408912Y-63722465D01*
X62809409Y-63122962D01*
X62872993Y-63105925D01*
X62987007Y-63040099D01*
X63080099Y-62947007D01*
X63145925Y-62832993D01*
X63162962Y-62769409D01*
X63762465Y-63368912D01*
G37*
%TD.AperFunction*%
%TA.AperFunction,Conductor*%
G36*
X61193039Y-60144685D02*
G01*
X61238794Y-60197489D01*
X61250000Y-60249000D01*
X61250000Y-60856447D01*
X61506029Y-61112476D01*
X61506030Y-61112476D01*
X61607674Y-61102092D01*
X61772709Y-61047405D01*
X61772714Y-61047403D01*
X61920691Y-60956129D01*
X61926112Y-60950709D01*
X61987435Y-60917224D01*
X62057127Y-60922208D01*
X62101474Y-60950709D01*
X62274084Y-61123319D01*
X62307569Y-61184642D01*
X62302585Y-61254334D01*
X62260713Y-61310267D01*
X62195249Y-61334684D01*
X62186403Y-61335000D01*
X62040214Y-61335000D01*
X61986237Y-61337893D01*
X61986235Y-61337893D01*
X61846969Y-61373438D01*
X61846956Y-61373442D01*
X61790415Y-61396862D01*
X62550590Y-62157037D01*
X62487007Y-62174075D01*
X62372993Y-62239901D01*
X62279901Y-62332993D01*
X62214075Y-62447007D01*
X62197037Y-62510590D01*
X61436862Y-61750415D01*
X61413449Y-61806940D01*
X61403329Y-61835626D01*
X61362461Y-61892297D01*
X61297442Y-61917877D01*
X61228915Y-61904244D01*
X61186075Y-61867255D01*
X61131971Y-61792786D01*
X60987213Y-61648028D01*
X60821613Y-61527715D01*
X60821612Y-61527714D01*
X60821610Y-61527713D01*
X60700867Y-61466191D01*
X60668205Y-61449549D01*
X60617409Y-61401574D01*
X60600500Y-61339064D01*
X60600500Y-61236500D01*
X60620185Y-61169461D01*
X60672989Y-61123706D01*
X60724500Y-61112500D01*
X60750000Y-61112500D01*
X60750000Y-60249000D01*
X60769685Y-60181961D01*
X60822489Y-60136206D01*
X60874000Y-60125000D01*
X61126000Y-60125000D01*
X61193039Y-60144685D01*
G37*
%TD.AperFunction*%
%TA.AperFunction,Conductor*%
G36*
X78142539Y-60020185D02*
G01*
X78188294Y-60072989D01*
X78199500Y-60124500D01*
X78199500Y-60128843D01*
X78200097Y-60134905D01*
X78197816Y-60135129D01*
X78192483Y-60194557D01*
X78149606Y-60249723D01*
X78124559Y-60263688D01*
X78059573Y-60290606D01*
X78059568Y-60290609D01*
X77928465Y-60378210D01*
X77928457Y-60378217D01*
X77925625Y-60381049D01*
X77870045Y-60413136D01*
X77768222Y-60440420D01*
X77768209Y-60440426D01*
X77631290Y-60519475D01*
X77631282Y-60519481D01*
X76004481Y-62146282D01*
X76004477Y-62146287D01*
X75988435Y-62174075D01*
X75979389Y-62189744D01*
X75925423Y-62283215D01*
X75884499Y-62435943D01*
X75884499Y-62435945D01*
X75884499Y-62437692D01*
X75884082Y-62439111D01*
X75883438Y-62444003D01*
X75882675Y-62443902D01*
X75864814Y-62504731D01*
X75862246Y-62507917D01*
X75845925Y-62447007D01*
X75780099Y-62332993D01*
X75687007Y-62239901D01*
X75572993Y-62174075D01*
X75509410Y-62157037D01*
X76269583Y-61396863D01*
X76269583Y-61396862D01*
X76213052Y-61373447D01*
X76213035Y-61373440D01*
X76162053Y-61355455D01*
X76019780Y-61335000D01*
X74740214Y-61335000D01*
X74686237Y-61337893D01*
X74686235Y-61337893D01*
X74546969Y-61373438D01*
X74546956Y-61373442D01*
X74490415Y-61396862D01*
X75250590Y-62157037D01*
X75187007Y-62174075D01*
X75072993Y-62239901D01*
X74979901Y-62332993D01*
X74914075Y-62447007D01*
X74897037Y-62510590D01*
X74136862Y-61750415D01*
X74113449Y-61806940D01*
X74103329Y-61835626D01*
X74062461Y-61892297D01*
X73997442Y-61917877D01*
X73928915Y-61904244D01*
X73886075Y-61867255D01*
X73831971Y-61792786D01*
X73687213Y-61648028D01*
X73535763Y-61537995D01*
X73521613Y-61527715D01*
X73521612Y-61527714D01*
X73521610Y-61527713D01*
X73464653Y-61498691D01*
X73339223Y-61434781D01*
X73144534Y-61371522D01*
X72969995Y-61343878D01*
X72942352Y-61339500D01*
X72737648Y-61339500D01*
X72713329Y-61343351D01*
X72535465Y-61371522D01*
X72340776Y-61434781D01*
X72158386Y-61527715D01*
X71992786Y-61648028D01*
X71848028Y-61792786D01*
X71727715Y-61958386D01*
X71680485Y-62051080D01*
X71632510Y-62101876D01*
X71564689Y-62118671D01*
X71498554Y-62096134D01*
X71459515Y-62051080D01*
X71451056Y-62034478D01*
X71412287Y-61958390D01*
X71387073Y-61923686D01*
X71291971Y-61792786D01*
X71147213Y-61648028D01*
X70981613Y-61527715D01*
X70981612Y-61527714D01*
X70981610Y-61527713D01*
X70924653Y-61498691D01*
X70799223Y-61434781D01*
X70604534Y-61371522D01*
X70429995Y-61343878D01*
X70402352Y-61339500D01*
X70197648Y-61339500D01*
X70173329Y-61343351D01*
X69995465Y-61371522D01*
X69800776Y-61434781D01*
X69618386Y-61527715D01*
X69452786Y-61648028D01*
X69308028Y-61792786D01*
X69187715Y-61958386D01*
X69140485Y-62051080D01*
X69092510Y-62101876D01*
X69024689Y-62118671D01*
X68958554Y-62096134D01*
X68919515Y-62051080D01*
X68911056Y-62034478D01*
X68872287Y-61958390D01*
X68847073Y-61923686D01*
X68751971Y-61792786D01*
X68607213Y-61648028D01*
X68441613Y-61527715D01*
X68441612Y-61527714D01*
X68441610Y-61527713D01*
X68384653Y-61498691D01*
X68259223Y-61434781D01*
X68064534Y-61371522D01*
X67889995Y-61343878D01*
X67862352Y-61339500D01*
X67657648Y-61339500D01*
X67633329Y-61343351D01*
X67455465Y-61371522D01*
X67260776Y-61434781D01*
X67078386Y-61527715D01*
X66912786Y-61648028D01*
X66768028Y-61792786D01*
X66647715Y-61958386D01*
X66600485Y-62051080D01*
X66552510Y-62101876D01*
X66484689Y-62118671D01*
X66418554Y-62096134D01*
X66379515Y-62051080D01*
X66371056Y-62034478D01*
X66332287Y-61958390D01*
X66307073Y-61923686D01*
X66211971Y-61792786D01*
X66067213Y-61648028D01*
X65901613Y-61527715D01*
X65901612Y-61527714D01*
X65901610Y-61527713D01*
X65844653Y-61498691D01*
X65719223Y-61434781D01*
X65524534Y-61371522D01*
X65349995Y-61343878D01*
X65322352Y-61339500D01*
X65117648Y-61339500D01*
X65054575Y-61349490D01*
X64915464Y-61371523D01*
X64915461Y-61371523D01*
X64720783Y-61434778D01*
X64699083Y-61445835D01*
X64630414Y-61458730D01*
X64565674Y-61432452D01*
X64555109Y-61423030D01*
X64510292Y-61378213D01*
X64510288Y-61378210D01*
X64379185Y-61290609D01*
X64379172Y-61290602D01*
X64233501Y-61230264D01*
X64233491Y-61230261D01*
X64078149Y-61199361D01*
X64016238Y-61166976D01*
X64014660Y-61165425D01*
X63811416Y-60962181D01*
X63777931Y-60900858D01*
X63782915Y-60831166D01*
X63824787Y-60775233D01*
X63890251Y-60750816D01*
X63899097Y-60750500D01*
X70348542Y-60750500D01*
X70367870Y-60746655D01*
X70445188Y-60731275D01*
X70541836Y-60712051D01*
X70606116Y-60685425D01*
X70723914Y-60636632D01*
X70887782Y-60527139D01*
X71027139Y-60387782D01*
X71027140Y-60387779D01*
X71034206Y-60380714D01*
X71034208Y-60380710D01*
X71378101Y-60036819D01*
X71439424Y-60003334D01*
X71465782Y-60000500D01*
X74901459Y-60000500D01*
X78075500Y-60000500D01*
X78142539Y-60020185D01*
G37*
%TD.AperFunction*%
%TA.AperFunction,Conductor*%
G36*
X57193039Y-60144685D02*
G01*
X57238794Y-60197489D01*
X57250000Y-60249000D01*
X57250000Y-61112500D01*
X57275500Y-61112500D01*
X57342539Y-61132185D01*
X57388294Y-61184989D01*
X57399500Y-61236500D01*
X57399500Y-61249139D01*
X57379815Y-61316178D01*
X57327011Y-61361933D01*
X57300123Y-61370040D01*
X57300206Y-61370385D01*
X57295468Y-61371522D01*
X57100778Y-61434781D01*
X56918390Y-61527712D01*
X56824162Y-61596173D01*
X56758355Y-61619652D01*
X56690301Y-61603826D01*
X56643888Y-61557850D01*
X56640520Y-61552016D01*
X56412685Y-61324181D01*
X56379200Y-61262858D01*
X56384184Y-61193166D01*
X56426056Y-61137233D01*
X56491520Y-61112816D01*
X56500366Y-61112500D01*
X56750000Y-61112500D01*
X56750000Y-60249000D01*
X56769685Y-60181961D01*
X56822489Y-60136206D01*
X56874000Y-60125000D01*
X57126000Y-60125000D01*
X57193039Y-60144685D01*
G37*
%TD.AperFunction*%
%TA.AperFunction,Conductor*%
G36*
X51877587Y-58758801D02*
G01*
X51934259Y-58799667D01*
X51941872Y-58810641D01*
X51955971Y-58833499D01*
X51955974Y-58833503D01*
X52078999Y-58956528D01*
X52080183Y-58957258D01*
X52080823Y-58957970D01*
X52084664Y-58961007D01*
X52084145Y-58961663D01*
X52126906Y-59009208D01*
X52138125Y-59078171D01*
X52110279Y-59142252D01*
X52084877Y-59164262D01*
X52084977Y-59164388D01*
X52082177Y-59166601D01*
X52080184Y-59168329D01*
X52079315Y-59168864D01*
X52079309Y-59168869D01*
X51956369Y-59291809D01*
X51956366Y-59291813D01*
X51943461Y-59312736D01*
X51891513Y-59359461D01*
X51822550Y-59370682D01*
X51758468Y-59342839D01*
X51750242Y-59335320D01*
X51662694Y-59247772D01*
X51629209Y-59186449D01*
X51634193Y-59116757D01*
X51635814Y-59112638D01*
X51687698Y-58987379D01*
X51714717Y-58851547D01*
X51747102Y-58789636D01*
X51807817Y-58755062D01*
X51877587Y-58758801D01*
G37*
%TD.AperFunction*%
%TA.AperFunction,Conductor*%
G36*
X87614075Y-45052993D02*
G01*
X87679901Y-45167007D01*
X87772993Y-45260099D01*
X87887007Y-45325925D01*
X87950590Y-45342962D01*
X87190415Y-46103135D01*
X87190415Y-46103136D01*
X87246946Y-46126552D01*
X87297946Y-46144544D01*
X87440219Y-46164999D01*
X87440221Y-46165000D01*
X88719783Y-46165000D01*
X88725957Y-46164669D01*
X88793954Y-46180736D01*
X88842470Y-46231015D01*
X88856102Y-46299542D01*
X88830521Y-46364560D01*
X88820276Y-46376172D01*
X85233269Y-49963181D01*
X85171946Y-49996666D01*
X85145588Y-49999500D01*
X80901457Y-49999500D01*
X80708170Y-50037947D01*
X80708160Y-50037950D01*
X80526092Y-50113364D01*
X80526079Y-50113371D01*
X80362218Y-50222860D01*
X80362214Y-50222863D01*
X80222863Y-50362214D01*
X80222860Y-50362218D01*
X80113371Y-50526079D01*
X80113364Y-50526092D01*
X80037950Y-50708160D01*
X80037947Y-50708170D01*
X79999500Y-50901456D01*
X79999500Y-50901459D01*
X79999500Y-51098541D01*
X79999500Y-51098543D01*
X79999499Y-51098543D01*
X80037947Y-51291829D01*
X80037950Y-51291839D01*
X80113364Y-51473907D01*
X80113371Y-51473920D01*
X80222860Y-51637781D01*
X80222863Y-51637785D01*
X80362214Y-51777136D01*
X80362218Y-51777139D01*
X80526079Y-51886628D01*
X80526092Y-51886635D01*
X80677106Y-51949186D01*
X80708165Y-51962051D01*
X80708169Y-51962051D01*
X80708170Y-51962052D01*
X80901456Y-52000500D01*
X80901459Y-52000500D01*
X85709913Y-52000500D01*
X85801468Y-51982288D01*
X85832748Y-51976066D01*
X85903206Y-51962051D01*
X85966265Y-51935931D01*
X85966266Y-51935931D01*
X86085277Y-51886635D01*
X86085277Y-51886634D01*
X86085284Y-51886632D01*
X86249152Y-51777139D01*
X86388509Y-51637782D01*
X86388509Y-51637780D01*
X86398717Y-51627573D01*
X86398718Y-51627570D01*
X86787820Y-51238469D01*
X86849142Y-51204985D01*
X86918834Y-51209969D01*
X86974767Y-51251841D01*
X86999184Y-51317305D01*
X86999500Y-51326151D01*
X86999500Y-57875500D01*
X86979815Y-57942539D01*
X86927011Y-57988294D01*
X86875500Y-57999500D01*
X79924500Y-57999500D01*
X79857461Y-57979815D01*
X79811706Y-57927011D01*
X79800500Y-57875500D01*
X79800500Y-57871155D01*
X79800499Y-57871153D01*
X79791418Y-57825500D01*
X79769737Y-57716503D01*
X79762792Y-57699735D01*
X79709397Y-57570827D01*
X79709390Y-57570814D01*
X79621398Y-57439125D01*
X79600520Y-57372447D01*
X79600500Y-57370234D01*
X79600500Y-50300097D01*
X79620185Y-50233058D01*
X79636819Y-50212416D01*
X81039234Y-48810001D01*
X82480520Y-47368716D01*
X82480520Y-47368714D01*
X82490724Y-47358511D01*
X82490727Y-47358506D01*
X83480520Y-46368716D01*
X83559577Y-46231784D01*
X83600501Y-46079057D01*
X83600501Y-46079050D01*
X83601219Y-46073596D01*
X83629482Y-46009698D01*
X83667864Y-45979290D01*
X83681610Y-45972287D01*
X83729884Y-45937214D01*
X83847213Y-45851971D01*
X83847215Y-45851968D01*
X83847219Y-45851966D01*
X83991966Y-45707219D01*
X83991968Y-45707215D01*
X83991971Y-45707213D01*
X84112284Y-45541614D01*
X84112283Y-45541614D01*
X84112287Y-45541610D01*
X84159516Y-45448917D01*
X84207489Y-45398123D01*
X84275310Y-45381328D01*
X84341445Y-45403865D01*
X84380485Y-45448919D01*
X84427715Y-45541614D01*
X84548028Y-45707213D01*
X84692786Y-45851971D01*
X84810121Y-45937218D01*
X84858390Y-45972287D01*
X84937617Y-46012655D01*
X85040776Y-46065218D01*
X85040778Y-46065218D01*
X85040781Y-46065220D01*
X85127547Y-46093412D01*
X85235465Y-46128477D01*
X85253188Y-46131284D01*
X85437648Y-46160500D01*
X85437649Y-46160500D01*
X85642351Y-46160500D01*
X85642352Y-46160500D01*
X85844534Y-46128477D01*
X86039219Y-46065220D01*
X86221610Y-45972287D01*
X86330974Y-45892830D01*
X86387213Y-45851971D01*
X86387215Y-45851968D01*
X86387219Y-45851966D01*
X86531966Y-45707219D01*
X86587766Y-45630415D01*
X86643096Y-45587750D01*
X86712710Y-45581771D01*
X86774505Y-45614376D01*
X86808233Y-45672635D01*
X86813438Y-45693030D01*
X86813440Y-45693037D01*
X86836863Y-45749583D01*
X87597037Y-44989409D01*
X87614075Y-45052993D01*
G37*
%TD.AperFunction*%
%TA.AperFunction,Conductor*%
G36*
X63974238Y-50620185D02*
G01*
X64019993Y-50672989D01*
X64024903Y-50685492D01*
X64045279Y-50746982D01*
X64052685Y-50769331D01*
X64052687Y-50769336D01*
X64071659Y-50800094D01*
X64144788Y-50918656D01*
X64268844Y-51042712D01*
X64418166Y-51134814D01*
X64584703Y-51189999D01*
X64631678Y-51194798D01*
X64666309Y-51198336D01*
X64731000Y-51224732D01*
X64771152Y-51281913D01*
X64774015Y-51351724D01*
X64741388Y-51409375D01*
X64631285Y-51519478D01*
X64631284Y-51519479D01*
X64624218Y-51526546D01*
X64624217Y-51526546D01*
X64624214Y-51526548D01*
X64624215Y-51526549D01*
X64519478Y-51631286D01*
X64501512Y-51662406D01*
X64476794Y-51705219D01*
X64440423Y-51768215D01*
X64399499Y-51920943D01*
X64399499Y-51920945D01*
X64399499Y-52082199D01*
X64379814Y-52149238D01*
X64327010Y-52194993D01*
X64314507Y-52199903D01*
X64285868Y-52209394D01*
X64230666Y-52227686D01*
X64230663Y-52227687D01*
X64081342Y-52319789D01*
X63957289Y-52443842D01*
X63865187Y-52593163D01*
X63865185Y-52593168D01*
X63855665Y-52621898D01*
X63810001Y-52759703D01*
X63810001Y-52759704D01*
X63810000Y-52759704D01*
X63799500Y-52862483D01*
X63799500Y-53487501D01*
X63799501Y-53487519D01*
X63810000Y-53590296D01*
X63810001Y-53590299D01*
X63842205Y-53687483D01*
X63865186Y-53756834D01*
X63957094Y-53905842D01*
X63957289Y-53906157D01*
X64050951Y-53999819D01*
X64084436Y-54061142D01*
X64079452Y-54130834D01*
X64050951Y-54175181D01*
X63957289Y-54268842D01*
X63913031Y-54340597D01*
X63861083Y-54387321D01*
X63807492Y-54399500D01*
X62689659Y-54399500D01*
X62622620Y-54379815D01*
X62620767Y-54378601D01*
X62579187Y-54350817D01*
X62579172Y-54350809D01*
X62433501Y-54290471D01*
X62433489Y-54290468D01*
X62278845Y-54259707D01*
X62278842Y-54259707D01*
X62121158Y-54259707D01*
X62113109Y-54261307D01*
X62043518Y-54255079D01*
X62001239Y-54227371D01*
X61948695Y-54174827D01*
X61915210Y-54113504D01*
X61920194Y-54043812D01*
X61948695Y-53999464D01*
X62042317Y-53905842D01*
X62134356Y-53756624D01*
X62134358Y-53756619D01*
X62189505Y-53590197D01*
X62189506Y-53590190D01*
X62199999Y-53487486D01*
X62200000Y-53487473D01*
X62200000Y-53425000D01*
X61124000Y-53425000D01*
X61056961Y-53405315D01*
X61011206Y-53352511D01*
X61000000Y-53301000D01*
X61000000Y-53049000D01*
X61019685Y-52981961D01*
X61072489Y-52936206D01*
X61124000Y-52925000D01*
X62199999Y-52925000D01*
X62199999Y-52862528D01*
X62199998Y-52862513D01*
X62189505Y-52759802D01*
X62134358Y-52593380D01*
X62134356Y-52593375D01*
X62042315Y-52444154D01*
X61918345Y-52320184D01*
X61769124Y-52228143D01*
X61769119Y-52228141D01*
X61606724Y-52174329D01*
X61549279Y-52134556D01*
X61522456Y-52070041D01*
X61534771Y-52001265D01*
X61558043Y-51968947D01*
X62890172Y-50636819D01*
X62951495Y-50603334D01*
X62977853Y-50600500D01*
X63907199Y-50600500D01*
X63974238Y-50620185D01*
G37*
%TD.AperFunction*%
%TA.AperFunction,Conductor*%
G36*
X44218834Y-43453170D02*
G01*
X44274767Y-43495042D01*
X44299184Y-43560506D01*
X44299500Y-43569352D01*
X44299500Y-43630397D01*
X44279815Y-43697436D01*
X44231800Y-43740879D01*
X44218389Y-43747712D01*
X44052786Y-43868028D01*
X43908028Y-44012786D01*
X43787715Y-44178386D01*
X43694781Y-44360776D01*
X43631522Y-44555465D01*
X43599500Y-44757648D01*
X43599500Y-44962351D01*
X43631522Y-45164534D01*
X43694781Y-45359223D01*
X43783158Y-45532671D01*
X43787713Y-45541610D01*
X43796580Y-45553815D01*
X43805658Y-45566309D01*
X43829138Y-45632116D01*
X43813313Y-45700170D01*
X43774232Y-45742297D01*
X43691072Y-45797863D01*
X43551721Y-45937214D01*
X43551718Y-45937218D01*
X43442229Y-46101079D01*
X43442222Y-46101092D01*
X43366808Y-46283160D01*
X43366805Y-46283170D01*
X43328358Y-46476456D01*
X43328358Y-46476459D01*
X43328358Y-46673541D01*
X43328358Y-46673543D01*
X43328357Y-46673543D01*
X43366805Y-46866829D01*
X43366808Y-46866839D01*
X43442222Y-47048907D01*
X43442229Y-47048920D01*
X43551718Y-47212781D01*
X43551721Y-47212785D01*
X43691075Y-47352139D01*
X43767265Y-47403047D01*
X43854944Y-47461632D01*
X43922953Y-47489801D01*
X43977355Y-47533641D01*
X43999421Y-47599935D01*
X43999500Y-47604362D01*
X43999500Y-48575001D01*
X43999501Y-48575019D01*
X44010000Y-48677796D01*
X44010001Y-48677799D01*
X44065185Y-48844331D01*
X44065189Y-48844340D01*
X44121343Y-48935380D01*
X44139783Y-49002772D01*
X44121343Y-49065573D01*
X44065643Y-49155875D01*
X44065641Y-49155880D01*
X44010494Y-49322302D01*
X44010493Y-49322309D01*
X44000000Y-49425013D01*
X44000000Y-49700000D01*
X44876000Y-49700000D01*
X44943039Y-49719685D01*
X44988794Y-49772489D01*
X45000000Y-49824000D01*
X45000000Y-49950000D01*
X45126000Y-49950000D01*
X45193039Y-49969685D01*
X45238794Y-50022489D01*
X45250000Y-50074000D01*
X45250000Y-51174999D01*
X45299972Y-51174999D01*
X45299986Y-51174998D01*
X45402697Y-51164505D01*
X45569119Y-51109358D01*
X45569124Y-51109356D01*
X45718345Y-51017315D01*
X45787819Y-50947842D01*
X45849142Y-50914357D01*
X45918834Y-50919341D01*
X45974767Y-50961213D01*
X45999184Y-51026677D01*
X45999500Y-51035523D01*
X45999500Y-51963770D01*
X45979815Y-52030809D01*
X45927011Y-52076564D01*
X45857853Y-52086508D01*
X45794297Y-52057483D01*
X45787819Y-52051451D01*
X45718657Y-51982289D01*
X45718656Y-51982288D01*
X45569334Y-51890186D01*
X45402797Y-51835001D01*
X45402795Y-51835000D01*
X45300010Y-51824500D01*
X44699998Y-51824500D01*
X44699980Y-51824501D01*
X44597203Y-51835000D01*
X44597200Y-51835001D01*
X44430668Y-51890185D01*
X44430663Y-51890187D01*
X44281342Y-51982289D01*
X44250451Y-52013181D01*
X44189128Y-52046666D01*
X44162770Y-52049500D01*
X42124500Y-52049500D01*
X42057461Y-52029815D01*
X42011706Y-51977011D01*
X42000500Y-51925500D01*
X42000500Y-50474986D01*
X44000001Y-50474986D01*
X44010494Y-50577697D01*
X44065641Y-50744119D01*
X44065643Y-50744124D01*
X44157684Y-50893345D01*
X44281654Y-51017315D01*
X44430875Y-51109356D01*
X44430880Y-51109358D01*
X44597302Y-51164505D01*
X44597309Y-51164506D01*
X44700019Y-51174999D01*
X44749999Y-51174998D01*
X44750000Y-51174998D01*
X44750000Y-50200000D01*
X44000001Y-50200000D01*
X44000001Y-50474986D01*
X42000500Y-50474986D01*
X42000500Y-45620352D01*
X42020185Y-45553313D01*
X42036819Y-45532671D01*
X44087819Y-43481671D01*
X44149142Y-43448186D01*
X44218834Y-43453170D01*
G37*
%TD.AperFunction*%
%TA.AperFunction,Conductor*%
G36*
X57262820Y-46117870D02*
G01*
X57295458Y-46128475D01*
X57295461Y-46128475D01*
X57295466Y-46128477D01*
X57497648Y-46160500D01*
X57497649Y-46160500D01*
X57702351Y-46160500D01*
X57702352Y-46160500D01*
X57904534Y-46128477D01*
X57918842Y-46123827D01*
X57988682Y-46121831D01*
X58044842Y-46154077D01*
X58063181Y-46172416D01*
X58096666Y-46233739D01*
X58099500Y-46260097D01*
X58099500Y-47125500D01*
X58079815Y-47192539D01*
X58027011Y-47238294D01*
X57975500Y-47249500D01*
X57933657Y-47249500D01*
X57926922Y-47250839D01*
X57857331Y-47244605D01*
X57815061Y-47216900D01*
X57730845Y-47132684D01*
X57581624Y-47040643D01*
X57581619Y-47040641D01*
X57415197Y-46985494D01*
X57415190Y-46985493D01*
X57312486Y-46975000D01*
X57250000Y-46975000D01*
X57250000Y-47774367D01*
X57242888Y-47810181D01*
X57244530Y-47810680D01*
X57242760Y-47816511D01*
X57212000Y-47971153D01*
X57212000Y-48051000D01*
X57192315Y-48118039D01*
X57139511Y-48163794D01*
X57088000Y-48175000D01*
X56874000Y-48175000D01*
X56806961Y-48155315D01*
X56761206Y-48102511D01*
X56750000Y-48051000D01*
X56750000Y-47150596D01*
X56769685Y-47083557D01*
X56786313Y-47062920D01*
X56858509Y-46990724D01*
X56858514Y-46990721D01*
X56868714Y-46980520D01*
X56868716Y-46980520D01*
X56980520Y-46868716D01*
X57059577Y-46731784D01*
X57094754Y-46600501D01*
X57100500Y-46579058D01*
X57100500Y-46420943D01*
X57100500Y-46235800D01*
X57120185Y-46168761D01*
X57172989Y-46123006D01*
X57242147Y-46113062D01*
X57262820Y-46117870D01*
G37*
%TD.AperFunction*%
%TA.AperFunction,Conductor*%
G36*
X52884499Y-41820185D02*
G01*
X52930254Y-41872989D01*
X52940198Y-41942147D01*
X52926821Y-41982948D01*
X52924918Y-41986507D01*
X52864577Y-42132185D01*
X52864574Y-42132195D01*
X52833675Y-42287535D01*
X52801290Y-42349446D01*
X52799739Y-42351024D01*
X52151286Y-42999478D01*
X52039482Y-43111281D01*
X52039478Y-43111287D01*
X51993292Y-43191284D01*
X51960424Y-43248212D01*
X51960423Y-43248213D01*
X51952045Y-43279480D01*
X51919499Y-43400943D01*
X51919499Y-43400945D01*
X51919499Y-43569046D01*
X51919500Y-43569059D01*
X51919500Y-43630397D01*
X51899815Y-43697436D01*
X51851800Y-43740879D01*
X51838389Y-43747712D01*
X51672786Y-43868028D01*
X51528028Y-44012786D01*
X51407715Y-44178386D01*
X51363942Y-44264295D01*
X51315967Y-44315091D01*
X51248146Y-44331886D01*
X51182011Y-44309348D01*
X51144099Y-44266454D01*
X51108841Y-44200493D01*
X51062465Y-44131086D01*
X51062465Y-44131085D01*
X50462961Y-44730588D01*
X50445925Y-44667007D01*
X50380099Y-44552993D01*
X50287007Y-44459901D01*
X50172993Y-44394075D01*
X50109410Y-44377037D01*
X50708913Y-43777534D01*
X50708912Y-43777533D01*
X50639506Y-43731158D01*
X50552198Y-43684490D01*
X50406612Y-43624185D01*
X50311864Y-43595444D01*
X50157300Y-43564701D01*
X50058790Y-43555000D01*
X49901210Y-43555000D01*
X49802700Y-43564701D01*
X49802697Y-43564701D01*
X49648135Y-43595444D01*
X49553387Y-43624185D01*
X49407801Y-43684490D01*
X49320488Y-43731161D01*
X49251086Y-43777532D01*
X49251085Y-43777533D01*
X49850590Y-44377037D01*
X49787007Y-44394075D01*
X49672993Y-44459901D01*
X49579901Y-44552993D01*
X49514075Y-44667007D01*
X49497037Y-44730590D01*
X48897533Y-44131085D01*
X48897532Y-44131086D01*
X48851160Y-44200489D01*
X48851157Y-44200494D01*
X48815899Y-44266455D01*
X48766936Y-44316299D01*
X48698798Y-44331758D01*
X48633119Y-44307925D01*
X48596057Y-44264294D01*
X48595782Y-44263755D01*
X48552287Y-44178390D01*
X48552286Y-44178388D01*
X48431971Y-44012786D01*
X48334339Y-43915154D01*
X48287219Y-43868034D01*
X48223809Y-43821964D01*
X48220388Y-43819080D01*
X48203479Y-43793534D01*
X48184766Y-43769267D01*
X48184370Y-43764666D01*
X48181823Y-43760817D01*
X48181409Y-43730182D01*
X48178787Y-43699654D01*
X48180941Y-43695570D01*
X48180879Y-43690954D01*
X48197094Y-43664956D01*
X48211392Y-43637858D01*
X48212562Y-43636671D01*
X49703858Y-42145375D01*
X49765179Y-42111892D01*
X49834871Y-42116876D01*
X49860426Y-42129955D01*
X49973342Y-42205403D01*
X49973344Y-42205404D01*
X49973348Y-42205406D01*
X50084768Y-42251557D01*
X50119024Y-42265746D01*
X50273674Y-42296508D01*
X50273677Y-42296509D01*
X50273679Y-42296509D01*
X50431365Y-42296509D01*
X50431366Y-42296508D01*
X50586018Y-42265746D01*
X50731700Y-42205403D01*
X50862810Y-42117798D01*
X50974310Y-42006298D01*
X51061915Y-41875188D01*
X51061917Y-41875181D01*
X51064785Y-41869818D01*
X51066313Y-41870635D01*
X51104982Y-41822647D01*
X51171275Y-41800579D01*
X51175706Y-41800500D01*
X52817460Y-41800500D01*
X52884499Y-41820185D01*
G37*
%TD.AperFunction*%
%TA.AperFunction,Conductor*%
G36*
X68328569Y-42620185D02*
G01*
X68374324Y-42672989D01*
X68383147Y-42700309D01*
X68409638Y-42833488D01*
X68409641Y-42833500D01*
X68469979Y-42979171D01*
X68469986Y-42979184D01*
X68557979Y-43110873D01*
X68578857Y-43177550D01*
X68578877Y-43179764D01*
X68578877Y-43615304D01*
X68559192Y-43682343D01*
X68506388Y-43728098D01*
X68437230Y-43738042D01*
X68398582Y-43725789D01*
X68259223Y-43654781D01*
X68064534Y-43591522D01*
X67889995Y-43563878D01*
X67862352Y-43559500D01*
X67657648Y-43559500D01*
X67633329Y-43563351D01*
X67455465Y-43591522D01*
X67260776Y-43654781D01*
X67078386Y-43747715D01*
X66912784Y-43868030D01*
X66860521Y-43920292D01*
X66799197Y-43953776D01*
X66729505Y-43948790D01*
X66685160Y-43920290D01*
X66163225Y-43398355D01*
X66163223Y-43398352D01*
X66044352Y-43279481D01*
X66044344Y-43279475D01*
X65944426Y-43221788D01*
X65944424Y-43221787D01*
X65907425Y-43200425D01*
X65907424Y-43200424D01*
X65873313Y-43191284D01*
X65754692Y-43159499D01*
X65596578Y-43159499D01*
X65588982Y-43159499D01*
X65588966Y-43159500D01*
X64851035Y-43159500D01*
X64851019Y-43159499D01*
X64843423Y-43159499D01*
X64685308Y-43159499D01*
X64609680Y-43179764D01*
X64532579Y-43200423D01*
X64532574Y-43200426D01*
X64395655Y-43279475D01*
X64395647Y-43279481D01*
X63639481Y-44035647D01*
X63639475Y-44035655D01*
X63591070Y-44119497D01*
X63591070Y-44119498D01*
X63560423Y-44172579D01*
X63560423Y-44172580D01*
X63519498Y-44325310D01*
X63518438Y-44333368D01*
X63516441Y-44333105D01*
X63499814Y-44389731D01*
X63483180Y-44410373D01*
X63162962Y-44730590D01*
X63145925Y-44667007D01*
X63080099Y-44552993D01*
X62987007Y-44459901D01*
X62872993Y-44394075D01*
X62809410Y-44377037D01*
X63408913Y-43777534D01*
X63408912Y-43777533D01*
X63339506Y-43731158D01*
X63252198Y-43684490D01*
X63106612Y-43624185D01*
X63011864Y-43595444D01*
X62857300Y-43564701D01*
X62758790Y-43555000D01*
X62601210Y-43555000D01*
X62502700Y-43564701D01*
X62502697Y-43564701D01*
X62348135Y-43595444D01*
X62253387Y-43624185D01*
X62107801Y-43684490D01*
X62020488Y-43731161D01*
X61951086Y-43777532D01*
X61951085Y-43777533D01*
X62550590Y-44377037D01*
X62487007Y-44394075D01*
X62372993Y-44459901D01*
X62279901Y-44552993D01*
X62214075Y-44667007D01*
X62197037Y-44730589D01*
X61597533Y-44131085D01*
X61597532Y-44131086D01*
X61551160Y-44200489D01*
X61551157Y-44200494D01*
X61515899Y-44266455D01*
X61466936Y-44316299D01*
X61398798Y-44331758D01*
X61333119Y-44307925D01*
X61296057Y-44264294D01*
X61295782Y-44263755D01*
X61252287Y-44178390D01*
X61252286Y-44178388D01*
X61131971Y-44012786D01*
X60987213Y-43868028D01*
X60821613Y-43747715D01*
X60821612Y-43747714D01*
X60821610Y-43747713D01*
X60755305Y-43713929D01*
X60639223Y-43654781D01*
X60467252Y-43598904D01*
X60417890Y-43568654D01*
X60368717Y-43519481D01*
X60368709Y-43519475D01*
X60231790Y-43440426D01*
X60231786Y-43440424D01*
X60231784Y-43440423D01*
X60079057Y-43399500D01*
X60079056Y-43399500D01*
X58595733Y-43399500D01*
X58528694Y-43379815D01*
X58508052Y-43363181D01*
X58424352Y-43279481D01*
X58424344Y-43279475D01*
X58324426Y-43221788D01*
X58324424Y-43221787D01*
X58287425Y-43200425D01*
X58287424Y-43200424D01*
X58253313Y-43191284D01*
X58134692Y-43159499D01*
X57976578Y-43159499D01*
X57968982Y-43159499D01*
X57968966Y-43159500D01*
X57231035Y-43159500D01*
X57231019Y-43159499D01*
X57223423Y-43159499D01*
X57065308Y-43159499D01*
X56989680Y-43179764D01*
X56912580Y-43200423D01*
X56779491Y-43277260D01*
X56779484Y-43277265D01*
X56775649Y-43279480D01*
X56766010Y-43289118D01*
X56765994Y-43289133D01*
X56134838Y-43920291D01*
X56073515Y-43953776D01*
X56003824Y-43948792D01*
X55959476Y-43920291D01*
X55907213Y-43868028D01*
X55741610Y-43747712D01*
X55728200Y-43740879D01*
X55677406Y-43692903D01*
X55660500Y-43630397D01*
X55660500Y-43343832D01*
X55680185Y-43276793D01*
X55732989Y-43231038D01*
X55802147Y-43221094D01*
X55831948Y-43229269D01*
X55867617Y-43244044D01*
X56022267Y-43274806D01*
X56022270Y-43274807D01*
X56022272Y-43274807D01*
X56179958Y-43274807D01*
X56179959Y-43274806D01*
X56334611Y-43244044D01*
X56480293Y-43183701D01*
X56611403Y-43096096D01*
X56722903Y-42984596D01*
X56810508Y-42853486D01*
X56870851Y-42707804D01*
X56872341Y-42700311D01*
X56904725Y-42638400D01*
X56965439Y-42603824D01*
X56993959Y-42600500D01*
X68261530Y-42600500D01*
X68328569Y-42620185D01*
G37*
%TD.AperFunction*%
%TA.AperFunction,Conductor*%
G36*
X46507686Y-39520185D02*
G01*
X46553441Y-39572989D01*
X46563385Y-39642147D01*
X46534360Y-39705703D01*
X46528328Y-39712181D01*
X46116680Y-40123829D01*
X46055357Y-40157314D01*
X45985665Y-40152330D01*
X45929732Y-40110458D01*
X45905315Y-40044994D01*
X45904999Y-40036148D01*
X45904999Y-39624500D01*
X45924684Y-39557461D01*
X45977488Y-39511706D01*
X46028999Y-39500500D01*
X46440647Y-39500500D01*
X46507686Y-39520185D01*
G37*
%TD.AperFunction*%
%TA.AperFunction,Conductor*%
G36*
X75838663Y-35020185D02*
G01*
X75884418Y-35072989D01*
X75894362Y-35142147D01*
X75871942Y-35197385D01*
X75802879Y-35292442D01*
X75706404Y-35481782D01*
X75640742Y-35683869D01*
X75640742Y-35683872D01*
X75607500Y-35893753D01*
X75607500Y-36106246D01*
X75622137Y-36198661D01*
X75613182Y-36267955D01*
X75568186Y-36321407D01*
X75501435Y-36342046D01*
X75461346Y-36335990D01*
X75308870Y-36286447D01*
X75075597Y-36249500D01*
X75075592Y-36249500D01*
X74839408Y-36249500D01*
X74839403Y-36249500D01*
X74606131Y-36286446D01*
X74381503Y-36359433D01*
X74171066Y-36466657D01*
X74081711Y-36531578D01*
X73979990Y-36605483D01*
X73979988Y-36605485D01*
X73979987Y-36605485D01*
X73812985Y-36772487D01*
X73812985Y-36772488D01*
X73812983Y-36772490D01*
X73761308Y-36843615D01*
X73674157Y-36963566D01*
X73589235Y-37130235D01*
X73541260Y-37181031D01*
X73473439Y-37197826D01*
X73407304Y-37175288D01*
X73368265Y-37130235D01*
X73301916Y-37000019D01*
X73283343Y-36963567D01*
X73144517Y-36772490D01*
X72977510Y-36605483D01*
X72786433Y-36466657D01*
X72753742Y-36450000D01*
X72575996Y-36359433D01*
X72351368Y-36286446D01*
X72118097Y-36249500D01*
X72118092Y-36249500D01*
X71881908Y-36249500D01*
X71881903Y-36249500D01*
X71648630Y-36286447D01*
X71648627Y-36286447D01*
X71496687Y-36335816D01*
X71426846Y-36337811D01*
X71367013Y-36301731D01*
X71336185Y-36239030D01*
X71335896Y-36198492D01*
X71350500Y-36106287D01*
X71350500Y-35893713D01*
X71317246Y-35683757D01*
X71251557Y-35481588D01*
X71155051Y-35292184D01*
X71155049Y-35292181D01*
X71155048Y-35292179D01*
X71086177Y-35197385D01*
X71062697Y-35131578D01*
X71078523Y-35063525D01*
X71128629Y-35014830D01*
X71186495Y-35000500D01*
X75771624Y-35000500D01*
X75838663Y-35020185D01*
G37*
%TD.AperFunction*%
%TA.AperFunction,Conductor*%
G36*
X95942539Y-29020185D02*
G01*
X95988294Y-29072989D01*
X95999500Y-29124500D01*
X95999500Y-75875500D01*
X95979815Y-75942539D01*
X95927011Y-75988294D01*
X95875500Y-75999500D01*
X30124500Y-75999500D01*
X30057461Y-75979815D01*
X30011706Y-75927011D01*
X30000500Y-75875500D01*
X30000500Y-72878711D01*
X31149500Y-72878711D01*
X31149500Y-73121288D01*
X31181161Y-73361785D01*
X31243947Y-73596104D01*
X31282553Y-73689306D01*
X31336776Y-73820212D01*
X31458064Y-74030289D01*
X31458066Y-74030292D01*
X31458067Y-74030293D01*
X31605733Y-74222736D01*
X31605739Y-74222743D01*
X31777256Y-74394260D01*
X31777262Y-74394265D01*
X31969711Y-74541936D01*
X32179788Y-74663224D01*
X32403900Y-74756054D01*
X32638211Y-74818838D01*
X32818586Y-74842584D01*
X32878711Y-74850500D01*
X32878712Y-74850500D01*
X33121289Y-74850500D01*
X33169388Y-74844167D01*
X33361789Y-74818838D01*
X33596100Y-74756054D01*
X33820212Y-74663224D01*
X34030289Y-74541936D01*
X34222738Y-74394265D01*
X34394265Y-74222738D01*
X34541936Y-74030289D01*
X34663224Y-73820212D01*
X34756054Y-73596100D01*
X34818838Y-73361789D01*
X34850500Y-73121288D01*
X34850500Y-72878712D01*
X34818838Y-72638211D01*
X34756054Y-72403900D01*
X34663224Y-72179788D01*
X34541936Y-71969711D01*
X34438185Y-71834500D01*
X34394266Y-71777263D01*
X34394260Y-71777256D01*
X34222743Y-71605739D01*
X34222736Y-71605733D01*
X34030293Y-71458067D01*
X34030292Y-71458066D01*
X34030289Y-71458064D01*
X33820212Y-71336776D01*
X33820205Y-71336773D01*
X33596104Y-71243947D01*
X33361785Y-71181161D01*
X33121289Y-71149500D01*
X33121288Y-71149500D01*
X32878712Y-71149500D01*
X32878711Y-71149500D01*
X32638214Y-71181161D01*
X32403895Y-71243947D01*
X32179794Y-71336773D01*
X32179785Y-71336777D01*
X31969706Y-71458067D01*
X31777263Y-71605733D01*
X31777256Y-71605739D01*
X31605739Y-71777256D01*
X31605733Y-71777263D01*
X31458067Y-71969706D01*
X31336777Y-72179785D01*
X31336773Y-72179794D01*
X31243947Y-72403895D01*
X31181161Y-72638214D01*
X31149500Y-72878711D01*
X30000500Y-72878711D01*
X30000500Y-49064635D01*
X32649500Y-49064635D01*
X32649500Y-50860370D01*
X32649501Y-50860376D01*
X32655908Y-50919983D01*
X32706202Y-51054828D01*
X32706206Y-51054835D01*
X32792452Y-51170044D01*
X32792455Y-51170047D01*
X32907664Y-51256293D01*
X32907671Y-51256297D01*
X33039082Y-51305310D01*
X33095016Y-51347181D01*
X33119433Y-51412645D01*
X33104582Y-51480918D01*
X33083431Y-51509173D01*
X32969889Y-51622715D01*
X32844951Y-51794679D01*
X32748444Y-51984085D01*
X32682753Y-52186260D01*
X32649500Y-52396213D01*
X32649500Y-52608786D01*
X32682753Y-52818739D01*
X32682753Y-52818741D01*
X32682754Y-52818743D01*
X32737431Y-52987022D01*
X32748444Y-53020914D01*
X32844951Y-53210320D01*
X32969890Y-53382286D01*
X33120213Y-53532609D01*
X33292182Y-53657550D01*
X33300946Y-53662016D01*
X33351742Y-53709991D01*
X33368536Y-53777812D01*
X33345998Y-53843947D01*
X33300946Y-53882984D01*
X33292182Y-53887449D01*
X33120213Y-54012390D01*
X32969890Y-54162713D01*
X32844951Y-54334679D01*
X32748444Y-54524085D01*
X32682753Y-54726260D01*
X32649762Y-54934558D01*
X32649500Y-54936213D01*
X32649500Y-55148787D01*
X32655837Y-55188794D01*
X32678818Y-55333896D01*
X32682754Y-55358743D01*
X32747790Y-55558903D01*
X32748444Y-55560914D01*
X32844951Y-55750320D01*
X32969890Y-55922286D01*
X33120213Y-56072609D01*
X33292179Y-56197548D01*
X33292181Y-56197549D01*
X33292184Y-56197551D01*
X33301493Y-56202294D01*
X33352290Y-56250266D01*
X33369087Y-56318087D01*
X33346552Y-56384222D01*
X33301505Y-56423260D01*
X33292446Y-56427876D01*
X33292440Y-56427880D01*
X33238282Y-56467227D01*
X33238282Y-56467228D01*
X33870591Y-57099537D01*
X33807007Y-57116575D01*
X33692993Y-57182401D01*
X33599901Y-57275493D01*
X33534075Y-57389507D01*
X33517037Y-57453091D01*
X32884728Y-56820782D01*
X32884727Y-56820782D01*
X32845380Y-56874939D01*
X32748904Y-57064282D01*
X32683242Y-57266369D01*
X32683242Y-57266372D01*
X32650000Y-57476253D01*
X32650000Y-57688746D01*
X32683242Y-57898627D01*
X32683242Y-57898630D01*
X32748904Y-58100717D01*
X32845375Y-58290050D01*
X32884728Y-58344216D01*
X33517037Y-57711908D01*
X33534075Y-57775493D01*
X33599901Y-57889507D01*
X33692993Y-57982599D01*
X33807007Y-58048425D01*
X33870590Y-58065462D01*
X33238282Y-58697769D01*
X33238282Y-58697770D01*
X33292449Y-58737124D01*
X33481782Y-58833595D01*
X33683870Y-58899257D01*
X33893754Y-58932500D01*
X34106246Y-58932500D01*
X34316127Y-58899257D01*
X34316130Y-58899257D01*
X34518217Y-58833595D01*
X34707554Y-58737122D01*
X34761716Y-58697770D01*
X34761717Y-58697770D01*
X34129408Y-58065462D01*
X34192993Y-58048425D01*
X34307007Y-57982599D01*
X34400099Y-57889507D01*
X34465925Y-57775493D01*
X34482962Y-57711908D01*
X35115270Y-58344217D01*
X35115270Y-58344216D01*
X35154622Y-58290054D01*
X35251095Y-58100717D01*
X35316757Y-57898630D01*
X35316757Y-57898627D01*
X35350000Y-57688746D01*
X35350000Y-57569308D01*
X35369685Y-57502269D01*
X35422489Y-57456514D01*
X35491647Y-57446570D01*
X35555203Y-57475595D01*
X35561681Y-57481627D01*
X36313181Y-58233127D01*
X36346666Y-58294450D01*
X36349500Y-58320808D01*
X36349500Y-66064070D01*
X36362977Y-66131818D01*
X36362977Y-66131820D01*
X36374497Y-66189736D01*
X36374499Y-66189744D01*
X36416786Y-66291835D01*
X36423535Y-66308127D01*
X36484469Y-66399322D01*
X36494726Y-66414673D01*
X36494727Y-66414674D01*
X37313181Y-67233127D01*
X37346666Y-67294450D01*
X37349500Y-67320808D01*
X37349500Y-67495064D01*
X37329815Y-67562103D01*
X37328603Y-67563954D01*
X37290608Y-67620817D01*
X37290602Y-67620828D01*
X37230264Y-67766498D01*
X37230261Y-67766510D01*
X37199500Y-67921153D01*
X37199500Y-68078846D01*
X37230261Y-68233489D01*
X37230264Y-68233501D01*
X37290602Y-68379172D01*
X37290609Y-68379185D01*
X37378210Y-68510288D01*
X37378213Y-68510292D01*
X37489707Y-68621786D01*
X37489711Y-68621789D01*
X37620814Y-68709390D01*
X37620827Y-68709397D01*
X37766498Y-68769735D01*
X37766503Y-68769737D01*
X37921153Y-68800499D01*
X37921156Y-68800500D01*
X38075500Y-68800500D01*
X38142539Y-68820185D01*
X38188294Y-68872989D01*
X38199500Y-68924500D01*
X38199500Y-69078846D01*
X38230261Y-69233489D01*
X38230264Y-69233501D01*
X38290602Y-69379172D01*
X38290609Y-69379185D01*
X38378210Y-69510288D01*
X38378213Y-69510292D01*
X38489707Y-69621786D01*
X38489711Y-69621789D01*
X38620814Y-69709390D01*
X38620827Y-69709397D01*
X38747469Y-69761853D01*
X38766503Y-69769737D01*
X38887269Y-69793759D01*
X38921153Y-69800499D01*
X38921156Y-69800500D01*
X38921158Y-69800500D01*
X39078844Y-69800500D01*
X39078845Y-69800499D01*
X39233497Y-69769737D01*
X39320574Y-69733669D01*
X39378048Y-69709863D01*
X39447517Y-69702394D01*
X39509996Y-69733669D01*
X39545648Y-69793759D01*
X39549500Y-69824424D01*
X39549500Y-69930621D01*
X39529815Y-69997660D01*
X39490599Y-70036158D01*
X39456346Y-70057285D01*
X39332289Y-70181342D01*
X39240187Y-70330663D01*
X39240185Y-70330668D01*
X39225138Y-70376077D01*
X39185001Y-70497203D01*
X39185001Y-70497204D01*
X39185000Y-70497204D01*
X39174500Y-70599983D01*
X39174500Y-71400001D01*
X39174501Y-71400019D01*
X39185000Y-71502796D01*
X39185001Y-71502799D01*
X39222181Y-71615000D01*
X39240186Y-71669334D01*
X39332288Y-71818656D01*
X39456344Y-71942712D01*
X39520981Y-71982580D01*
X39567705Y-72034526D01*
X39578928Y-72103489D01*
X39551085Y-72167571D01*
X39543566Y-72175799D01*
X39435964Y-72283401D01*
X39334195Y-72423475D01*
X39255591Y-72577744D01*
X39202085Y-72742415D01*
X39200884Y-72749999D01*
X39200885Y-72750000D01*
X40269670Y-72750000D01*
X40249925Y-72769745D01*
X40200556Y-72855255D01*
X40175000Y-72950630D01*
X40175000Y-73049370D01*
X40200556Y-73144745D01*
X40249925Y-73230255D01*
X40269670Y-73250000D01*
X39200885Y-73250000D01*
X39202085Y-73257584D01*
X39255591Y-73422255D01*
X39334195Y-73576524D01*
X39435967Y-73716602D01*
X39558397Y-73839032D01*
X39698475Y-73940804D01*
X39852742Y-74019408D01*
X40017415Y-74072914D01*
X40188429Y-74100000D01*
X40300000Y-74100000D01*
X40300000Y-73280330D01*
X40319745Y-73300075D01*
X40405255Y-73349444D01*
X40500630Y-73375000D01*
X40599370Y-73375000D01*
X40694745Y-73349444D01*
X40780255Y-73300075D01*
X40800000Y-73280330D01*
X40800000Y-74100000D01*
X40911571Y-74100000D01*
X41082584Y-74072914D01*
X41247257Y-74019408D01*
X41401524Y-73940804D01*
X41541602Y-73839032D01*
X41664032Y-73716602D01*
X41765804Y-73576524D01*
X41844408Y-73422255D01*
X41897914Y-73257584D01*
X41899115Y-73250000D01*
X40830330Y-73250000D01*
X40850075Y-73230255D01*
X40899444Y-73144745D01*
X40925000Y-73049370D01*
X40925000Y-72950630D01*
X40899444Y-72855255D01*
X40850075Y-72769745D01*
X40830330Y-72750000D01*
X41899115Y-72750000D01*
X41899115Y-72749999D01*
X41897914Y-72742415D01*
X41844408Y-72577744D01*
X41765804Y-72423475D01*
X41664032Y-72283397D01*
X41556434Y-72175799D01*
X41522949Y-72114476D01*
X41527933Y-72044784D01*
X41569805Y-71988851D01*
X41578995Y-71982594D01*
X41643656Y-71942712D01*
X41767712Y-71818656D01*
X41859814Y-71669334D01*
X41914999Y-71502797D01*
X41925500Y-71400009D01*
X41925500Y-71219500D01*
X41945185Y-71152461D01*
X41997989Y-71106706D01*
X42049500Y-71095500D01*
X42878433Y-71095500D01*
X42945472Y-71115185D01*
X42991227Y-71167989D01*
X43001171Y-71237147D01*
X43000050Y-71243693D01*
X42999500Y-71246457D01*
X42999500Y-73003544D01*
X43037947Y-73196828D01*
X43037950Y-73196840D01*
X43049083Y-73223716D01*
X43113366Y-73378911D01*
X43113371Y-73378920D01*
X43222859Y-73542780D01*
X43222860Y-73542781D01*
X43222861Y-73542782D01*
X43362218Y-73682139D01*
X43362219Y-73682139D01*
X43369286Y-73689206D01*
X43369285Y-73689206D01*
X43369289Y-73689209D01*
X44362215Y-74682137D01*
X44362219Y-74682140D01*
X44526079Y-74791628D01*
X44526085Y-74791631D01*
X44526086Y-74791632D01*
X44708165Y-74867052D01*
X44901455Y-74905500D01*
X44901458Y-74905501D01*
X44901460Y-74905501D01*
X45104655Y-74905501D01*
X45104675Y-74905500D01*
X47623543Y-74905500D01*
X47753582Y-74879632D01*
X47816835Y-74867051D01*
X47998914Y-74791632D01*
X48096544Y-74726398D01*
X48163222Y-74705520D01*
X48165435Y-74705500D01*
X48415686Y-74705500D01*
X48415694Y-74705500D01*
X48452569Y-74702598D01*
X48452571Y-74702597D01*
X48452573Y-74702597D01*
X48522985Y-74682140D01*
X48610398Y-74656744D01*
X48751865Y-74573081D01*
X48868081Y-74456865D01*
X48951744Y-74315398D01*
X48997598Y-74157569D01*
X49000500Y-74120694D01*
X49000500Y-74056213D01*
X49020185Y-73989174D01*
X49072989Y-73943419D01*
X49142147Y-73933475D01*
X49148692Y-73934596D01*
X49226129Y-73950000D01*
X49373871Y-73950000D01*
X49373873Y-73949999D01*
X49518760Y-73921179D01*
X49518775Y-73921175D01*
X49624024Y-73877578D01*
X49624024Y-73877577D01*
X49123223Y-73376777D01*
X48960334Y-73213888D01*
X48941889Y-73180109D01*
X49200000Y-73180109D01*
X49200000Y-73219891D01*
X49215224Y-73256645D01*
X49243355Y-73284776D01*
X49280109Y-73300000D01*
X49319891Y-73300000D01*
X49356645Y-73284776D01*
X49384776Y-73256645D01*
X49400000Y-73219891D01*
X49400000Y-73199999D01*
X49653554Y-73199999D01*
X49653554Y-73200001D01*
X49977929Y-73524376D01*
X50022069Y-73524376D01*
X50346446Y-73200000D01*
X50326555Y-73180109D01*
X50600000Y-73180109D01*
X50600000Y-73219891D01*
X50615224Y-73256645D01*
X50643355Y-73284776D01*
X50680109Y-73300000D01*
X50719891Y-73300000D01*
X50756645Y-73284776D01*
X50784776Y-73256645D01*
X50800000Y-73219891D01*
X50800000Y-73180109D01*
X50784776Y-73143355D01*
X50756645Y-73115224D01*
X50719891Y-73100000D01*
X50680109Y-73100000D01*
X50643355Y-73115224D01*
X50615224Y-73143355D01*
X50600000Y-73180109D01*
X50326555Y-73180109D01*
X50022068Y-72875622D01*
X49977930Y-72875622D01*
X49653554Y-73199999D01*
X49400000Y-73199999D01*
X49400000Y-73180109D01*
X49384776Y-73143355D01*
X49356645Y-73115224D01*
X49319891Y-73100000D01*
X49280109Y-73100000D01*
X49243355Y-73115224D01*
X49215224Y-73143355D01*
X49200000Y-73180109D01*
X48941889Y-73180109D01*
X48926849Y-73152565D01*
X48931833Y-73082873D01*
X48941283Y-73063086D01*
X48951744Y-73045398D01*
X48997598Y-72887569D01*
X49000500Y-72850694D01*
X49000500Y-72846308D01*
X49020185Y-72779269D01*
X49072989Y-72733514D01*
X49142147Y-72723570D01*
X49205703Y-72752595D01*
X49212181Y-72758627D01*
X49300000Y-72846446D01*
X49546446Y-72600000D01*
X49300000Y-72353554D01*
X49207023Y-72446531D01*
X49145700Y-72480015D01*
X49076008Y-72475031D01*
X49020075Y-72433159D01*
X49000448Y-72388200D01*
X48999366Y-72388515D01*
X48951745Y-72224606D01*
X48951744Y-72224603D01*
X48951744Y-72224602D01*
X48915268Y-72162925D01*
X48898086Y-72095204D01*
X48903917Y-72061963D01*
X48930123Y-71980188D01*
X48930080Y-71980109D01*
X49200000Y-71980109D01*
X49200000Y-72019891D01*
X49215224Y-72056645D01*
X49243355Y-72084776D01*
X49280109Y-72100000D01*
X49319891Y-72100000D01*
X49356645Y-72084776D01*
X49384776Y-72056645D01*
X49400000Y-72019891D01*
X49400000Y-71999999D01*
X49653554Y-71999999D01*
X49653554Y-72000001D01*
X49977929Y-72324376D01*
X50022069Y-72324376D01*
X50346446Y-72000000D01*
X50326555Y-71980109D01*
X50600000Y-71980109D01*
X50600000Y-72019891D01*
X50615224Y-72056645D01*
X50643355Y-72084776D01*
X50680109Y-72100000D01*
X50719891Y-72100000D01*
X50756645Y-72084776D01*
X50784776Y-72056645D01*
X50800000Y-72019891D01*
X50800000Y-71980109D01*
X50784776Y-71943355D01*
X50756645Y-71915224D01*
X50719891Y-71900000D01*
X50680109Y-71900000D01*
X50643355Y-71915224D01*
X50615224Y-71943355D01*
X50600000Y-71980109D01*
X50326555Y-71980109D01*
X50022068Y-71675622D01*
X49977930Y-71675622D01*
X49653554Y-71999999D01*
X49400000Y-71999999D01*
X49400000Y-71980109D01*
X49384776Y-71943355D01*
X49356645Y-71915224D01*
X49319891Y-71900000D01*
X49280109Y-71900000D01*
X49243355Y-71915224D01*
X49215224Y-71943355D01*
X49200000Y-71980109D01*
X48930080Y-71980109D01*
X48900835Y-71926551D01*
X48905819Y-71856859D01*
X48915266Y-71837078D01*
X48951744Y-71775398D01*
X48982560Y-71669331D01*
X48999366Y-71611485D01*
X49000860Y-71611919D01*
X49028762Y-71556467D01*
X49088925Y-71520939D01*
X49158744Y-71523577D01*
X49207023Y-71553469D01*
X49300000Y-71646446D01*
X49546446Y-71400000D01*
X50453554Y-71400000D01*
X50700000Y-71646446D01*
X50946446Y-71400000D01*
X50700000Y-71153554D01*
X50453554Y-71400000D01*
X49546446Y-71400000D01*
X49300000Y-71153554D01*
X49212181Y-71241373D01*
X49150858Y-71274858D01*
X49081166Y-71269874D01*
X49025233Y-71228002D01*
X49000816Y-71162538D01*
X49000500Y-71153692D01*
X49000500Y-71149313D01*
X49000499Y-71149298D01*
X48999931Y-71142085D01*
X48997598Y-71112431D01*
X48996975Y-71110288D01*
X48951745Y-70954606D01*
X48951745Y-70954605D01*
X48951744Y-70954604D01*
X48951744Y-70954602D01*
X48941282Y-70936912D01*
X48934279Y-70909314D01*
X48924330Y-70882637D01*
X48925798Y-70875887D01*
X48924099Y-70869191D01*
X48933129Y-70842186D01*
X48939182Y-70814364D01*
X48945059Y-70806513D01*
X48946258Y-70802928D01*
X48960333Y-70786110D01*
X48966334Y-70780109D01*
X49200000Y-70780109D01*
X49200000Y-70819891D01*
X49215224Y-70856645D01*
X49243355Y-70884776D01*
X49280109Y-70900000D01*
X49319891Y-70900000D01*
X49356645Y-70884776D01*
X49384776Y-70856645D01*
X49400000Y-70819891D01*
X49400000Y-70799999D01*
X49653554Y-70799999D01*
X49653554Y-70800001D01*
X49977929Y-71124376D01*
X50022069Y-71124376D01*
X50346446Y-70800000D01*
X50326555Y-70780109D01*
X50600000Y-70780109D01*
X50600000Y-70819891D01*
X50615224Y-70856645D01*
X50643355Y-70884776D01*
X50680109Y-70900000D01*
X50719891Y-70900000D01*
X50756645Y-70884776D01*
X50784776Y-70856645D01*
X50800000Y-70819891D01*
X50800000Y-70780109D01*
X50784776Y-70743355D01*
X50756645Y-70715224D01*
X50719891Y-70700000D01*
X50680109Y-70700000D01*
X50643355Y-70715224D01*
X50615224Y-70743355D01*
X50600000Y-70780109D01*
X50326555Y-70780109D01*
X50022068Y-70475622D01*
X49977930Y-70475622D01*
X49653554Y-70799999D01*
X49400000Y-70799999D01*
X49400000Y-70780109D01*
X49384776Y-70743355D01*
X49356645Y-70715224D01*
X49319891Y-70700000D01*
X49280109Y-70700000D01*
X49243355Y-70715224D01*
X49215224Y-70743355D01*
X49200000Y-70780109D01*
X48966334Y-70780109D01*
X49085489Y-70660956D01*
X49085491Y-70660954D01*
X49123223Y-70623223D01*
X49624024Y-70122421D01*
X49518767Y-70078822D01*
X49518759Y-70078820D01*
X49373872Y-70050000D01*
X49226126Y-70050000D01*
X49148691Y-70065403D01*
X49079100Y-70059176D01*
X49023922Y-70016313D01*
X49000678Y-69950423D01*
X49000500Y-69943786D01*
X49000500Y-69879313D01*
X49000499Y-69879298D01*
X48997598Y-69842432D01*
X48997597Y-69842426D01*
X48973387Y-69759095D01*
X48973586Y-69689226D01*
X49011528Y-69630556D01*
X49075166Y-69601712D01*
X49092463Y-69600500D01*
X49312134Y-69600500D01*
X49379173Y-69620185D01*
X49399816Y-69636820D01*
X49437244Y-69674249D01*
X49437248Y-69674252D01*
X49568351Y-69761853D01*
X49568364Y-69761860D01*
X49661651Y-69800500D01*
X49714040Y-69822200D01*
X49868690Y-69852962D01*
X49868693Y-69852963D01*
X49868695Y-69852963D01*
X50026381Y-69852963D01*
X50026382Y-69852962D01*
X50181034Y-69822200D01*
X50305753Y-69770540D01*
X50326709Y-69761860D01*
X50326709Y-69761859D01*
X50326716Y-69761857D01*
X50457826Y-69674252D01*
X50460892Y-69671186D01*
X50522213Y-69637697D01*
X50591905Y-69642676D01*
X50636260Y-69671180D01*
X50803399Y-69838319D01*
X50836884Y-69899642D01*
X50831900Y-69969334D01*
X50790028Y-70025267D01*
X50724564Y-70049684D01*
X50715718Y-70050000D01*
X50626128Y-70050000D01*
X50481240Y-70078820D01*
X50481228Y-70078823D01*
X50375974Y-70122420D01*
X50375974Y-70122421D01*
X50876777Y-70623223D01*
X51411350Y-71157796D01*
X51444835Y-71219119D01*
X51439851Y-71288811D01*
X51411350Y-71333158D01*
X51344508Y-71400000D01*
X51411350Y-71466842D01*
X51444835Y-71528165D01*
X51439851Y-71597857D01*
X51411350Y-71642204D01*
X51053554Y-72000000D01*
X51065679Y-72012125D01*
X51099164Y-72073448D01*
X51094180Y-72143140D01*
X51084731Y-72162926D01*
X51048254Y-72224605D01*
X51048254Y-72224606D01*
X51000634Y-72388515D01*
X50999143Y-72388082D01*
X50971217Y-72443553D01*
X50911047Y-72479067D01*
X50841227Y-72476413D01*
X50792976Y-72446530D01*
X50700000Y-72353554D01*
X50453554Y-72600000D01*
X50700000Y-72846446D01*
X50787819Y-72758627D01*
X50849142Y-72725142D01*
X50918834Y-72730126D01*
X50974767Y-72771998D01*
X50999184Y-72837462D01*
X50999500Y-72846308D01*
X50999500Y-72850701D01*
X51002401Y-72887567D01*
X51002402Y-72887573D01*
X51048254Y-73045393D01*
X51048254Y-73045394D01*
X51048255Y-73045396D01*
X51048256Y-73045398D01*
X51058715Y-73063084D01*
X51058717Y-73063086D01*
X51075899Y-73130810D01*
X51053738Y-73197072D01*
X51039666Y-73213887D01*
X50876778Y-73376777D01*
X50876777Y-73376777D01*
X50375975Y-73877577D01*
X50481236Y-73921178D01*
X50481240Y-73921179D01*
X50626126Y-73949999D01*
X50626129Y-73950000D01*
X50773870Y-73950000D01*
X50851308Y-73934596D01*
X50920899Y-73940823D01*
X50976077Y-73983685D01*
X50999322Y-74049575D01*
X50999500Y-74056213D01*
X50999500Y-74120701D01*
X51002401Y-74157567D01*
X51002402Y-74157573D01*
X51048254Y-74315393D01*
X51048255Y-74315396D01*
X51048256Y-74315398D01*
X51079786Y-74368713D01*
X51131917Y-74456862D01*
X51131923Y-74456870D01*
X51248129Y-74573076D01*
X51248133Y-74573079D01*
X51248135Y-74573081D01*
X51389602Y-74656744D01*
X51411899Y-74663222D01*
X51547426Y-74702597D01*
X51547429Y-74702597D01*
X51547431Y-74702598D01*
X51584306Y-74705500D01*
X51584314Y-74705500D01*
X53365686Y-74705500D01*
X53365694Y-74705500D01*
X53402569Y-74702598D01*
X53402571Y-74702597D01*
X53402573Y-74702597D01*
X53472985Y-74682140D01*
X53560398Y-74656744D01*
X53701865Y-74573081D01*
X53733126Y-74541820D01*
X53794448Y-74508334D01*
X53820808Y-74505500D01*
X54008331Y-74505500D01*
X54008347Y-74505501D01*
X54015943Y-74505501D01*
X54174054Y-74505501D01*
X54174057Y-74505501D01*
X54326785Y-74464577D01*
X54383582Y-74431785D01*
X54463716Y-74385520D01*
X54514041Y-74335194D01*
X54575362Y-74301710D01*
X54645054Y-74306694D01*
X54700987Y-74348565D01*
X54723338Y-74398685D01*
X54730261Y-74433489D01*
X54730264Y-74433501D01*
X54790602Y-74579172D01*
X54790609Y-74579185D01*
X54878210Y-74710288D01*
X54878213Y-74710292D01*
X54989707Y-74821786D01*
X54989711Y-74821789D01*
X55120814Y-74909390D01*
X55120827Y-74909397D01*
X55266498Y-74969735D01*
X55266503Y-74969737D01*
X55421153Y-75000499D01*
X55421156Y-75000500D01*
X55421158Y-75000500D01*
X55578844Y-75000500D01*
X55578845Y-75000499D01*
X55733497Y-74969737D01*
X55879179Y-74909394D01*
X56010289Y-74821789D01*
X56121789Y-74710289D01*
X56209394Y-74579179D01*
X56211920Y-74573082D01*
X56224868Y-74541820D01*
X56269737Y-74433497D01*
X56300500Y-74278842D01*
X56300638Y-74278150D01*
X56333023Y-74216239D01*
X56334470Y-74214764D01*
X56497452Y-74051781D01*
X56558771Y-74018300D01*
X56628462Y-74023284D01*
X56684396Y-74065155D01*
X56706746Y-74115274D01*
X56730261Y-74233491D01*
X56730264Y-74233501D01*
X56790602Y-74379172D01*
X56790609Y-74379185D01*
X56878210Y-74510288D01*
X56878213Y-74510292D01*
X56989707Y-74621786D01*
X56989711Y-74621789D01*
X57120814Y-74709390D01*
X57120827Y-74709397D01*
X57233464Y-74756052D01*
X57266503Y-74769737D01*
X57376556Y-74791628D01*
X57421153Y-74800499D01*
X57421156Y-74800500D01*
X57421158Y-74800500D01*
X57578844Y-74800500D01*
X57578845Y-74800499D01*
X57733497Y-74769737D01*
X57879179Y-74709394D01*
X57889351Y-74702597D01*
X58010875Y-74621398D01*
X58077553Y-74600520D01*
X58079766Y-74600500D01*
X62013331Y-74600500D01*
X62013347Y-74600501D01*
X62020943Y-74600501D01*
X62179054Y-74600501D01*
X62179057Y-74600501D01*
X62331785Y-74559577D01*
X62381904Y-74530639D01*
X62468716Y-74480520D01*
X62580520Y-74368716D01*
X62580520Y-74368714D01*
X62590728Y-74358507D01*
X62590729Y-74358504D01*
X65514662Y-71434572D01*
X65575983Y-71401089D01*
X65578150Y-71400638D01*
X65636085Y-71389113D01*
X65733497Y-71369737D01*
X65879179Y-71309394D01*
X66010289Y-71221789D01*
X66121789Y-71110289D01*
X66209394Y-70979179D01*
X66269737Y-70833497D01*
X66274952Y-70807278D01*
X66296231Y-70700308D01*
X66328616Y-70638397D01*
X66389332Y-70603823D01*
X66417848Y-70600500D01*
X76050500Y-70600500D01*
X76117539Y-70620185D01*
X76163294Y-70672989D01*
X76174500Y-70724500D01*
X76174500Y-71400001D01*
X76174501Y-71400019D01*
X76185000Y-71502796D01*
X76185001Y-71502799D01*
X76222181Y-71615000D01*
X76240186Y-71669334D01*
X76332288Y-71818656D01*
X76456344Y-71942712D01*
X76520981Y-71982580D01*
X76567705Y-72034526D01*
X76578928Y-72103489D01*
X76551085Y-72167571D01*
X76543566Y-72175799D01*
X76435964Y-72283401D01*
X76334195Y-72423475D01*
X76255591Y-72577744D01*
X76202085Y-72742415D01*
X76200884Y-72749999D01*
X76200885Y-72750000D01*
X77269670Y-72750000D01*
X77249925Y-72769745D01*
X77200556Y-72855255D01*
X77175000Y-72950630D01*
X77175000Y-73049370D01*
X77200556Y-73144745D01*
X77249925Y-73230255D01*
X77269670Y-73250000D01*
X76200885Y-73250000D01*
X76202085Y-73257584D01*
X76255591Y-73422255D01*
X76334195Y-73576524D01*
X76435967Y-73716602D01*
X76558397Y-73839032D01*
X76698475Y-73940804D01*
X76852742Y-74019408D01*
X77017415Y-74072914D01*
X77188429Y-74100000D01*
X77300000Y-74100000D01*
X77300000Y-73280330D01*
X77319745Y-73300075D01*
X77405255Y-73349444D01*
X77500630Y-73375000D01*
X77599370Y-73375000D01*
X77694745Y-73349444D01*
X77780255Y-73300075D01*
X77800000Y-73280330D01*
X77800000Y-74100000D01*
X77911571Y-74100000D01*
X78082584Y-74072914D01*
X78247257Y-74019408D01*
X78401524Y-73940804D01*
X78541602Y-73839032D01*
X78664032Y-73716602D01*
X78765804Y-73576524D01*
X78844408Y-73422255D01*
X78897914Y-73257584D01*
X78899115Y-73250000D01*
X77830330Y-73250000D01*
X77850075Y-73230255D01*
X77899444Y-73144745D01*
X77925000Y-73049370D01*
X77925000Y-72950630D01*
X77905729Y-72878711D01*
X91149500Y-72878711D01*
X91149500Y-73121288D01*
X91181161Y-73361785D01*
X91243947Y-73596104D01*
X91282553Y-73689306D01*
X91336776Y-73820212D01*
X91458064Y-74030289D01*
X91458066Y-74030292D01*
X91458067Y-74030293D01*
X91605733Y-74222736D01*
X91605739Y-74222743D01*
X91777256Y-74394260D01*
X91777262Y-74394265D01*
X91969711Y-74541936D01*
X92179788Y-74663224D01*
X92403900Y-74756054D01*
X92638211Y-74818838D01*
X92818586Y-74842584D01*
X92878711Y-74850500D01*
X92878712Y-74850500D01*
X93121289Y-74850500D01*
X93169388Y-74844167D01*
X93361789Y-74818838D01*
X93596100Y-74756054D01*
X93820212Y-74663224D01*
X94030289Y-74541936D01*
X94222738Y-74394265D01*
X94394265Y-74222738D01*
X94541936Y-74030289D01*
X94663224Y-73820212D01*
X94756054Y-73596100D01*
X94818838Y-73361789D01*
X94850500Y-73121288D01*
X94850500Y-72878712D01*
X94818838Y-72638211D01*
X94756054Y-72403900D01*
X94663224Y-72179788D01*
X94541936Y-71969711D01*
X94438185Y-71834500D01*
X94394266Y-71777263D01*
X94394260Y-71777256D01*
X94222743Y-71605739D01*
X94222736Y-71605733D01*
X94030293Y-71458067D01*
X94030292Y-71458066D01*
X94030289Y-71458064D01*
X93820212Y-71336776D01*
X93820205Y-71336773D01*
X93596104Y-71243947D01*
X93361785Y-71181161D01*
X93121289Y-71149500D01*
X93121288Y-71149500D01*
X92878712Y-71149500D01*
X92878711Y-71149500D01*
X92638214Y-71181161D01*
X92403895Y-71243947D01*
X92179794Y-71336773D01*
X92179785Y-71336777D01*
X91969706Y-71458067D01*
X91777263Y-71605733D01*
X91777256Y-71605739D01*
X91605739Y-71777256D01*
X91605733Y-71777263D01*
X91458067Y-71969706D01*
X91336777Y-72179785D01*
X91336773Y-72179794D01*
X91243947Y-72403895D01*
X91181161Y-72638214D01*
X91149500Y-72878711D01*
X77905729Y-72878711D01*
X77899444Y-72855255D01*
X77850075Y-72769745D01*
X77830330Y-72750000D01*
X78899115Y-72750000D01*
X78899115Y-72749999D01*
X78897914Y-72742415D01*
X78844408Y-72577744D01*
X78765804Y-72423475D01*
X78664032Y-72283397D01*
X78556434Y-72175799D01*
X78522949Y-72114476D01*
X78527933Y-72044784D01*
X78569805Y-71988851D01*
X78578995Y-71982594D01*
X78643656Y-71942712D01*
X78767712Y-71818656D01*
X78859814Y-71669334D01*
X78914999Y-71502797D01*
X78925500Y-71400009D01*
X78925499Y-70599992D01*
X78918510Y-70531578D01*
X78914999Y-70497203D01*
X78914998Y-70497200D01*
X78896184Y-70440423D01*
X78859814Y-70330666D01*
X78834481Y-70289595D01*
X78816042Y-70222204D01*
X78836965Y-70155541D01*
X78890607Y-70110771D01*
X78940021Y-70100500D01*
X83811128Y-70100500D01*
X83895672Y-70083682D01*
X83936801Y-70075501D01*
X84055184Y-70026465D01*
X84057364Y-70025008D01*
X84059573Y-70023533D01*
X84140688Y-69969334D01*
X84161726Y-69955277D01*
X86542862Y-67574139D01*
X86604183Y-67540656D01*
X86673874Y-67545640D01*
X86703426Y-67561504D01*
X86785070Y-67620821D01*
X86832184Y-67655051D01*
X87021588Y-67751557D01*
X87223757Y-67817246D01*
X87433713Y-67850500D01*
X87433714Y-67850500D01*
X87646286Y-67850500D01*
X87646287Y-67850500D01*
X87856243Y-67817246D01*
X88058412Y-67751557D01*
X88247816Y-67655051D01*
X88294930Y-67620821D01*
X88419786Y-67530109D01*
X88419788Y-67530106D01*
X88419792Y-67530104D01*
X88570104Y-67379792D01*
X88570106Y-67379788D01*
X88570109Y-67379786D01*
X88695048Y-67207820D01*
X88695050Y-67207817D01*
X88695051Y-67207816D01*
X88699514Y-67199054D01*
X88747488Y-67148259D01*
X88815308Y-67131463D01*
X88881444Y-67153999D01*
X88920486Y-67199056D01*
X88924951Y-67207820D01*
X89049890Y-67379786D01*
X89200213Y-67530109D01*
X89372179Y-67655048D01*
X89372181Y-67655049D01*
X89372184Y-67655051D01*
X89561588Y-67751557D01*
X89763757Y-67817246D01*
X89973713Y-67850500D01*
X89973714Y-67850500D01*
X90186286Y-67850500D01*
X90186287Y-67850500D01*
X90396243Y-67817246D01*
X90598412Y-67751557D01*
X90787816Y-67655051D01*
X90834930Y-67620821D01*
X90959786Y-67530109D01*
X90959788Y-67530106D01*
X90959792Y-67530104D01*
X91110104Y-67379792D01*
X91110106Y-67379788D01*
X91110109Y-67379786D01*
X91235048Y-67207820D01*
X91235050Y-67207817D01*
X91235051Y-67207816D01*
X91239514Y-67199054D01*
X91287488Y-67148259D01*
X91355308Y-67131463D01*
X91421444Y-67153999D01*
X91460486Y-67199056D01*
X91464951Y-67207820D01*
X91589890Y-67379786D01*
X91740213Y-67530109D01*
X91912179Y-67655048D01*
X91912181Y-67655049D01*
X91912184Y-67655051D01*
X92101588Y-67751557D01*
X92303757Y-67817246D01*
X92513713Y-67850500D01*
X92513714Y-67850500D01*
X92726286Y-67850500D01*
X92726287Y-67850500D01*
X92936243Y-67817246D01*
X93138412Y-67751557D01*
X93327816Y-67655051D01*
X93374930Y-67620821D01*
X93499786Y-67530109D01*
X93499788Y-67530106D01*
X93499792Y-67530104D01*
X93650104Y-67379792D01*
X93650106Y-67379788D01*
X93650109Y-67379786D01*
X93775048Y-67207820D01*
X93775050Y-67207817D01*
X93775051Y-67207816D01*
X93871557Y-67018412D01*
X93937246Y-66816243D01*
X93970500Y-66606287D01*
X93970500Y-66393713D01*
X93937246Y-66183757D01*
X93871557Y-65981588D01*
X93775051Y-65792184D01*
X93775049Y-65792181D01*
X93775048Y-65792179D01*
X93650109Y-65620213D01*
X93499786Y-65469890D01*
X93327820Y-65344951D01*
X93138414Y-65248444D01*
X93138413Y-65248443D01*
X93138412Y-65248443D01*
X92936243Y-65182754D01*
X92936241Y-65182753D01*
X92936240Y-65182753D01*
X92757344Y-65154419D01*
X92726287Y-65149500D01*
X92513713Y-65149500D01*
X92482656Y-65154419D01*
X92303760Y-65182753D01*
X92101585Y-65248444D01*
X91912179Y-65344951D01*
X91740213Y-65469890D01*
X91589890Y-65620213D01*
X91464949Y-65792182D01*
X91460484Y-65800946D01*
X91412509Y-65851742D01*
X91344688Y-65868536D01*
X91278553Y-65845998D01*
X91239516Y-65800946D01*
X91235050Y-65792182D01*
X91110109Y-65620213D01*
X90959786Y-65469890D01*
X90787820Y-65344951D01*
X90598414Y-65248444D01*
X90598413Y-65248443D01*
X90598412Y-65248443D01*
X90396243Y-65182754D01*
X90396241Y-65182753D01*
X90396240Y-65182753D01*
X90217344Y-65154419D01*
X90186287Y-65149500D01*
X89973713Y-65149500D01*
X89942656Y-65154419D01*
X89763760Y-65182753D01*
X89561585Y-65248444D01*
X89372179Y-65344951D01*
X89200213Y-65469890D01*
X89049890Y-65620213D01*
X88924949Y-65792182D01*
X88920484Y-65800946D01*
X88872509Y-65851742D01*
X88804688Y-65868536D01*
X88738553Y-65845998D01*
X88699516Y-65800946D01*
X88695050Y-65792182D01*
X88570109Y-65620213D01*
X88419786Y-65469890D01*
X88247820Y-65344951D01*
X88058414Y-65248444D01*
X88058413Y-65248443D01*
X88058412Y-65248443D01*
X87856243Y-65182754D01*
X87856241Y-65182753D01*
X87856240Y-65182753D01*
X87677344Y-65154419D01*
X87646287Y-65149500D01*
X87433713Y-65149500D01*
X87402656Y-65154419D01*
X87223760Y-65182753D01*
X87021585Y-65248444D01*
X86832180Y-65344951D01*
X86703427Y-65438495D01*
X86637621Y-65461975D01*
X86569567Y-65446149D01*
X86542861Y-65425858D01*
X85911731Y-64794727D01*
X85911730Y-64794726D01*
X85911726Y-64794723D01*
X85805184Y-64723535D01*
X85686801Y-64674499D01*
X85686795Y-64674497D01*
X85561128Y-64649500D01*
X85561126Y-64649500D01*
X81055931Y-64649500D01*
X81055929Y-64649500D01*
X80930261Y-64674497D01*
X80930255Y-64674499D01*
X80811870Y-64723535D01*
X80705331Y-64794722D01*
X80705324Y-64794728D01*
X80350710Y-65149342D01*
X80289387Y-65182827D01*
X80241245Y-65182315D01*
X80241055Y-65183516D01*
X80136111Y-65166894D01*
X80026287Y-65149500D01*
X79813713Y-65149500D01*
X79813709Y-65149500D01*
X79782651Y-65154419D01*
X79713357Y-65145464D01*
X79659905Y-65100468D01*
X79639266Y-65033717D01*
X79639253Y-65031946D01*
X79639253Y-63883743D01*
X79658938Y-63816704D01*
X79711742Y-63770949D01*
X79780900Y-63761005D01*
X79819548Y-63773258D01*
X79960776Y-63845218D01*
X79960778Y-63845218D01*
X79960781Y-63845220D01*
X80035818Y-63869601D01*
X80155465Y-63908477D01*
X80227031Y-63919812D01*
X80357648Y-63940500D01*
X80357649Y-63940500D01*
X80562351Y-63940500D01*
X80562352Y-63940500D01*
X80764534Y-63908477D01*
X80959219Y-63845220D01*
X81141610Y-63752287D01*
X81247733Y-63675185D01*
X81307213Y-63631971D01*
X81307215Y-63631968D01*
X81307219Y-63631966D01*
X81451966Y-63487219D01*
X81451968Y-63487215D01*
X81451971Y-63487213D01*
X81572284Y-63321614D01*
X81572286Y-63321611D01*
X81572287Y-63321610D01*
X81619516Y-63228917D01*
X81667489Y-63178123D01*
X81735310Y-63161328D01*
X81801445Y-63183865D01*
X81840483Y-63228917D01*
X81876453Y-63299511D01*
X81887715Y-63321614D01*
X82008028Y-63487213D01*
X82152786Y-63631971D01*
X82277343Y-63722465D01*
X82318390Y-63752287D01*
X82434607Y-63811503D01*
X82500776Y-63845218D01*
X82500778Y-63845218D01*
X82500781Y-63845220D01*
X82575818Y-63869601D01*
X82695465Y-63908477D01*
X82767031Y-63919812D01*
X82897648Y-63940500D01*
X82897649Y-63940500D01*
X83102351Y-63940500D01*
X83102352Y-63940500D01*
X83304534Y-63908477D01*
X83499219Y-63845220D01*
X83681610Y-63752287D01*
X83787733Y-63675185D01*
X83847213Y-63631971D01*
X83847215Y-63631968D01*
X83847219Y-63631966D01*
X83991966Y-63487219D01*
X83991968Y-63487215D01*
X83991971Y-63487213D01*
X84112284Y-63321614D01*
X84112286Y-63321611D01*
X84112287Y-63321610D01*
X84159516Y-63228917D01*
X84207489Y-63178123D01*
X84275310Y-63161328D01*
X84341445Y-63183865D01*
X84380483Y-63228917D01*
X84416453Y-63299511D01*
X84427715Y-63321614D01*
X84548028Y-63487213D01*
X84692786Y-63631971D01*
X84817343Y-63722465D01*
X84858390Y-63752287D01*
X84974607Y-63811503D01*
X85040776Y-63845218D01*
X85040778Y-63845218D01*
X85040781Y-63845220D01*
X85115818Y-63869601D01*
X85235465Y-63908477D01*
X85307031Y-63919812D01*
X85437648Y-63940500D01*
X85437649Y-63940500D01*
X85642351Y-63940500D01*
X85642352Y-63940500D01*
X85844534Y-63908477D01*
X86039219Y-63845220D01*
X86221610Y-63752287D01*
X86327733Y-63675185D01*
X86387213Y-63631971D01*
X86387215Y-63631968D01*
X86387219Y-63631966D01*
X86531966Y-63487219D01*
X86531968Y-63487215D01*
X86531971Y-63487213D01*
X86652286Y-63321611D01*
X86652287Y-63321610D01*
X86696058Y-63235703D01*
X86744030Y-63184909D01*
X86811851Y-63168113D01*
X86877986Y-63190650D01*
X86915900Y-63233545D01*
X86951158Y-63299506D01*
X86997533Y-63368912D01*
X86997534Y-63368913D01*
X87597037Y-62769409D01*
X87614075Y-62832993D01*
X87679901Y-62947007D01*
X87772993Y-63040099D01*
X87887007Y-63105925D01*
X87950590Y-63122962D01*
X87351085Y-63722465D01*
X87420493Y-63768841D01*
X87507801Y-63815509D01*
X87653387Y-63875814D01*
X87748135Y-63904555D01*
X87902699Y-63935298D01*
X88001210Y-63945000D01*
X88158790Y-63945000D01*
X88257299Y-63935298D01*
X88257302Y-63935298D01*
X88411864Y-63904555D01*
X88506612Y-63875814D01*
X88652198Y-63815509D01*
X88739501Y-63768844D01*
X88739511Y-63768838D01*
X88808912Y-63722465D01*
X88209409Y-63122962D01*
X88272993Y-63105925D01*
X88387007Y-63040099D01*
X88480099Y-62947007D01*
X88545925Y-62832993D01*
X88562962Y-62769409D01*
X89162465Y-63368912D01*
X89208838Y-63299511D01*
X89208849Y-63299493D01*
X89244099Y-63233546D01*
X89293061Y-63183702D01*
X89361199Y-63168241D01*
X89426879Y-63192073D01*
X89463941Y-63235702D01*
X89494976Y-63296613D01*
X89507715Y-63321614D01*
X89628028Y-63487213D01*
X89772786Y-63631971D01*
X89897343Y-63722465D01*
X89938390Y-63752287D01*
X90054607Y-63811503D01*
X90120776Y-63845218D01*
X90120778Y-63845218D01*
X90120781Y-63845220D01*
X90195818Y-63869601D01*
X90315465Y-63908477D01*
X90387031Y-63919812D01*
X90517648Y-63940500D01*
X90517649Y-63940500D01*
X90722351Y-63940500D01*
X90722352Y-63940500D01*
X90924534Y-63908477D01*
X91119219Y-63845220D01*
X91301610Y-63752287D01*
X91407733Y-63675185D01*
X91467213Y-63631971D01*
X91467215Y-63631968D01*
X91467219Y-63631966D01*
X91611966Y-63487219D01*
X91670654Y-63406440D01*
X91725984Y-63363774D01*
X91795597Y-63357794D01*
X91857392Y-63390400D01*
X91889358Y-63442435D01*
X91916520Y-63529602D01*
X91916521Y-63529604D01*
X91916522Y-63529606D01*
X92000663Y-63668791D01*
X92004530Y-63675188D01*
X92124811Y-63795469D01*
X92124813Y-63795470D01*
X92124815Y-63795472D01*
X92270394Y-63883478D01*
X92432804Y-63934086D01*
X92503384Y-63940500D01*
X92503387Y-63940500D01*
X93816613Y-63940500D01*
X93816616Y-63940500D01*
X93887196Y-63934086D01*
X94049606Y-63883478D01*
X94195185Y-63795472D01*
X94315472Y-63675185D01*
X94403478Y-63529606D01*
X94454086Y-63367196D01*
X94460500Y-63296616D01*
X94460500Y-61983384D01*
X94454086Y-61912804D01*
X94403478Y-61750394D01*
X94315472Y-61604815D01*
X94315470Y-61604813D01*
X94315469Y-61604811D01*
X94195188Y-61484530D01*
X94049606Y-61396522D01*
X93990849Y-61378213D01*
X93887196Y-61345914D01*
X93887194Y-61345913D01*
X93887192Y-61345913D01*
X93837778Y-61341423D01*
X93816616Y-61339500D01*
X92503384Y-61339500D01*
X92484145Y-61341248D01*
X92432807Y-61345913D01*
X92270393Y-61396522D01*
X92124811Y-61484530D01*
X92004530Y-61604811D01*
X91978401Y-61648034D01*
X91941308Y-61709394D01*
X91916521Y-61750396D01*
X91889358Y-61837565D01*
X91850620Y-61895712D01*
X91786595Y-61923686D01*
X91717610Y-61912604D01*
X91670655Y-61873559D01*
X91611971Y-61792786D01*
X91467213Y-61648028D01*
X91301613Y-61527715D01*
X91301612Y-61527714D01*
X91301610Y-61527713D01*
X91244653Y-61498691D01*
X91119223Y-61434781D01*
X90924534Y-61371522D01*
X90749995Y-61343878D01*
X90722352Y-61339500D01*
X90517648Y-61339500D01*
X90493329Y-61343351D01*
X90315465Y-61371522D01*
X90120776Y-61434781D01*
X89938386Y-61527715D01*
X89772786Y-61648028D01*
X89628032Y-61792782D01*
X89628026Y-61792789D01*
X89572231Y-61869584D01*
X89516901Y-61912250D01*
X89447288Y-61918228D01*
X89385493Y-61885622D01*
X89351765Y-61827361D01*
X89346558Y-61806957D01*
X89323136Y-61750415D01*
X89323135Y-61750415D01*
X88562962Y-62510589D01*
X88545925Y-62447007D01*
X88480099Y-62332993D01*
X88387007Y-62239901D01*
X88272993Y-62174075D01*
X88209410Y-62157037D01*
X88969583Y-61396863D01*
X88969583Y-61396862D01*
X88913052Y-61373447D01*
X88913035Y-61373440D01*
X88862053Y-61355455D01*
X88719780Y-61335000D01*
X87440214Y-61335000D01*
X87386237Y-61337893D01*
X87386235Y-61337893D01*
X87246969Y-61373438D01*
X87246956Y-61373442D01*
X87190415Y-61396862D01*
X87950590Y-62157037D01*
X87887007Y-62174075D01*
X87772993Y-62239901D01*
X87679901Y-62332993D01*
X87614075Y-62447007D01*
X87597037Y-62510590D01*
X86836862Y-61750415D01*
X86813449Y-61806940D01*
X86803329Y-61835626D01*
X86762461Y-61892297D01*
X86697442Y-61917877D01*
X86628915Y-61904244D01*
X86586075Y-61867255D01*
X86531971Y-61792786D01*
X86387213Y-61648028D01*
X86235763Y-61537995D01*
X86221613Y-61527715D01*
X86221612Y-61527714D01*
X86221610Y-61527713D01*
X86164653Y-61498691D01*
X86039223Y-61434781D01*
X85844534Y-61371522D01*
X85669995Y-61343878D01*
X85642352Y-61339500D01*
X85437648Y-61339500D01*
X85413329Y-61343351D01*
X85235465Y-61371522D01*
X85040776Y-61434781D01*
X84858386Y-61527715D01*
X84692786Y-61648028D01*
X84548028Y-61792786D01*
X84427715Y-61958386D01*
X84380485Y-62051080D01*
X84332510Y-62101876D01*
X84264689Y-62118671D01*
X84198554Y-62096134D01*
X84159515Y-62051080D01*
X84151056Y-62034478D01*
X84112287Y-61958390D01*
X84087073Y-61923686D01*
X83991971Y-61792786D01*
X83847213Y-61648028D01*
X83681613Y-61527715D01*
X83681612Y-61527714D01*
X83681610Y-61527713D01*
X83624653Y-61498691D01*
X83499223Y-61434781D01*
X83304534Y-61371522D01*
X83129995Y-61343878D01*
X83102352Y-61339500D01*
X82897648Y-61339500D01*
X82873329Y-61343351D01*
X82695465Y-61371522D01*
X82500776Y-61434781D01*
X82318386Y-61527715D01*
X82152786Y-61648028D01*
X82008028Y-61792786D01*
X81887715Y-61958386D01*
X81840485Y-62051080D01*
X81792510Y-62101876D01*
X81724689Y-62118671D01*
X81658554Y-62096134D01*
X81619515Y-62051080D01*
X81611056Y-62034478D01*
X81572287Y-61958390D01*
X81547073Y-61923686D01*
X81451971Y-61792786D01*
X81307213Y-61648028D01*
X81141613Y-61527715D01*
X81141612Y-61527714D01*
X81141610Y-61527713D01*
X81084653Y-61498691D01*
X80959223Y-61434781D01*
X80846305Y-61398092D01*
X80788630Y-61358654D01*
X80761432Y-61294295D01*
X80769091Y-61239664D01*
X80767969Y-61239324D01*
X80769731Y-61233509D01*
X80769737Y-61233497D01*
X80800500Y-61078842D01*
X80800500Y-60921158D01*
X80800500Y-60921155D01*
X80800499Y-60921153D01*
X80782599Y-60831166D01*
X80769737Y-60766503D01*
X80763239Y-60750816D01*
X80709397Y-60620827D01*
X80709390Y-60620814D01*
X80621789Y-60489711D01*
X80621786Y-60489707D01*
X80510292Y-60378213D01*
X80510288Y-60378210D01*
X80379185Y-60290609D01*
X80379172Y-60290602D01*
X80254738Y-60239061D01*
X80200334Y-60195221D01*
X80178269Y-60128926D01*
X80195548Y-60061227D01*
X80246685Y-60013616D01*
X80302190Y-60000500D01*
X88098543Y-60000500D01*
X88228582Y-59974632D01*
X88291835Y-59962051D01*
X88473914Y-59886632D01*
X88637782Y-59777139D01*
X88777139Y-59637782D01*
X88886632Y-59473914D01*
X88962051Y-59291835D01*
X88983014Y-59186449D01*
X89000500Y-59098543D01*
X89000500Y-57137270D01*
X89020185Y-57070231D01*
X89072989Y-57024476D01*
X89142147Y-57014532D01*
X89205703Y-57043557D01*
X89212181Y-57049589D01*
X89234213Y-57071621D01*
X89383904Y-57180378D01*
X89429898Y-57203813D01*
X89548764Y-57264379D01*
X89548767Y-57264380D01*
X89636750Y-57292967D01*
X89724736Y-57321555D01*
X89907486Y-57350500D01*
X89907487Y-57350500D01*
X90092513Y-57350500D01*
X90092514Y-57350500D01*
X90275264Y-57321555D01*
X90451235Y-57264379D01*
X90616096Y-57180378D01*
X90765787Y-57071621D01*
X90896621Y-56940787D01*
X91005378Y-56791096D01*
X91089379Y-56626235D01*
X91133738Y-56489711D01*
X91146555Y-56450265D01*
X91159472Y-56368713D01*
X91679500Y-56368713D01*
X91679500Y-56581286D01*
X91712730Y-56791096D01*
X91712754Y-56791243D01*
X91776549Y-56987584D01*
X91778444Y-56993414D01*
X91874951Y-57182820D01*
X91999890Y-57354786D01*
X92150213Y-57505109D01*
X92322179Y-57630048D01*
X92322181Y-57630049D01*
X92322184Y-57630051D01*
X92511588Y-57726557D01*
X92713757Y-57792246D01*
X92923713Y-57825500D01*
X92923714Y-57825500D01*
X93136286Y-57825500D01*
X93136287Y-57825500D01*
X93346243Y-57792246D01*
X93548412Y-57726557D01*
X93737816Y-57630051D01*
X93778490Y-57600500D01*
X93909786Y-57505109D01*
X93909788Y-57505106D01*
X93909792Y-57505104D01*
X94060104Y-57354792D01*
X94060106Y-57354788D01*
X94060109Y-57354786D01*
X94185048Y-57182820D01*
X94185047Y-57182820D01*
X94185051Y-57182816D01*
X94281557Y-56993412D01*
X94347246Y-56791243D01*
X94380500Y-56581287D01*
X94380500Y-56368713D01*
X94347246Y-56158757D01*
X94281557Y-55956588D01*
X94185051Y-55767184D01*
X94185049Y-55767181D01*
X94185048Y-55767179D01*
X94060109Y-55595213D01*
X93909786Y-55444890D01*
X93737820Y-55319951D01*
X93548414Y-55223444D01*
X93548413Y-55223443D01*
X93548412Y-55223443D01*
X93346243Y-55157754D01*
X93346241Y-55157753D01*
X93346240Y-55157753D01*
X93184957Y-55132208D01*
X93136287Y-55124500D01*
X92923713Y-55124500D01*
X92875042Y-55132208D01*
X92713760Y-55157753D01*
X92511585Y-55223444D01*
X92322179Y-55319951D01*
X92150213Y-55444890D01*
X91999890Y-55595213D01*
X91874951Y-55767179D01*
X91778444Y-55956585D01*
X91712753Y-56158760D01*
X91679500Y-56368713D01*
X91159472Y-56368713D01*
X91163316Y-56344443D01*
X91163316Y-56344442D01*
X91175500Y-56267514D01*
X91175500Y-56082486D01*
X91168062Y-56035523D01*
X91146555Y-55899736D01*
X91095994Y-55744124D01*
X91089380Y-55723767D01*
X91089379Y-55723764D01*
X91017060Y-55581831D01*
X91005378Y-55558904D01*
X90896621Y-55409213D01*
X90765787Y-55278379D01*
X90616096Y-55169622D01*
X90592802Y-55157753D01*
X90451235Y-55085620D01*
X90451232Y-55085619D01*
X90275265Y-55028445D01*
X90183889Y-55013972D01*
X90092514Y-54999500D01*
X89907486Y-54999500D01*
X89846569Y-55009148D01*
X89724734Y-55028445D01*
X89548767Y-55085619D01*
X89548764Y-55085620D01*
X89383903Y-55169622D01*
X89309826Y-55223443D01*
X89234213Y-55278379D01*
X89234211Y-55278381D01*
X89234210Y-55278381D01*
X89212181Y-55300411D01*
X89150858Y-55333896D01*
X89081166Y-55328912D01*
X89025233Y-55287040D01*
X89000816Y-55221576D01*
X89000500Y-55212730D01*
X89000500Y-52287270D01*
X89020185Y-52220231D01*
X89072989Y-52174476D01*
X89142147Y-52164532D01*
X89205703Y-52193557D01*
X89212181Y-52199589D01*
X89234213Y-52221621D01*
X89383904Y-52330378D01*
X89434865Y-52356344D01*
X89548764Y-52414379D01*
X89548767Y-52414380D01*
X89636750Y-52442967D01*
X89724736Y-52471555D01*
X89907486Y-52500500D01*
X89907487Y-52500500D01*
X90092513Y-52500500D01*
X90092514Y-52500500D01*
X90275264Y-52471555D01*
X90451235Y-52414379D01*
X90616096Y-52330378D01*
X90765787Y-52221621D01*
X90896621Y-52090787D01*
X91005378Y-51941096D01*
X91089379Y-51776235D01*
X91146555Y-51600264D01*
X91175500Y-51417514D01*
X91175500Y-51232486D01*
X91146555Y-51049736D01*
X91104396Y-50919983D01*
X91089380Y-50873767D01*
X91089378Y-50873764D01*
X91067485Y-50830795D01*
X91054589Y-50762125D01*
X91080866Y-50697385D01*
X91137972Y-50657128D01*
X91177970Y-50650500D01*
X91328243Y-50650500D01*
X91375695Y-50659938D01*
X91427516Y-50681404D01*
X91495596Y-50694946D01*
X91591309Y-50713985D01*
X91653220Y-50746370D01*
X91687794Y-50807085D01*
X91689591Y-50854999D01*
X91679500Y-50918712D01*
X91679500Y-51131286D01*
X91710363Y-51326151D01*
X91712754Y-51341243D01*
X91770666Y-51519478D01*
X91778444Y-51543414D01*
X91874951Y-51732820D01*
X91999890Y-51904786D01*
X92150213Y-52055109D01*
X92322179Y-52180048D01*
X92322181Y-52180049D01*
X92322184Y-52180051D01*
X92511588Y-52276557D01*
X92713757Y-52342246D01*
X92923713Y-52375500D01*
X92923714Y-52375500D01*
X93136286Y-52375500D01*
X93136287Y-52375500D01*
X93346243Y-52342246D01*
X93548412Y-52276557D01*
X93737816Y-52180051D01*
X93780227Y-52149238D01*
X93909786Y-52055109D01*
X93909788Y-52055106D01*
X93909792Y-52055104D01*
X94060104Y-51904792D01*
X94060106Y-51904788D01*
X94060109Y-51904786D01*
X94185048Y-51732820D01*
X94185047Y-51732820D01*
X94185051Y-51732816D01*
X94281557Y-51543412D01*
X94347246Y-51341243D01*
X94380500Y-51131287D01*
X94380500Y-50918713D01*
X94347246Y-50708757D01*
X94281557Y-50506588D01*
X94185051Y-50317184D01*
X94185049Y-50317181D01*
X94185048Y-50317179D01*
X94060109Y-50145213D01*
X93909786Y-49994890D01*
X93737820Y-49869951D01*
X93548416Y-49773444D01*
X93387453Y-49721144D01*
X93329778Y-49681706D01*
X93302580Y-49617347D01*
X93314495Y-49548501D01*
X93338088Y-49515535D01*
X93797778Y-49055846D01*
X93797782Y-49055844D01*
X93937139Y-48916487D01*
X94046632Y-48752619D01*
X94102223Y-48618409D01*
X94122051Y-48570541D01*
X94160500Y-48377245D01*
X94160500Y-48180165D01*
X94160500Y-45735761D01*
X94180185Y-45668722D01*
X94184165Y-45662899D01*
X94272287Y-45541610D01*
X94365220Y-45359219D01*
X94428477Y-45164534D01*
X94460500Y-44962352D01*
X94460500Y-44757648D01*
X94428477Y-44555466D01*
X94427673Y-44552993D01*
X94365218Y-44360776D01*
X94316057Y-44264294D01*
X94272287Y-44178390D01*
X94237919Y-44131086D01*
X94151971Y-44012786D01*
X94007213Y-43868028D01*
X93841613Y-43747715D01*
X93841612Y-43747714D01*
X93841610Y-43747713D01*
X93775305Y-43713929D01*
X93659223Y-43654781D01*
X93464534Y-43591522D01*
X93289995Y-43563878D01*
X93262352Y-43559500D01*
X93057648Y-43559500D01*
X93033329Y-43563351D01*
X92855465Y-43591522D01*
X92660776Y-43654781D01*
X92478386Y-43747715D01*
X92312786Y-43868028D01*
X92168028Y-44012786D01*
X92047715Y-44178386D01*
X92000485Y-44271080D01*
X91952510Y-44321876D01*
X91884689Y-44338671D01*
X91818554Y-44316134D01*
X91779515Y-44271080D01*
X91775782Y-44263754D01*
X91732287Y-44178390D01*
X91697919Y-44131086D01*
X91611971Y-44012786D01*
X91467213Y-43868028D01*
X91301613Y-43747715D01*
X91301612Y-43747714D01*
X91301610Y-43747713D01*
X91235305Y-43713929D01*
X91119223Y-43654781D01*
X90924534Y-43591522D01*
X90749995Y-43563878D01*
X90722352Y-43559500D01*
X90517648Y-43559500D01*
X90493329Y-43563351D01*
X90315465Y-43591522D01*
X90120776Y-43654781D01*
X89938386Y-43747715D01*
X89772786Y-43868028D01*
X89628028Y-44012786D01*
X89507715Y-44178386D01*
X89463942Y-44264295D01*
X89415967Y-44315091D01*
X89348146Y-44331886D01*
X89282011Y-44309348D01*
X89244099Y-44266454D01*
X89208841Y-44200493D01*
X89162465Y-44131086D01*
X89162465Y-44131085D01*
X88562962Y-44730589D01*
X88545925Y-44667007D01*
X88480099Y-44552993D01*
X88387007Y-44459901D01*
X88272993Y-44394075D01*
X88209410Y-44377037D01*
X88808913Y-43777534D01*
X88808912Y-43777533D01*
X88739506Y-43731158D01*
X88652198Y-43684490D01*
X88506612Y-43624185D01*
X88411864Y-43595444D01*
X88257300Y-43564701D01*
X88158790Y-43555000D01*
X88001210Y-43555000D01*
X87902700Y-43564701D01*
X87902697Y-43564701D01*
X87748135Y-43595444D01*
X87653387Y-43624185D01*
X87507801Y-43684490D01*
X87420488Y-43731161D01*
X87351086Y-43777532D01*
X87351085Y-43777533D01*
X87950590Y-44377037D01*
X87887007Y-44394075D01*
X87772993Y-44459901D01*
X87679901Y-44552993D01*
X87614075Y-44667007D01*
X87597037Y-44730589D01*
X86997533Y-44131085D01*
X86997532Y-44131086D01*
X86951160Y-44200489D01*
X86951157Y-44200494D01*
X86915899Y-44266455D01*
X86866936Y-44316299D01*
X86798798Y-44331758D01*
X86733119Y-44307925D01*
X86696057Y-44264294D01*
X86695782Y-44263755D01*
X86652287Y-44178390D01*
X86652286Y-44178388D01*
X86531971Y-44012786D01*
X86387213Y-43868028D01*
X86221613Y-43747715D01*
X86221612Y-43747714D01*
X86221610Y-43747713D01*
X86155305Y-43713929D01*
X86039223Y-43654781D01*
X85844534Y-43591522D01*
X85669995Y-43563878D01*
X85642352Y-43559500D01*
X85437648Y-43559500D01*
X85413329Y-43563351D01*
X85235465Y-43591522D01*
X85040776Y-43654781D01*
X84858386Y-43747715D01*
X84692786Y-43868028D01*
X84548028Y-44012786D01*
X84427715Y-44178386D01*
X84380485Y-44271080D01*
X84332510Y-44321876D01*
X84264689Y-44338671D01*
X84198554Y-44316134D01*
X84159515Y-44271080D01*
X84155782Y-44263754D01*
X84112287Y-44178390D01*
X84077919Y-44131086D01*
X83991971Y-44012786D01*
X83847213Y-43868028D01*
X83681613Y-43747715D01*
X83681612Y-43747714D01*
X83681610Y-43747713D01*
X83615305Y-43713929D01*
X83499223Y-43654781D01*
X83304534Y-43591522D01*
X83129995Y-43563878D01*
X83102352Y-43559500D01*
X82897648Y-43559500D01*
X82873329Y-43563351D01*
X82695465Y-43591522D01*
X82500776Y-43654781D01*
X82318386Y-43747715D01*
X82152786Y-43868028D01*
X82008028Y-44012786D01*
X81887715Y-44178386D01*
X81840485Y-44271080D01*
X81792510Y-44321876D01*
X81724689Y-44338671D01*
X81658554Y-44316134D01*
X81619515Y-44271080D01*
X81615782Y-44263754D01*
X81572287Y-44178390D01*
X81537919Y-44131086D01*
X81451971Y-44012786D01*
X81307217Y-43868032D01*
X81307212Y-43868028D01*
X81193971Y-43785754D01*
X81151305Y-43730424D01*
X81145326Y-43660811D01*
X81177931Y-43599016D01*
X81234762Y-43565661D01*
X81257471Y-43559577D01*
X81268951Y-43552948D01*
X81311790Y-43528216D01*
X81311791Y-43528215D01*
X81394402Y-43480520D01*
X81506206Y-43368716D01*
X81506206Y-43368714D01*
X81516410Y-43358511D01*
X81516413Y-43358506D01*
X82088102Y-42786819D01*
X82149425Y-42753334D01*
X82175783Y-42750500D01*
X83763331Y-42750500D01*
X83763347Y-42750501D01*
X83770943Y-42750501D01*
X83929054Y-42750501D01*
X83929057Y-42750501D01*
X84081785Y-42709577D01*
X84143728Y-42673814D01*
X84218716Y-42630520D01*
X84330520Y-42518716D01*
X84330520Y-42518714D01*
X84340724Y-42508511D01*
X84340728Y-42508506D01*
X84515478Y-42333755D01*
X84576799Y-42300272D01*
X84641473Y-42303506D01*
X84683757Y-42317246D01*
X84893713Y-42350500D01*
X84893714Y-42350500D01*
X85106286Y-42350500D01*
X85106287Y-42350500D01*
X85316243Y-42317246D01*
X85518412Y-42251557D01*
X85707816Y-42155051D01*
X85767220Y-42111892D01*
X85879786Y-42030109D01*
X85879788Y-42030106D01*
X85879792Y-42030104D01*
X86030104Y-41879792D01*
X86030106Y-41879788D01*
X86030109Y-41879786D01*
X86155048Y-41707820D01*
X86155047Y-41707820D01*
X86155051Y-41707816D01*
X86159514Y-41699054D01*
X86207488Y-41648259D01*
X86275308Y-41631463D01*
X86341444Y-41653999D01*
X86380486Y-41699056D01*
X86384951Y-41707820D01*
X86509890Y-41879786D01*
X86660213Y-42030109D01*
X86832179Y-42155048D01*
X86832181Y-42155049D01*
X86832184Y-42155051D01*
X87021588Y-42251557D01*
X87223757Y-42317246D01*
X87433713Y-42350500D01*
X87433714Y-42350500D01*
X87646286Y-42350500D01*
X87646287Y-42350500D01*
X87856243Y-42317246D01*
X88058412Y-42251557D01*
X88247816Y-42155051D01*
X88307220Y-42111892D01*
X88419786Y-42030109D01*
X88419788Y-42030106D01*
X88419792Y-42030104D01*
X88570104Y-41879792D01*
X88570106Y-41879788D01*
X88570109Y-41879786D01*
X88695048Y-41707820D01*
X88695047Y-41707820D01*
X88695051Y-41707816D01*
X88699514Y-41699054D01*
X88747488Y-41648259D01*
X88815308Y-41631463D01*
X88881444Y-41653999D01*
X88920486Y-41699056D01*
X88924951Y-41707820D01*
X89049890Y-41879786D01*
X89200213Y-42030109D01*
X89372179Y-42155048D01*
X89372181Y-42155049D01*
X89372184Y-42155051D01*
X89561588Y-42251557D01*
X89763757Y-42317246D01*
X89973713Y-42350500D01*
X89973714Y-42350500D01*
X90186286Y-42350500D01*
X90186287Y-42350500D01*
X90396243Y-42317246D01*
X90598412Y-42251557D01*
X90787816Y-42155051D01*
X90847220Y-42111892D01*
X90959786Y-42030109D01*
X90959788Y-42030106D01*
X90959792Y-42030104D01*
X91110104Y-41879792D01*
X91110106Y-41879788D01*
X91110109Y-41879786D01*
X91195890Y-41761717D01*
X91235051Y-41707816D01*
X91239793Y-41698508D01*
X91287763Y-41647711D01*
X91355583Y-41630911D01*
X91421719Y-41653445D01*
X91460763Y-41698500D01*
X91465373Y-41707547D01*
X91504728Y-41761716D01*
X92137037Y-41129408D01*
X92154075Y-41192993D01*
X92219901Y-41307007D01*
X92312993Y-41400099D01*
X92427007Y-41465925D01*
X92490590Y-41482962D01*
X91858282Y-42115269D01*
X91858282Y-42115270D01*
X91912449Y-42154624D01*
X92101782Y-42251095D01*
X92303870Y-42316757D01*
X92513754Y-42350000D01*
X92726246Y-42350000D01*
X92936127Y-42316757D01*
X92936130Y-42316757D01*
X93138217Y-42251095D01*
X93327554Y-42154622D01*
X93381716Y-42115270D01*
X93381717Y-42115270D01*
X92749408Y-41482962D01*
X92812993Y-41465925D01*
X92927007Y-41400099D01*
X93020099Y-41307007D01*
X93085925Y-41192993D01*
X93102962Y-41129409D01*
X93735270Y-41761717D01*
X93735270Y-41761716D01*
X93774622Y-41707554D01*
X93871095Y-41518217D01*
X93936757Y-41316130D01*
X93936757Y-41316127D01*
X93970000Y-41106246D01*
X93970000Y-40893753D01*
X93936757Y-40683872D01*
X93936757Y-40683869D01*
X93871095Y-40481782D01*
X93774624Y-40292449D01*
X93735270Y-40238282D01*
X93735269Y-40238282D01*
X93102962Y-40870590D01*
X93085925Y-40807007D01*
X93020099Y-40692993D01*
X92927007Y-40599901D01*
X92812993Y-40534075D01*
X92749409Y-40517037D01*
X93381716Y-39884728D01*
X93327550Y-39845375D01*
X93138217Y-39748904D01*
X92936129Y-39683242D01*
X92726246Y-39650000D01*
X92513754Y-39650000D01*
X92303872Y-39683242D01*
X92303869Y-39683242D01*
X92101782Y-39748904D01*
X91912439Y-39845380D01*
X91858282Y-39884727D01*
X91858282Y-39884728D01*
X92490591Y-40517037D01*
X92427007Y-40534075D01*
X92312993Y-40599901D01*
X92219901Y-40692993D01*
X92154075Y-40807007D01*
X92137037Y-40870591D01*
X91504728Y-40238282D01*
X91504727Y-40238282D01*
X91465380Y-40292440D01*
X91465376Y-40292446D01*
X91460760Y-40301505D01*
X91412781Y-40352297D01*
X91344959Y-40369087D01*
X91278826Y-40346543D01*
X91239794Y-40301493D01*
X91235051Y-40292184D01*
X91235049Y-40292181D01*
X91235048Y-40292179D01*
X91110109Y-40120213D01*
X90959786Y-39969890D01*
X90787820Y-39844951D01*
X90598414Y-39748444D01*
X90598413Y-39748443D01*
X90598412Y-39748443D01*
X90396243Y-39682754D01*
X90396241Y-39682753D01*
X90396240Y-39682753D01*
X90234957Y-39657208D01*
X90186287Y-39649500D01*
X89973713Y-39649500D01*
X89925042Y-39657208D01*
X89763760Y-39682753D01*
X89561585Y-39748444D01*
X89372179Y-39844951D01*
X89200213Y-39969890D01*
X89049890Y-40120213D01*
X88924949Y-40292182D01*
X88920484Y-40300946D01*
X88872509Y-40351742D01*
X88804688Y-40368536D01*
X88738553Y-40345998D01*
X88699516Y-40300946D01*
X88695050Y-40292182D01*
X88570109Y-40120213D01*
X88419786Y-39969890D01*
X88247820Y-39844951D01*
X88058414Y-39748444D01*
X88058413Y-39748443D01*
X88058412Y-39748443D01*
X87856243Y-39682754D01*
X87856241Y-39682753D01*
X87856240Y-39682753D01*
X87694957Y-39657208D01*
X87646287Y-39649500D01*
X87433713Y-39649500D01*
X87385042Y-39657208D01*
X87223760Y-39682753D01*
X87021585Y-39748444D01*
X86832179Y-39844951D01*
X86660213Y-39969890D01*
X86509890Y-40120213D01*
X86384949Y-40292182D01*
X86380484Y-40300946D01*
X86332509Y-40351742D01*
X86264688Y-40368536D01*
X86198553Y-40345998D01*
X86159516Y-40300946D01*
X86155050Y-40292182D01*
X86030109Y-40120213D01*
X85879786Y-39969890D01*
X85707820Y-39844951D01*
X85518414Y-39748444D01*
X85518413Y-39748443D01*
X85518412Y-39748443D01*
X85316243Y-39682754D01*
X85316241Y-39682753D01*
X85316240Y-39682753D01*
X85154957Y-39657208D01*
X85106287Y-39649500D01*
X84893713Y-39649500D01*
X84845042Y-39657208D01*
X84683760Y-39682753D01*
X84481585Y-39748444D01*
X84292179Y-39844951D01*
X84120213Y-39969890D01*
X83969890Y-40120213D01*
X83844949Y-40292182D01*
X83840484Y-40300946D01*
X83792509Y-40351742D01*
X83724688Y-40368536D01*
X83658553Y-40345998D01*
X83619516Y-40300946D01*
X83615050Y-40292182D01*
X83490109Y-40120213D01*
X83339786Y-39969890D01*
X83167820Y-39844951D01*
X82978414Y-39748444D01*
X82978413Y-39748443D01*
X82978412Y-39748443D01*
X82776243Y-39682754D01*
X82776241Y-39682753D01*
X82776240Y-39682753D01*
X82614957Y-39657208D01*
X82566287Y-39649500D01*
X82353713Y-39649500D01*
X82305042Y-39657208D01*
X82143760Y-39682753D01*
X81941585Y-39748444D01*
X81752179Y-39844951D01*
X81580213Y-39969890D01*
X81429890Y-40120213D01*
X81304949Y-40292182D01*
X81300484Y-40300946D01*
X81252509Y-40351742D01*
X81184688Y-40368536D01*
X81118553Y-40345998D01*
X81079516Y-40300946D01*
X81075050Y-40292182D01*
X80950109Y-40120213D01*
X80799786Y-39969890D01*
X80627820Y-39844951D01*
X80438414Y-39748444D01*
X80438413Y-39748443D01*
X80438412Y-39748443D01*
X80236243Y-39682754D01*
X80236241Y-39682753D01*
X80236240Y-39682753D01*
X80074957Y-39657208D01*
X80026287Y-39649500D01*
X79813713Y-39649500D01*
X79765042Y-39657208D01*
X79603760Y-39682753D01*
X79401585Y-39748444D01*
X79212179Y-39844951D01*
X79040213Y-39969890D01*
X78889890Y-40120213D01*
X78764949Y-40292182D01*
X78760484Y-40300946D01*
X78712509Y-40351742D01*
X78644688Y-40368536D01*
X78578553Y-40345998D01*
X78539516Y-40300946D01*
X78535050Y-40292182D01*
X78410109Y-40120213D01*
X78259786Y-39969890D01*
X78087820Y-39844951D01*
X77898414Y-39748444D01*
X77898413Y-39748443D01*
X77898412Y-39748443D01*
X77696243Y-39682754D01*
X77696241Y-39682753D01*
X77696240Y-39682753D01*
X77534957Y-39657208D01*
X77486287Y-39649500D01*
X77273713Y-39649500D01*
X77245006Y-39654046D01*
X77063757Y-39682753D01*
X77021473Y-39696492D01*
X76951632Y-39698486D01*
X76895476Y-39666241D01*
X76717590Y-39488355D01*
X76717588Y-39488352D01*
X76598717Y-39369481D01*
X76598712Y-39369477D01*
X76492449Y-39308127D01*
X76492447Y-39308126D01*
X76461787Y-39290424D01*
X76461786Y-39290423D01*
X76461785Y-39290423D01*
X76309057Y-39249499D01*
X76150943Y-39249499D01*
X76143347Y-39249499D01*
X76143331Y-39249500D01*
X75828051Y-39249500D01*
X75761012Y-39229815D01*
X75715257Y-39177011D01*
X75705313Y-39107853D01*
X75734338Y-39044297D01*
X75755162Y-39025184D01*
X75935010Y-38894517D01*
X76102017Y-38727510D01*
X76240843Y-38536433D01*
X76348068Y-38325992D01*
X76421053Y-38101368D01*
X76440074Y-37981273D01*
X76458000Y-37868097D01*
X76458000Y-37631902D01*
X76427083Y-37436704D01*
X76436037Y-37367411D01*
X76481034Y-37313959D01*
X76547785Y-37293319D01*
X76587875Y-37299375D01*
X76641373Y-37316758D01*
X76851254Y-37350000D01*
X77063746Y-37350000D01*
X77273627Y-37316757D01*
X77273630Y-37316757D01*
X77475717Y-37251095D01*
X77665054Y-37154622D01*
X77719216Y-37115270D01*
X77719217Y-37115270D01*
X77046085Y-36442138D01*
X77131194Y-36419333D01*
X77233806Y-36360090D01*
X77317590Y-36276306D01*
X77376833Y-36173694D01*
X77399638Y-36088585D01*
X78072770Y-36761717D01*
X78072770Y-36761716D01*
X78112122Y-36707554D01*
X78208595Y-36518217D01*
X78274257Y-36316130D01*
X78274258Y-36316126D01*
X78287727Y-36231085D01*
X78317656Y-36167950D01*
X78376967Y-36131018D01*
X78446830Y-36132016D01*
X78497881Y-36162801D01*
X78969735Y-36634655D01*
X78969764Y-36634686D01*
X79112217Y-36777139D01*
X79261820Y-36877100D01*
X79276086Y-36886632D01*
X79383218Y-36931007D01*
X79458164Y-36962051D01*
X79554812Y-36981275D01*
X79596769Y-36989621D01*
X79651458Y-37000500D01*
X79651459Y-37000500D01*
X79651460Y-37000500D01*
X79848540Y-37000500D01*
X79997300Y-37000500D01*
X80064339Y-37020185D01*
X80076865Y-37029493D01*
X80249679Y-37155048D01*
X80249681Y-37155049D01*
X80249684Y-37155051D01*
X80439088Y-37251557D01*
X80641257Y-37317246D01*
X80851213Y-37350500D01*
X80851214Y-37350500D01*
X81063786Y-37350500D01*
X81063787Y-37350500D01*
X81273743Y-37317246D01*
X81475912Y-37251557D01*
X81665316Y-37155051D01*
X81720070Y-37115270D01*
X81837286Y-37030109D01*
X81837288Y-37030106D01*
X81837292Y-37030104D01*
X81987604Y-36879792D01*
X81987606Y-36879788D01*
X81987609Y-36879786D01*
X82112548Y-36707820D01*
X82112550Y-36707817D01*
X82112551Y-36707816D01*
X82209057Y-36518412D01*
X82274746Y-36316243D01*
X82308000Y-36106287D01*
X82308000Y-35893713D01*
X82274746Y-35683757D01*
X82209057Y-35481588D01*
X82112551Y-35292184D01*
X82112549Y-35292181D01*
X82112548Y-35292179D01*
X82043677Y-35197385D01*
X82020197Y-35131578D01*
X82036023Y-35063525D01*
X82086129Y-35014830D01*
X82143995Y-35000500D01*
X82534218Y-35000500D01*
X82601257Y-35020185D01*
X82621898Y-35036818D01*
X82875680Y-35290601D01*
X83128642Y-35543563D01*
X83144063Y-35562353D01*
X83222859Y-35680280D01*
X83222860Y-35680281D01*
X83222861Y-35680282D01*
X83362218Y-35819639D01*
X83362219Y-35819639D01*
X83369286Y-35826706D01*
X83369285Y-35826706D01*
X83369289Y-35826709D01*
X83571076Y-36028496D01*
X83604561Y-36089819D01*
X83606850Y-36105344D01*
X83640143Y-36315545D01*
X83640254Y-36316243D01*
X83683714Y-36450000D01*
X83705944Y-36518414D01*
X83802451Y-36707820D01*
X83927390Y-36879786D01*
X84077713Y-37030109D01*
X84249679Y-37155048D01*
X84249681Y-37155049D01*
X84249684Y-37155051D01*
X84439088Y-37251557D01*
X84641257Y-37317246D01*
X84851213Y-37350500D01*
X84851214Y-37350500D01*
X85063786Y-37350500D01*
X85063787Y-37350500D01*
X85273743Y-37317246D01*
X85327039Y-37299928D01*
X85396877Y-37297932D01*
X85456711Y-37334012D01*
X85487540Y-37396712D01*
X85487829Y-37437257D01*
X85457000Y-37631902D01*
X85457000Y-37868097D01*
X85493946Y-38101368D01*
X85566933Y-38325996D01*
X85650052Y-38489125D01*
X85674157Y-38536433D01*
X85812983Y-38727510D01*
X85979990Y-38894517D01*
X86171067Y-39033343D01*
X86263641Y-39080512D01*
X86381503Y-39140566D01*
X86381505Y-39140566D01*
X86381508Y-39140568D01*
X86493668Y-39177011D01*
X86606131Y-39213553D01*
X86839403Y-39250500D01*
X86839408Y-39250500D01*
X87075597Y-39250500D01*
X87308868Y-39213553D01*
X87313894Y-39211920D01*
X87533492Y-39140568D01*
X87743933Y-39033343D01*
X87935010Y-38894517D01*
X88102017Y-38727510D01*
X88240843Y-38536433D01*
X88348068Y-38325992D01*
X88421053Y-38101368D01*
X88440074Y-37981273D01*
X88458000Y-37868097D01*
X88458000Y-37631902D01*
X88421053Y-37398631D01*
X88373265Y-37251557D01*
X88348068Y-37174008D01*
X88348066Y-37174005D01*
X88348066Y-37174003D01*
X88259416Y-37000019D01*
X88240843Y-36963567D01*
X88102017Y-36772490D01*
X87935010Y-36605483D01*
X87743933Y-36466657D01*
X87711242Y-36450000D01*
X87533496Y-36359433D01*
X87308868Y-36286446D01*
X87075597Y-36249500D01*
X87075592Y-36249500D01*
X86839408Y-36249500D01*
X86839403Y-36249500D01*
X86606130Y-36286447D01*
X86606127Y-36286447D01*
X86454187Y-36335816D01*
X86384346Y-36337811D01*
X86324513Y-36301731D01*
X86293685Y-36239030D01*
X86293396Y-36198492D01*
X86308000Y-36106287D01*
X86308000Y-35893713D01*
X86274746Y-35683757D01*
X86209057Y-35481588D01*
X86112551Y-35292184D01*
X86112549Y-35292181D01*
X86112548Y-35292179D01*
X85987609Y-35120213D01*
X85837286Y-34969890D01*
X85665320Y-34844951D01*
X85475914Y-34748444D01*
X85475913Y-34748443D01*
X85475912Y-34748443D01*
X85273743Y-34682754D01*
X85273741Y-34682753D01*
X85273740Y-34682753D01*
X85107044Y-34656351D01*
X85063787Y-34649500D01*
X85063786Y-34649500D01*
X85058975Y-34648738D01*
X85059141Y-34647683D01*
X84998651Y-34624622D01*
X84985996Y-34613576D01*
X84871356Y-34498936D01*
X84855939Y-34480151D01*
X84777140Y-34362219D01*
X84777138Y-34362216D01*
X84777137Y-34362215D01*
X83784209Y-33369289D01*
X83784206Y-33369285D01*
X83784206Y-33369286D01*
X83777139Y-33362219D01*
X83777139Y-33362218D01*
X83637782Y-33222861D01*
X83637781Y-33222860D01*
X83637780Y-33222859D01*
X83473920Y-33113371D01*
X83473907Y-33113364D01*
X83320911Y-33049992D01*
X83320910Y-33049992D01*
X83291836Y-33037949D01*
X83291828Y-33037947D01*
X83195188Y-33018724D01*
X83098544Y-32999500D01*
X83098541Y-32999500D01*
X76129389Y-32999500D01*
X76062350Y-32979815D01*
X76016595Y-32927011D01*
X76006651Y-32857853D01*
X76035676Y-32794297D01*
X76041708Y-32787819D01*
X76052388Y-32777139D01*
X76102017Y-32727510D01*
X76240843Y-32536433D01*
X76348068Y-32325992D01*
X76421053Y-32101368D01*
X76433112Y-32025233D01*
X76458000Y-31868097D01*
X76458000Y-31631902D01*
X85457000Y-31631902D01*
X85457000Y-31868097D01*
X85493946Y-32101368D01*
X85566933Y-32325996D01*
X85619832Y-32429815D01*
X85674157Y-32536433D01*
X85812983Y-32727510D01*
X85979990Y-32894517D01*
X86171067Y-33033343D01*
X86203743Y-33049992D01*
X86381503Y-33140566D01*
X86381505Y-33140566D01*
X86381508Y-33140568D01*
X86501912Y-33179689D01*
X86606131Y-33213553D01*
X86839403Y-33250500D01*
X86839408Y-33250500D01*
X87075597Y-33250500D01*
X87308868Y-33213553D01*
X87327617Y-33207461D01*
X87533492Y-33140568D01*
X87743933Y-33033343D01*
X87935010Y-32894517D01*
X88102017Y-32727510D01*
X88240843Y-32536433D01*
X88348068Y-32325992D01*
X88421053Y-32101368D01*
X88433112Y-32025233D01*
X88456319Y-31878711D01*
X91149500Y-31878711D01*
X91149500Y-32121288D01*
X91181161Y-32361785D01*
X91243947Y-32596104D01*
X91323358Y-32787819D01*
X91336776Y-32820212D01*
X91458064Y-33030289D01*
X91458066Y-33030292D01*
X91458067Y-33030293D01*
X91605733Y-33222736D01*
X91605739Y-33222743D01*
X91777256Y-33394260D01*
X91777262Y-33394265D01*
X91969711Y-33541936D01*
X92179788Y-33663224D01*
X92403900Y-33756054D01*
X92638211Y-33818838D01*
X92818586Y-33842584D01*
X92878711Y-33850500D01*
X92878712Y-33850500D01*
X93121289Y-33850500D01*
X93169388Y-33844167D01*
X93361789Y-33818838D01*
X93596100Y-33756054D01*
X93820212Y-33663224D01*
X94030289Y-33541936D01*
X94222738Y-33394265D01*
X94394265Y-33222738D01*
X94541936Y-33030289D01*
X94663224Y-32820212D01*
X94756054Y-32596100D01*
X94818838Y-32361789D01*
X94850500Y-32121288D01*
X94850500Y-31878712D01*
X94818838Y-31638211D01*
X94756054Y-31403900D01*
X94663224Y-31179788D01*
X94541936Y-30969711D01*
X94394265Y-30777262D01*
X94394260Y-30777256D01*
X94222743Y-30605739D01*
X94222736Y-30605733D01*
X94030293Y-30458067D01*
X94030292Y-30458066D01*
X94030289Y-30458064D01*
X93820212Y-30336776D01*
X93820205Y-30336773D01*
X93596104Y-30243947D01*
X93361785Y-30181161D01*
X93121289Y-30149500D01*
X93121288Y-30149500D01*
X92878712Y-30149500D01*
X92878711Y-30149500D01*
X92638214Y-30181161D01*
X92403895Y-30243947D01*
X92179794Y-30336773D01*
X92179785Y-30336777D01*
X91969706Y-30458067D01*
X91777263Y-30605733D01*
X91777256Y-30605739D01*
X91605739Y-30777256D01*
X91605733Y-30777263D01*
X91458067Y-30969706D01*
X91336777Y-31179785D01*
X91336773Y-31179794D01*
X91243947Y-31403895D01*
X91181161Y-31638214D01*
X91149500Y-31878711D01*
X88456319Y-31878711D01*
X88458000Y-31868097D01*
X88458000Y-31631902D01*
X88421053Y-31398631D01*
X88363941Y-31222860D01*
X88348068Y-31174008D01*
X88348066Y-31174005D01*
X88348066Y-31174003D01*
X88278743Y-31037950D01*
X88240843Y-30963567D01*
X88102017Y-30772490D01*
X87935010Y-30605483D01*
X87743933Y-30466657D01*
X87725545Y-30457288D01*
X87533496Y-30359433D01*
X87308868Y-30286446D01*
X87075597Y-30249500D01*
X87075592Y-30249500D01*
X86839408Y-30249500D01*
X86839403Y-30249500D01*
X86606131Y-30286446D01*
X86381503Y-30359433D01*
X86171066Y-30466657D01*
X86062050Y-30545862D01*
X85979990Y-30605483D01*
X85979988Y-30605485D01*
X85979987Y-30605485D01*
X85812985Y-30772487D01*
X85812985Y-30772488D01*
X85812983Y-30772490D01*
X85753362Y-30854550D01*
X85674157Y-30963566D01*
X85566933Y-31174003D01*
X85493946Y-31398631D01*
X85457000Y-31631902D01*
X76458000Y-31631902D01*
X76421053Y-31398631D01*
X76363941Y-31222860D01*
X76348068Y-31174008D01*
X76348066Y-31174005D01*
X76348066Y-31174003D01*
X76278743Y-31037950D01*
X76240843Y-30963567D01*
X76102017Y-30772490D01*
X75935010Y-30605483D01*
X75743933Y-30466657D01*
X75725545Y-30457288D01*
X75533496Y-30359433D01*
X75308868Y-30286446D01*
X75075597Y-30249500D01*
X75075592Y-30249500D01*
X74839408Y-30249500D01*
X74839403Y-30249500D01*
X74606131Y-30286446D01*
X74381503Y-30359433D01*
X74171066Y-30466657D01*
X74062050Y-30545862D01*
X73979990Y-30605483D01*
X73979988Y-30605485D01*
X73979987Y-30605485D01*
X73812985Y-30772487D01*
X73812985Y-30772488D01*
X73812983Y-30772490D01*
X73753362Y-30854550D01*
X73674157Y-30963566D01*
X73589235Y-31130235D01*
X73541260Y-31181031D01*
X73473439Y-31197826D01*
X73407304Y-31175288D01*
X73368265Y-31130235D01*
X73321243Y-31037950D01*
X73283343Y-30963567D01*
X73144517Y-30772490D01*
X72977510Y-30605483D01*
X72786433Y-30466657D01*
X72768045Y-30457288D01*
X72575996Y-30359433D01*
X72351368Y-30286446D01*
X72118097Y-30249500D01*
X72118092Y-30249500D01*
X71881908Y-30249500D01*
X71881903Y-30249500D01*
X71648631Y-30286446D01*
X71424003Y-30359433D01*
X71213566Y-30466657D01*
X71104550Y-30545862D01*
X71022490Y-30605483D01*
X71022488Y-30605485D01*
X71022487Y-30605485D01*
X70855485Y-30772487D01*
X70855485Y-30772488D01*
X70855483Y-30772490D01*
X70795862Y-30854550D01*
X70716657Y-30963566D01*
X70661413Y-31071989D01*
X70613438Y-31122785D01*
X70545617Y-31139580D01*
X70482037Y-31118795D01*
X70473914Y-31113368D01*
X70473910Y-31113366D01*
X70473906Y-31113364D01*
X70291839Y-31037950D01*
X70291829Y-31037947D01*
X70098543Y-30999500D01*
X70098541Y-30999500D01*
X62901459Y-30999500D01*
X62901457Y-30999500D01*
X62708170Y-31037947D01*
X62708160Y-31037950D01*
X62526092Y-31113364D01*
X62526079Y-31113371D01*
X62362218Y-31222860D01*
X62362214Y-31222863D01*
X62222863Y-31362214D01*
X62222860Y-31362218D01*
X62113371Y-31526079D01*
X62113364Y-31526092D01*
X62037950Y-31708160D01*
X62037947Y-31708170D01*
X61999500Y-31901456D01*
X61999500Y-32098545D01*
X62029887Y-32251309D01*
X62023660Y-32320900D01*
X61980797Y-32376078D01*
X61914907Y-32399322D01*
X61908270Y-32399500D01*
X61537355Y-32399500D01*
X61470316Y-32379815D01*
X61424561Y-32327011D01*
X61414617Y-32257853D01*
X61419422Y-32237186D01*
X61463553Y-32101368D01*
X61475612Y-32025233D01*
X61500500Y-31868097D01*
X61500500Y-31631902D01*
X61463553Y-31398631D01*
X61406441Y-31222860D01*
X61390568Y-31174008D01*
X61390566Y-31174005D01*
X61390566Y-31174003D01*
X61321243Y-31037950D01*
X61283343Y-30963567D01*
X61144517Y-30772490D01*
X60977510Y-30605483D01*
X60786433Y-30466657D01*
X60768045Y-30457288D01*
X60575996Y-30359433D01*
X60351368Y-30286446D01*
X60118097Y-30249500D01*
X60118092Y-30249500D01*
X59881908Y-30249500D01*
X59881903Y-30249500D01*
X59648631Y-30286446D01*
X59424003Y-30359433D01*
X59213566Y-30466657D01*
X59070351Y-30570710D01*
X59004544Y-30594190D01*
X58936490Y-30578365D01*
X58890225Y-30531012D01*
X58890017Y-30531152D01*
X58889272Y-30530038D01*
X58888106Y-30528844D01*
X58886631Y-30526084D01*
X58777139Y-30362217D01*
X58637785Y-30222863D01*
X58637781Y-30222860D01*
X58473920Y-30113371D01*
X58473907Y-30113364D01*
X58291839Y-30037950D01*
X58291829Y-30037947D01*
X58098543Y-29999500D01*
X58098541Y-29999500D01*
X53901459Y-29999500D01*
X53901457Y-29999500D01*
X53708170Y-30037947D01*
X53708160Y-30037950D01*
X53526092Y-30113364D01*
X53526079Y-30113371D01*
X53362218Y-30222860D01*
X53362214Y-30222863D01*
X53222863Y-30362214D01*
X53222860Y-30362218D01*
X53113371Y-30526079D01*
X53113364Y-30526092D01*
X53037950Y-30708160D01*
X53037947Y-30708170D01*
X52999500Y-30901456D01*
X52999500Y-30901459D01*
X52999500Y-31098541D01*
X52999500Y-31098543D01*
X52999499Y-31098543D01*
X53037947Y-31291829D01*
X53037950Y-31291839D01*
X53113364Y-31473907D01*
X53113371Y-31473920D01*
X53222860Y-31637781D01*
X53222863Y-31637785D01*
X53322897Y-31737819D01*
X53356382Y-31799142D01*
X53351398Y-31868834D01*
X53309526Y-31924767D01*
X53244062Y-31949184D01*
X53235216Y-31949500D01*
X46049500Y-31949500D01*
X45982461Y-31929815D01*
X45936706Y-31877011D01*
X45925500Y-31825500D01*
X45925500Y-30999993D01*
X45925499Y-30999980D01*
X45925450Y-30999500D01*
X45914999Y-30897200D01*
X45859815Y-30730664D01*
X45859811Y-30730658D01*
X45859810Y-30730655D01*
X45767714Y-30581346D01*
X45767711Y-30581342D01*
X45643657Y-30457288D01*
X45643653Y-30457285D01*
X45494344Y-30365189D01*
X45494338Y-30365186D01*
X45494336Y-30365185D01*
X45485370Y-30362214D01*
X45327801Y-30310001D01*
X45225019Y-30299500D01*
X45225012Y-30299500D01*
X39824988Y-30299500D01*
X39824980Y-30299500D01*
X39722198Y-30310001D01*
X39555666Y-30365184D01*
X39555655Y-30365189D01*
X39406346Y-30457285D01*
X39406342Y-30457288D01*
X39282288Y-30581342D01*
X39282285Y-30581346D01*
X39190189Y-30730655D01*
X39190184Y-30730666D01*
X39135001Y-30897198D01*
X39124500Y-30999980D01*
X39124500Y-37000019D01*
X39135001Y-37102801D01*
X39190184Y-37269333D01*
X39190189Y-37269344D01*
X39282285Y-37418653D01*
X39282288Y-37418657D01*
X39406342Y-37542711D01*
X39406346Y-37542714D01*
X39555655Y-37634810D01*
X39555658Y-37634811D01*
X39555664Y-37634815D01*
X39722200Y-37689999D01*
X39824988Y-37700500D01*
X41130216Y-37700500D01*
X41197255Y-37720185D01*
X41243010Y-37772989D01*
X41252954Y-37842147D01*
X41223929Y-37905703D01*
X41217897Y-37912181D01*
X40466897Y-38663181D01*
X40405574Y-38696666D01*
X40379216Y-38699500D01*
X39844998Y-38699500D01*
X39844980Y-38699501D01*
X39742203Y-38710000D01*
X39742200Y-38710001D01*
X39575668Y-38765185D01*
X39575663Y-38765187D01*
X39426342Y-38857289D01*
X39302289Y-38981342D01*
X39210187Y-39130663D01*
X39210185Y-39130668D01*
X39194829Y-39177011D01*
X39155001Y-39297203D01*
X39155001Y-39297204D01*
X39155000Y-39297204D01*
X39144500Y-39399983D01*
X39144500Y-41200001D01*
X39144501Y-41200018D01*
X39155000Y-41302796D01*
X39155001Y-41302799D01*
X39207640Y-41461650D01*
X39210186Y-41469334D01*
X39302288Y-41618656D01*
X39426344Y-41742712D01*
X39575666Y-41834814D01*
X39742203Y-41889999D01*
X39844991Y-41900500D01*
X39846583Y-41900581D01*
X39846913Y-41900696D01*
X39848132Y-41900821D01*
X39848102Y-41901112D01*
X39912538Y-41923640D01*
X39955556Y-41978697D01*
X39961979Y-42048271D01*
X39929768Y-42110272D01*
X39927975Y-42112102D01*
X38750946Y-43289133D01*
X38362220Y-43677859D01*
X38362218Y-43677861D01*
X38326150Y-43713929D01*
X38222859Y-43817219D01*
X38113371Y-43981080D01*
X38113364Y-43981093D01*
X38071212Y-44082860D01*
X38071212Y-44082861D01*
X38051237Y-44131085D01*
X38037949Y-44163164D01*
X38032110Y-44192519D01*
X38032110Y-44192520D01*
X37999500Y-44356456D01*
X37999500Y-44356459D01*
X37999500Y-46098541D01*
X37999500Y-46098543D01*
X37999499Y-46098543D01*
X38037947Y-46291829D01*
X38037950Y-46291839D01*
X38113364Y-46473907D01*
X38113371Y-46473920D01*
X38222860Y-46637781D01*
X38222863Y-46637785D01*
X38362214Y-46777136D01*
X38362218Y-46777139D01*
X38526079Y-46886628D01*
X38526092Y-46886635D01*
X38708160Y-46962049D01*
X38708165Y-46962051D01*
X38708169Y-46962051D01*
X38708170Y-46962052D01*
X38901456Y-47000500D01*
X38901459Y-47000500D01*
X39098543Y-47000500D01*
X39241477Y-46972068D01*
X39291835Y-46962051D01*
X39432655Y-46903721D01*
X39473907Y-46886635D01*
X39473907Y-46886634D01*
X39473914Y-46886632D01*
X39637782Y-46777139D01*
X39777139Y-46637782D01*
X39777145Y-46637772D01*
X39779643Y-46634730D01*
X39781365Y-46633556D01*
X39781447Y-46633475D01*
X39781462Y-46633490D01*
X39837387Y-46595393D01*
X39907232Y-46593520D01*
X39967002Y-46629704D01*
X39997721Y-46692459D01*
X39999500Y-46713391D01*
X39999500Y-52534217D01*
X39979815Y-52601256D01*
X39963181Y-52621898D01*
X39912221Y-52672858D01*
X39912218Y-52672861D01*
X39866295Y-52718784D01*
X39772859Y-52812219D01*
X39663371Y-52976080D01*
X39663364Y-52976093D01*
X39636847Y-53040114D01*
X39607804Y-53110229D01*
X39590793Y-53151299D01*
X39587950Y-53158161D01*
X39587946Y-53158175D01*
X39549500Y-53351454D01*
X39549500Y-54363403D01*
X39529815Y-54430442D01*
X39477011Y-54476197D01*
X39407853Y-54486141D01*
X39344297Y-54457116D01*
X39337819Y-54451084D01*
X35386818Y-50500083D01*
X35353333Y-50438760D01*
X35350499Y-50412402D01*
X35350499Y-49064629D01*
X35350498Y-49064623D01*
X35350497Y-49064616D01*
X35344091Y-49005017D01*
X35343508Y-49003455D01*
X35293797Y-48870171D01*
X35293793Y-48870164D01*
X35207547Y-48754955D01*
X35207544Y-48754952D01*
X35092335Y-48668706D01*
X35092328Y-48668702D01*
X34957482Y-48618408D01*
X34957483Y-48618408D01*
X34897883Y-48612001D01*
X34897881Y-48612000D01*
X34897873Y-48612000D01*
X34897864Y-48612000D01*
X33102129Y-48612000D01*
X33102123Y-48612001D01*
X33042516Y-48618408D01*
X32907671Y-48668702D01*
X32907664Y-48668706D01*
X32792455Y-48754952D01*
X32792452Y-48754955D01*
X32706206Y-48870164D01*
X32706202Y-48870171D01*
X32655908Y-49005017D01*
X32650992Y-49050746D01*
X32649501Y-49064623D01*
X32649500Y-49064635D01*
X30000500Y-49064635D01*
X30000500Y-31878711D01*
X31149500Y-31878711D01*
X31149500Y-32121288D01*
X31181161Y-32361785D01*
X31243947Y-32596104D01*
X31323358Y-32787819D01*
X31336776Y-32820212D01*
X31458064Y-33030289D01*
X31458066Y-33030292D01*
X31458067Y-33030293D01*
X31605733Y-33222736D01*
X31605739Y-33222743D01*
X31777256Y-33394260D01*
X31777262Y-33394265D01*
X31969711Y-33541936D01*
X32179788Y-33663224D01*
X32403900Y-33756054D01*
X32638211Y-33818838D01*
X32818586Y-33842584D01*
X32878711Y-33850500D01*
X32878712Y-33850500D01*
X33121289Y-33850500D01*
X33169388Y-33844167D01*
X33361789Y-33818838D01*
X33596100Y-33756054D01*
X33820212Y-33663224D01*
X34030289Y-33541936D01*
X34222738Y-33394265D01*
X34394265Y-33222738D01*
X34541936Y-33030289D01*
X34663224Y-32820212D01*
X34756054Y-32596100D01*
X34818838Y-32361789D01*
X34850500Y-32121288D01*
X34850500Y-31878712D01*
X34818838Y-31638211D01*
X34756054Y-31403900D01*
X34663224Y-31179788D01*
X34541936Y-30969711D01*
X34394265Y-30777262D01*
X34394260Y-30777256D01*
X34222743Y-30605739D01*
X34222736Y-30605733D01*
X34030293Y-30458067D01*
X34030292Y-30458066D01*
X34030289Y-30458064D01*
X33820212Y-30336776D01*
X33820205Y-30336773D01*
X33596104Y-30243947D01*
X33361785Y-30181161D01*
X33121289Y-30149500D01*
X33121288Y-30149500D01*
X32878712Y-30149500D01*
X32878711Y-30149500D01*
X32638214Y-30181161D01*
X32403895Y-30243947D01*
X32179794Y-30336773D01*
X32179785Y-30336777D01*
X31969706Y-30458067D01*
X31777263Y-30605733D01*
X31777256Y-30605739D01*
X31605739Y-30777256D01*
X31605733Y-30777263D01*
X31458067Y-30969706D01*
X31336777Y-31179785D01*
X31336773Y-31179794D01*
X31243947Y-31403895D01*
X31181161Y-31638214D01*
X31149500Y-31878711D01*
X30000500Y-31878711D01*
X30000500Y-29124500D01*
X30020185Y-29057461D01*
X30072989Y-29011706D01*
X30124500Y-29000500D01*
X95875500Y-29000500D01*
X95942539Y-29020185D01*
G37*
%TD.AperFunction*%
%TD*%
M02*
