%TF.GenerationSoftware,KiCad,Pcbnew,10.0.6*%
%TF.CreationDate,2026-09-16T22:58:31-06:00*%
%TF.ProjectId,ignition-system,69676e69-7469-46f6-9e2d-73797374656d,rev?*%
%TF.SameCoordinates,Original*%
%TF.FileFunction,Legend,Top*%
%TF.FilePolarity,Positive*%
%FSLAX46Y46*%
G04 Gerber Fmt 4.6, Leading zero omitted, Abs format (unit mm)*
G04 Created by KiCad (PCBNEW 10.0.6) date 2026-09-16 22:58:31*
%MOMM*%
%LPD*%
G01*
G04 APERTURE LIST*
%ADD10C,0.100000*%
%ADD11C,0.150000*%
%ADD12C,0.120000*%
G04 APERTURE END LIST*
D10*
X32000000Y-48212500D02*
X70000000Y-48212500D01*
X70000000Y-59212500D01*
X32000000Y-59212500D01*
X32000000Y-48212500D01*
X73740000Y-39500000D02*
X93740000Y-39500000D01*
X93740000Y-67500000D01*
X73740000Y-67500000D01*
X73740000Y-39500000D01*
D11*
X43859580Y-54166666D02*
X43907200Y-54214285D01*
X43907200Y-54214285D02*
X43954819Y-54357142D01*
X43954819Y-54357142D02*
X43954819Y-54452380D01*
X43954819Y-54452380D02*
X43907200Y-54595237D01*
X43907200Y-54595237D02*
X43811961Y-54690475D01*
X43811961Y-54690475D02*
X43716723Y-54738094D01*
X43716723Y-54738094D02*
X43526247Y-54785713D01*
X43526247Y-54785713D02*
X43383390Y-54785713D01*
X43383390Y-54785713D02*
X43192914Y-54738094D01*
X43192914Y-54738094D02*
X43097676Y-54690475D01*
X43097676Y-54690475D02*
X43002438Y-54595237D01*
X43002438Y-54595237D02*
X42954819Y-54452380D01*
X42954819Y-54452380D02*
X42954819Y-54357142D01*
X42954819Y-54357142D02*
X43002438Y-54214285D01*
X43002438Y-54214285D02*
X43050057Y-54166666D01*
X43954819Y-53214285D02*
X43954819Y-53785713D01*
X43954819Y-53499999D02*
X42954819Y-53499999D01*
X42954819Y-53499999D02*
X43097676Y-53595237D01*
X43097676Y-53595237D02*
X43192914Y-53690475D01*
X43192914Y-53690475D02*
X43240533Y-53785713D01*
X59431009Y-60886904D02*
X59478628Y-60744047D01*
X59478628Y-60744047D02*
X59526247Y-60696428D01*
X59526247Y-60696428D02*
X59621485Y-60648809D01*
X59621485Y-60648809D02*
X59764342Y-60648809D01*
X59764342Y-60648809D02*
X59859580Y-60696428D01*
X59859580Y-60696428D02*
X59907200Y-60744047D01*
X59907200Y-60744047D02*
X59954819Y-60839285D01*
X59954819Y-60839285D02*
X59954819Y-61220237D01*
X59954819Y-61220237D02*
X58954819Y-61220237D01*
X58954819Y-61220237D02*
X58954819Y-60886904D01*
X58954819Y-60886904D02*
X59002438Y-60791666D01*
X59002438Y-60791666D02*
X59050057Y-60744047D01*
X59050057Y-60744047D02*
X59145295Y-60696428D01*
X59145295Y-60696428D02*
X59240533Y-60696428D01*
X59240533Y-60696428D02*
X59335771Y-60744047D01*
X59335771Y-60744047D02*
X59383390Y-60791666D01*
X59383390Y-60791666D02*
X59431009Y-60886904D01*
X59431009Y-60886904D02*
X59431009Y-61220237D01*
X59954819Y-59744047D02*
X59954819Y-60220237D01*
X59954819Y-60220237D02*
X58954819Y-60220237D01*
X59431009Y-59410713D02*
X59431009Y-59077380D01*
X59954819Y-58934523D02*
X59954819Y-59410713D01*
X59954819Y-59410713D02*
X58954819Y-59410713D01*
X58954819Y-59410713D02*
X58954819Y-58934523D01*
X59954819Y-58505951D02*
X58954819Y-58505951D01*
X58954819Y-58505951D02*
X58954819Y-58267856D01*
X58954819Y-58267856D02*
X59002438Y-58124999D01*
X59002438Y-58124999D02*
X59097676Y-58029761D01*
X59097676Y-58029761D02*
X59192914Y-57982142D01*
X59192914Y-57982142D02*
X59383390Y-57934523D01*
X59383390Y-57934523D02*
X59526247Y-57934523D01*
X59526247Y-57934523D02*
X59716723Y-57982142D01*
X59716723Y-57982142D02*
X59811961Y-58029761D01*
X59811961Y-58029761D02*
X59907200Y-58124999D01*
X59907200Y-58124999D02*
X59954819Y-58267856D01*
X59954819Y-58267856D02*
X59954819Y-58505951D01*
X59954819Y-56982142D02*
X59954819Y-57553570D01*
X59954819Y-57267856D02*
X58954819Y-57267856D01*
X58954819Y-57267856D02*
X59097676Y-57363094D01*
X59097676Y-57363094D02*
X59192914Y-57458332D01*
X59192914Y-57458332D02*
X59240533Y-57553570D01*
X59954819Y-54254166D02*
X59478628Y-54587499D01*
X59954819Y-54825594D02*
X58954819Y-54825594D01*
X58954819Y-54825594D02*
X58954819Y-54444642D01*
X58954819Y-54444642D02*
X59002438Y-54349404D01*
X59002438Y-54349404D02*
X59050057Y-54301785D01*
X59050057Y-54301785D02*
X59145295Y-54254166D01*
X59145295Y-54254166D02*
X59288152Y-54254166D01*
X59288152Y-54254166D02*
X59383390Y-54301785D01*
X59383390Y-54301785D02*
X59431009Y-54349404D01*
X59431009Y-54349404D02*
X59478628Y-54444642D01*
X59478628Y-54444642D02*
X59478628Y-54825594D01*
X58954819Y-53920832D02*
X58954819Y-53254166D01*
X58954819Y-53254166D02*
X59954819Y-53682737D01*
X47954819Y-48991666D02*
X47478628Y-49324999D01*
X47954819Y-49563094D02*
X46954819Y-49563094D01*
X46954819Y-49563094D02*
X46954819Y-49182142D01*
X46954819Y-49182142D02*
X47002438Y-49086904D01*
X47002438Y-49086904D02*
X47050057Y-49039285D01*
X47050057Y-49039285D02*
X47145295Y-48991666D01*
X47145295Y-48991666D02*
X47288152Y-48991666D01*
X47288152Y-48991666D02*
X47383390Y-49039285D01*
X47383390Y-49039285D02*
X47431009Y-49086904D01*
X47431009Y-49086904D02*
X47478628Y-49182142D01*
X47478628Y-49182142D02*
X47478628Y-49563094D01*
X47050057Y-48610713D02*
X47002438Y-48563094D01*
X47002438Y-48563094D02*
X46954819Y-48467856D01*
X46954819Y-48467856D02*
X46954819Y-48229761D01*
X46954819Y-48229761D02*
X47002438Y-48134523D01*
X47002438Y-48134523D02*
X47050057Y-48086904D01*
X47050057Y-48086904D02*
X47145295Y-48039285D01*
X47145295Y-48039285D02*
X47240533Y-48039285D01*
X47240533Y-48039285D02*
X47383390Y-48086904D01*
X47383390Y-48086904D02*
X47954819Y-48658332D01*
X47954819Y-48658332D02*
X47954819Y-48039285D01*
X55954819Y-49166666D02*
X55478628Y-49499999D01*
X55954819Y-49738094D02*
X54954819Y-49738094D01*
X54954819Y-49738094D02*
X54954819Y-49357142D01*
X54954819Y-49357142D02*
X55002438Y-49261904D01*
X55002438Y-49261904D02*
X55050057Y-49214285D01*
X55050057Y-49214285D02*
X55145295Y-49166666D01*
X55145295Y-49166666D02*
X55288152Y-49166666D01*
X55288152Y-49166666D02*
X55383390Y-49214285D01*
X55383390Y-49214285D02*
X55431009Y-49261904D01*
X55431009Y-49261904D02*
X55478628Y-49357142D01*
X55478628Y-49357142D02*
X55478628Y-49738094D01*
X54954819Y-48309523D02*
X54954819Y-48499999D01*
X54954819Y-48499999D02*
X55002438Y-48595237D01*
X55002438Y-48595237D02*
X55050057Y-48642856D01*
X55050057Y-48642856D02*
X55192914Y-48738094D01*
X55192914Y-48738094D02*
X55383390Y-48785713D01*
X55383390Y-48785713D02*
X55764342Y-48785713D01*
X55764342Y-48785713D02*
X55859580Y-48738094D01*
X55859580Y-48738094D02*
X55907200Y-48690475D01*
X55907200Y-48690475D02*
X55954819Y-48595237D01*
X55954819Y-48595237D02*
X55954819Y-48404761D01*
X55954819Y-48404761D02*
X55907200Y-48309523D01*
X55907200Y-48309523D02*
X55859580Y-48261904D01*
X55859580Y-48261904D02*
X55764342Y-48214285D01*
X55764342Y-48214285D02*
X55526247Y-48214285D01*
X55526247Y-48214285D02*
X55431009Y-48261904D01*
X55431009Y-48261904D02*
X55383390Y-48309523D01*
X55383390Y-48309523D02*
X55335771Y-48404761D01*
X55335771Y-48404761D02*
X55335771Y-48595237D01*
X55335771Y-48595237D02*
X55383390Y-48690475D01*
X55383390Y-48690475D02*
X55431009Y-48738094D01*
X55431009Y-48738094D02*
X55526247Y-48785713D01*
X51954819Y-54254166D02*
X51478628Y-54587499D01*
X51954819Y-54825594D02*
X50954819Y-54825594D01*
X50954819Y-54825594D02*
X50954819Y-54444642D01*
X50954819Y-54444642D02*
X51002438Y-54349404D01*
X51002438Y-54349404D02*
X51050057Y-54301785D01*
X51050057Y-54301785D02*
X51145295Y-54254166D01*
X51145295Y-54254166D02*
X51288152Y-54254166D01*
X51288152Y-54254166D02*
X51383390Y-54301785D01*
X51383390Y-54301785D02*
X51431009Y-54349404D01*
X51431009Y-54349404D02*
X51478628Y-54444642D01*
X51478628Y-54444642D02*
X51478628Y-54825594D01*
X50954819Y-53920832D02*
X50954819Y-53301785D01*
X50954819Y-53301785D02*
X51335771Y-53635118D01*
X51335771Y-53635118D02*
X51335771Y-53492261D01*
X51335771Y-53492261D02*
X51383390Y-53397023D01*
X51383390Y-53397023D02*
X51431009Y-53349404D01*
X51431009Y-53349404D02*
X51526247Y-53301785D01*
X51526247Y-53301785D02*
X51764342Y-53301785D01*
X51764342Y-53301785D02*
X51859580Y-53349404D01*
X51859580Y-53349404D02*
X51907200Y-53397023D01*
X51907200Y-53397023D02*
X51954819Y-53492261D01*
X51954819Y-53492261D02*
X51954819Y-53777975D01*
X51954819Y-53777975D02*
X51907200Y-53873213D01*
X51907200Y-53873213D02*
X51859580Y-53920832D01*
X43859580Y-49166666D02*
X43907200Y-49214285D01*
X43907200Y-49214285D02*
X43954819Y-49357142D01*
X43954819Y-49357142D02*
X43954819Y-49452380D01*
X43954819Y-49452380D02*
X43907200Y-49595237D01*
X43907200Y-49595237D02*
X43811961Y-49690475D01*
X43811961Y-49690475D02*
X43716723Y-49738094D01*
X43716723Y-49738094D02*
X43526247Y-49785713D01*
X43526247Y-49785713D02*
X43383390Y-49785713D01*
X43383390Y-49785713D02*
X43192914Y-49738094D01*
X43192914Y-49738094D02*
X43097676Y-49690475D01*
X43097676Y-49690475D02*
X43002438Y-49595237D01*
X43002438Y-49595237D02*
X42954819Y-49452380D01*
X42954819Y-49452380D02*
X42954819Y-49357142D01*
X42954819Y-49357142D02*
X43002438Y-49214285D01*
X43002438Y-49214285D02*
X43050057Y-49166666D01*
X43050057Y-48785713D02*
X43002438Y-48738094D01*
X43002438Y-48738094D02*
X42954819Y-48642856D01*
X42954819Y-48642856D02*
X42954819Y-48404761D01*
X42954819Y-48404761D02*
X43002438Y-48309523D01*
X43002438Y-48309523D02*
X43050057Y-48261904D01*
X43050057Y-48261904D02*
X43145295Y-48214285D01*
X43145295Y-48214285D02*
X43240533Y-48214285D01*
X43240533Y-48214285D02*
X43383390Y-48261904D01*
X43383390Y-48261904D02*
X43954819Y-48833332D01*
X43954819Y-48833332D02*
X43954819Y-48214285D01*
X63954819Y-54166666D02*
X63478628Y-54499999D01*
X63954819Y-54738094D02*
X62954819Y-54738094D01*
X62954819Y-54738094D02*
X62954819Y-54357142D01*
X62954819Y-54357142D02*
X63002438Y-54261904D01*
X63002438Y-54261904D02*
X63050057Y-54214285D01*
X63050057Y-54214285D02*
X63145295Y-54166666D01*
X63145295Y-54166666D02*
X63288152Y-54166666D01*
X63288152Y-54166666D02*
X63383390Y-54214285D01*
X63383390Y-54214285D02*
X63431009Y-54261904D01*
X63431009Y-54261904D02*
X63478628Y-54357142D01*
X63478628Y-54357142D02*
X63478628Y-54738094D01*
X63954819Y-53690475D02*
X63954819Y-53499999D01*
X63954819Y-53499999D02*
X63907200Y-53404761D01*
X63907200Y-53404761D02*
X63859580Y-53357142D01*
X63859580Y-53357142D02*
X63716723Y-53261904D01*
X63716723Y-53261904D02*
X63526247Y-53214285D01*
X63526247Y-53214285D02*
X63145295Y-53214285D01*
X63145295Y-53214285D02*
X63050057Y-53261904D01*
X63050057Y-53261904D02*
X63002438Y-53309523D01*
X63002438Y-53309523D02*
X62954819Y-53404761D01*
X62954819Y-53404761D02*
X62954819Y-53595237D01*
X62954819Y-53595237D02*
X63002438Y-53690475D01*
X63002438Y-53690475D02*
X63050057Y-53738094D01*
X63050057Y-53738094D02*
X63145295Y-53785713D01*
X63145295Y-53785713D02*
X63383390Y-53785713D01*
X63383390Y-53785713D02*
X63478628Y-53738094D01*
X63478628Y-53738094D02*
X63526247Y-53690475D01*
X63526247Y-53690475D02*
X63573866Y-53595237D01*
X63573866Y-53595237D02*
X63573866Y-53404761D01*
X63573866Y-53404761D02*
X63526247Y-53309523D01*
X63526247Y-53309523D02*
X63478628Y-53261904D01*
X63478628Y-53261904D02*
X63383390Y-53214285D01*
X44023809Y-75954819D02*
X44023809Y-74954819D01*
X44023809Y-74954819D02*
X44357142Y-75669104D01*
X44357142Y-75669104D02*
X44690475Y-74954819D01*
X44690475Y-74954819D02*
X44690475Y-75954819D01*
X45309523Y-75954819D02*
X45214285Y-75907200D01*
X45214285Y-75907200D02*
X45166666Y-75859580D01*
X45166666Y-75859580D02*
X45119047Y-75764342D01*
X45119047Y-75764342D02*
X45119047Y-75478628D01*
X45119047Y-75478628D02*
X45166666Y-75383390D01*
X45166666Y-75383390D02*
X45214285Y-75335771D01*
X45214285Y-75335771D02*
X45309523Y-75288152D01*
X45309523Y-75288152D02*
X45452380Y-75288152D01*
X45452380Y-75288152D02*
X45547618Y-75335771D01*
X45547618Y-75335771D02*
X45595237Y-75383390D01*
X45595237Y-75383390D02*
X45642856Y-75478628D01*
X45642856Y-75478628D02*
X45642856Y-75764342D01*
X45642856Y-75764342D02*
X45595237Y-75859580D01*
X45595237Y-75859580D02*
X45547618Y-75907200D01*
X45547618Y-75907200D02*
X45452380Y-75954819D01*
X45452380Y-75954819D02*
X45309523Y-75954819D01*
X46499999Y-75954819D02*
X46499999Y-74954819D01*
X46499999Y-75907200D02*
X46404761Y-75954819D01*
X46404761Y-75954819D02*
X46214285Y-75954819D01*
X46214285Y-75954819D02*
X46119047Y-75907200D01*
X46119047Y-75907200D02*
X46071428Y-75859580D01*
X46071428Y-75859580D02*
X46023809Y-75764342D01*
X46023809Y-75764342D02*
X46023809Y-75478628D01*
X46023809Y-75478628D02*
X46071428Y-75383390D01*
X46071428Y-75383390D02*
X46119047Y-75335771D01*
X46119047Y-75335771D02*
X46214285Y-75288152D01*
X46214285Y-75288152D02*
X46404761Y-75288152D01*
X46404761Y-75288152D02*
X46499999Y-75335771D01*
X47404761Y-75288152D02*
X47404761Y-75954819D01*
X46976190Y-75288152D02*
X46976190Y-75811961D01*
X46976190Y-75811961D02*
X47023809Y-75907200D01*
X47023809Y-75907200D02*
X47119047Y-75954819D01*
X47119047Y-75954819D02*
X47261904Y-75954819D01*
X47261904Y-75954819D02*
X47357142Y-75907200D01*
X47357142Y-75907200D02*
X47404761Y-75859580D01*
X48023809Y-75954819D02*
X47928571Y-75907200D01*
X47928571Y-75907200D02*
X47880952Y-75811961D01*
X47880952Y-75811961D02*
X47880952Y-74954819D01*
X48547619Y-75954819D02*
X48452381Y-75907200D01*
X48452381Y-75907200D02*
X48404762Y-75859580D01*
X48404762Y-75859580D02*
X48357143Y-75764342D01*
X48357143Y-75764342D02*
X48357143Y-75478628D01*
X48357143Y-75478628D02*
X48404762Y-75383390D01*
X48404762Y-75383390D02*
X48452381Y-75335771D01*
X48452381Y-75335771D02*
X48547619Y-75288152D01*
X48547619Y-75288152D02*
X48690476Y-75288152D01*
X48690476Y-75288152D02*
X48785714Y-75335771D01*
X48785714Y-75335771D02*
X48833333Y-75383390D01*
X48833333Y-75383390D02*
X48880952Y-75478628D01*
X48880952Y-75478628D02*
X48880952Y-75764342D01*
X48880952Y-75764342D02*
X48833333Y-75859580D01*
X48833333Y-75859580D02*
X48785714Y-75907200D01*
X48785714Y-75907200D02*
X48690476Y-75954819D01*
X48690476Y-75954819D02*
X48547619Y-75954819D01*
X49309524Y-75954819D02*
X49309524Y-74954819D01*
X49309524Y-74954819D02*
X49547619Y-74954819D01*
X49547619Y-74954819D02*
X49690476Y-75002438D01*
X49690476Y-75002438D02*
X49785714Y-75097676D01*
X49785714Y-75097676D02*
X49833333Y-75192914D01*
X49833333Y-75192914D02*
X49880952Y-75383390D01*
X49880952Y-75383390D02*
X49880952Y-75526247D01*
X49880952Y-75526247D02*
X49833333Y-75716723D01*
X49833333Y-75716723D02*
X49785714Y-75811961D01*
X49785714Y-75811961D02*
X49690476Y-75907200D01*
X49690476Y-75907200D02*
X49547619Y-75954819D01*
X49547619Y-75954819D02*
X49309524Y-75954819D01*
X50690476Y-75907200D02*
X50595238Y-75954819D01*
X50595238Y-75954819D02*
X50404762Y-75954819D01*
X50404762Y-75954819D02*
X50309524Y-75907200D01*
X50309524Y-75907200D02*
X50261905Y-75811961D01*
X50261905Y-75811961D02*
X50261905Y-75431009D01*
X50261905Y-75431009D02*
X50309524Y-75335771D01*
X50309524Y-75335771D02*
X50404762Y-75288152D01*
X50404762Y-75288152D02*
X50595238Y-75288152D01*
X50595238Y-75288152D02*
X50690476Y-75335771D01*
X50690476Y-75335771D02*
X50738095Y-75431009D01*
X50738095Y-75431009D02*
X50738095Y-75526247D01*
X50738095Y-75526247D02*
X50261905Y-75621485D01*
X51738095Y-75859580D02*
X51690476Y-75907200D01*
X51690476Y-75907200D02*
X51547619Y-75954819D01*
X51547619Y-75954819D02*
X51452381Y-75954819D01*
X51452381Y-75954819D02*
X51309524Y-75907200D01*
X51309524Y-75907200D02*
X51214286Y-75811961D01*
X51214286Y-75811961D02*
X51166667Y-75716723D01*
X51166667Y-75716723D02*
X51119048Y-75526247D01*
X51119048Y-75526247D02*
X51119048Y-75383390D01*
X51119048Y-75383390D02*
X51166667Y-75192914D01*
X51166667Y-75192914D02*
X51214286Y-75097676D01*
X51214286Y-75097676D02*
X51309524Y-75002438D01*
X51309524Y-75002438D02*
X51452381Y-74954819D01*
X51452381Y-74954819D02*
X51547619Y-74954819D01*
X51547619Y-74954819D02*
X51690476Y-75002438D01*
X51690476Y-75002438D02*
X51738095Y-75050057D01*
X52595238Y-75954819D02*
X52595238Y-75431009D01*
X52595238Y-75431009D02*
X52547619Y-75335771D01*
X52547619Y-75335771D02*
X52452381Y-75288152D01*
X52452381Y-75288152D02*
X52261905Y-75288152D01*
X52261905Y-75288152D02*
X52166667Y-75335771D01*
X52595238Y-75907200D02*
X52500000Y-75954819D01*
X52500000Y-75954819D02*
X52261905Y-75954819D01*
X52261905Y-75954819D02*
X52166667Y-75907200D01*
X52166667Y-75907200D02*
X52119048Y-75811961D01*
X52119048Y-75811961D02*
X52119048Y-75716723D01*
X52119048Y-75716723D02*
X52166667Y-75621485D01*
X52166667Y-75621485D02*
X52261905Y-75573866D01*
X52261905Y-75573866D02*
X52500000Y-75573866D01*
X52500000Y-75573866D02*
X52595238Y-75526247D01*
X53071429Y-75954819D02*
X53071429Y-75288152D01*
X53071429Y-75478628D02*
X53119048Y-75383390D01*
X53119048Y-75383390D02*
X53166667Y-75335771D01*
X53166667Y-75335771D02*
X53261905Y-75288152D01*
X53261905Y-75288152D02*
X53357143Y-75288152D01*
X54119048Y-75288152D02*
X54119048Y-76097676D01*
X54119048Y-76097676D02*
X54071429Y-76192914D01*
X54071429Y-76192914D02*
X54023810Y-76240533D01*
X54023810Y-76240533D02*
X53928572Y-76288152D01*
X53928572Y-76288152D02*
X53785715Y-76288152D01*
X53785715Y-76288152D02*
X53690477Y-76240533D01*
X54119048Y-75907200D02*
X54023810Y-75954819D01*
X54023810Y-75954819D02*
X53833334Y-75954819D01*
X53833334Y-75954819D02*
X53738096Y-75907200D01*
X53738096Y-75907200D02*
X53690477Y-75859580D01*
X53690477Y-75859580D02*
X53642858Y-75764342D01*
X53642858Y-75764342D02*
X53642858Y-75478628D01*
X53642858Y-75478628D02*
X53690477Y-75383390D01*
X53690477Y-75383390D02*
X53738096Y-75335771D01*
X53738096Y-75335771D02*
X53833334Y-75288152D01*
X53833334Y-75288152D02*
X54023810Y-75288152D01*
X54023810Y-75288152D02*
X54119048Y-75335771D01*
X55023810Y-75954819D02*
X55023810Y-75431009D01*
X55023810Y-75431009D02*
X54976191Y-75335771D01*
X54976191Y-75335771D02*
X54880953Y-75288152D01*
X54880953Y-75288152D02*
X54690477Y-75288152D01*
X54690477Y-75288152D02*
X54595239Y-75335771D01*
X55023810Y-75907200D02*
X54928572Y-75954819D01*
X54928572Y-75954819D02*
X54690477Y-75954819D01*
X54690477Y-75954819D02*
X54595239Y-75907200D01*
X54595239Y-75907200D02*
X54547620Y-75811961D01*
X54547620Y-75811961D02*
X54547620Y-75716723D01*
X54547620Y-75716723D02*
X54595239Y-75621485D01*
X54595239Y-75621485D02*
X54690477Y-75573866D01*
X54690477Y-75573866D02*
X54928572Y-75573866D01*
X54928572Y-75573866D02*
X55023810Y-75526247D01*
X56023810Y-75954819D02*
X55452382Y-75954819D01*
X55738096Y-75954819D02*
X55738096Y-74954819D01*
X55738096Y-74954819D02*
X55642858Y-75097676D01*
X55642858Y-75097676D02*
X55547620Y-75192914D01*
X55547620Y-75192914D02*
X55452382Y-75240533D01*
X51954819Y-49254166D02*
X51478628Y-49587499D01*
X51954819Y-49825594D02*
X50954819Y-49825594D01*
X50954819Y-49825594D02*
X50954819Y-49444642D01*
X50954819Y-49444642D02*
X51002438Y-49349404D01*
X51002438Y-49349404D02*
X51050057Y-49301785D01*
X51050057Y-49301785D02*
X51145295Y-49254166D01*
X51145295Y-49254166D02*
X51288152Y-49254166D01*
X51288152Y-49254166D02*
X51383390Y-49301785D01*
X51383390Y-49301785D02*
X51431009Y-49349404D01*
X51431009Y-49349404D02*
X51478628Y-49444642D01*
X51478628Y-49444642D02*
X51478628Y-49825594D01*
X51288152Y-48397023D02*
X51954819Y-48397023D01*
X50907200Y-48635118D02*
X51621485Y-48873213D01*
X51621485Y-48873213D02*
X51621485Y-48254166D01*
X79166667Y-39407200D02*
X79309524Y-39454819D01*
X79309524Y-39454819D02*
X79547619Y-39454819D01*
X79547619Y-39454819D02*
X79642857Y-39407200D01*
X79642857Y-39407200D02*
X79690476Y-39359580D01*
X79690476Y-39359580D02*
X79738095Y-39264342D01*
X79738095Y-39264342D02*
X79738095Y-39169104D01*
X79738095Y-39169104D02*
X79690476Y-39073866D01*
X79690476Y-39073866D02*
X79642857Y-39026247D01*
X79642857Y-39026247D02*
X79547619Y-38978628D01*
X79547619Y-38978628D02*
X79357143Y-38931009D01*
X79357143Y-38931009D02*
X79261905Y-38883390D01*
X79261905Y-38883390D02*
X79214286Y-38835771D01*
X79214286Y-38835771D02*
X79166667Y-38740533D01*
X79166667Y-38740533D02*
X79166667Y-38645295D01*
X79166667Y-38645295D02*
X79214286Y-38550057D01*
X79214286Y-38550057D02*
X79261905Y-38502438D01*
X79261905Y-38502438D02*
X79357143Y-38454819D01*
X79357143Y-38454819D02*
X79595238Y-38454819D01*
X79595238Y-38454819D02*
X79738095Y-38502438D01*
X80071429Y-38454819D02*
X80309524Y-39454819D01*
X80309524Y-39454819D02*
X80500000Y-38740533D01*
X80500000Y-38740533D02*
X80690476Y-39454819D01*
X80690476Y-39454819D02*
X80928572Y-38454819D01*
X81261905Y-38550057D02*
X81309524Y-38502438D01*
X81309524Y-38502438D02*
X81404762Y-38454819D01*
X81404762Y-38454819D02*
X81642857Y-38454819D01*
X81642857Y-38454819D02*
X81738095Y-38502438D01*
X81738095Y-38502438D02*
X81785714Y-38550057D01*
X81785714Y-38550057D02*
X81833333Y-38645295D01*
X81833333Y-38645295D02*
X81833333Y-38740533D01*
X81833333Y-38740533D02*
X81785714Y-38883390D01*
X81785714Y-38883390D02*
X81214286Y-39454819D01*
X81214286Y-39454819D02*
X81833333Y-39454819D01*
X47907200Y-61696428D02*
X47954819Y-61553571D01*
X47954819Y-61553571D02*
X47954819Y-61315476D01*
X47954819Y-61315476D02*
X47907200Y-61220238D01*
X47907200Y-61220238D02*
X47859580Y-61172619D01*
X47859580Y-61172619D02*
X47764342Y-61125000D01*
X47764342Y-61125000D02*
X47669104Y-61125000D01*
X47669104Y-61125000D02*
X47573866Y-61172619D01*
X47573866Y-61172619D02*
X47526247Y-61220238D01*
X47526247Y-61220238D02*
X47478628Y-61315476D01*
X47478628Y-61315476D02*
X47431009Y-61505952D01*
X47431009Y-61505952D02*
X47383390Y-61601190D01*
X47383390Y-61601190D02*
X47335771Y-61648809D01*
X47335771Y-61648809D02*
X47240533Y-61696428D01*
X47240533Y-61696428D02*
X47145295Y-61696428D01*
X47145295Y-61696428D02*
X47050057Y-61648809D01*
X47050057Y-61648809D02*
X47002438Y-61601190D01*
X47002438Y-61601190D02*
X46954819Y-61505952D01*
X46954819Y-61505952D02*
X46954819Y-61267857D01*
X46954819Y-61267857D02*
X47002438Y-61125000D01*
X46954819Y-60839285D02*
X46954819Y-60267857D01*
X47954819Y-60553571D02*
X46954819Y-60553571D01*
X47954819Y-59934523D02*
X46954819Y-59934523D01*
X46954819Y-59934523D02*
X46954819Y-59696428D01*
X46954819Y-59696428D02*
X47002438Y-59553571D01*
X47002438Y-59553571D02*
X47097676Y-59458333D01*
X47097676Y-59458333D02*
X47192914Y-59410714D01*
X47192914Y-59410714D02*
X47383390Y-59363095D01*
X47383390Y-59363095D02*
X47526247Y-59363095D01*
X47526247Y-59363095D02*
X47716723Y-59410714D01*
X47716723Y-59410714D02*
X47811961Y-59458333D01*
X47811961Y-59458333D02*
X47907200Y-59553571D01*
X47907200Y-59553571D02*
X47954819Y-59696428D01*
X47954819Y-59696428D02*
X47954819Y-59934523D01*
X47431009Y-58601190D02*
X47478628Y-58458333D01*
X47478628Y-58458333D02*
X47526247Y-58410714D01*
X47526247Y-58410714D02*
X47621485Y-58363095D01*
X47621485Y-58363095D02*
X47764342Y-58363095D01*
X47764342Y-58363095D02*
X47859580Y-58410714D01*
X47859580Y-58410714D02*
X47907200Y-58458333D01*
X47907200Y-58458333D02*
X47954819Y-58553571D01*
X47954819Y-58553571D02*
X47954819Y-58934523D01*
X47954819Y-58934523D02*
X46954819Y-58934523D01*
X46954819Y-58934523D02*
X46954819Y-58601190D01*
X46954819Y-58601190D02*
X47002438Y-58505952D01*
X47002438Y-58505952D02*
X47050057Y-58458333D01*
X47050057Y-58458333D02*
X47145295Y-58410714D01*
X47145295Y-58410714D02*
X47240533Y-58410714D01*
X47240533Y-58410714D02*
X47335771Y-58458333D01*
X47335771Y-58458333D02*
X47383390Y-58505952D01*
X47383390Y-58505952D02*
X47431009Y-58601190D01*
X47431009Y-58601190D02*
X47431009Y-58934523D01*
X47478628Y-57744047D02*
X47954819Y-57744047D01*
X46954819Y-58077380D02*
X47478628Y-57744047D01*
X47478628Y-57744047D02*
X46954819Y-57410714D01*
X47954819Y-56553571D02*
X47954819Y-57124999D01*
X47954819Y-56839285D02*
X46954819Y-56839285D01*
X46954819Y-56839285D02*
X47097676Y-56934523D01*
X47097676Y-56934523D02*
X47192914Y-57029761D01*
X47192914Y-57029761D02*
X47240533Y-57124999D01*
X76809523Y-47954819D02*
X76333333Y-47954819D01*
X76333333Y-47954819D02*
X76333333Y-46954819D01*
X77333333Y-46954819D02*
X77523809Y-46954819D01*
X77523809Y-46954819D02*
X77619047Y-47002438D01*
X77619047Y-47002438D02*
X77714285Y-47097676D01*
X77714285Y-47097676D02*
X77761904Y-47288152D01*
X77761904Y-47288152D02*
X77761904Y-47621485D01*
X77761904Y-47621485D02*
X77714285Y-47811961D01*
X77714285Y-47811961D02*
X77619047Y-47907200D01*
X77619047Y-47907200D02*
X77523809Y-47954819D01*
X77523809Y-47954819D02*
X77333333Y-47954819D01*
X77333333Y-47954819D02*
X77238095Y-47907200D01*
X77238095Y-47907200D02*
X77142857Y-47811961D01*
X77142857Y-47811961D02*
X77095238Y-47621485D01*
X77095238Y-47621485D02*
X77095238Y-47288152D01*
X77095238Y-47288152D02*
X77142857Y-47097676D01*
X77142857Y-47097676D02*
X77238095Y-47002438D01*
X77238095Y-47002438D02*
X77333333Y-46954819D01*
X78761904Y-47954819D02*
X78428571Y-47478628D01*
X78190476Y-47954819D02*
X78190476Y-46954819D01*
X78190476Y-46954819D02*
X78571428Y-46954819D01*
X78571428Y-46954819D02*
X78666666Y-47002438D01*
X78666666Y-47002438D02*
X78714285Y-47050057D01*
X78714285Y-47050057D02*
X78761904Y-47145295D01*
X78761904Y-47145295D02*
X78761904Y-47288152D01*
X78761904Y-47288152D02*
X78714285Y-47383390D01*
X78714285Y-47383390D02*
X78666666Y-47431009D01*
X78666666Y-47431009D02*
X78571428Y-47478628D01*
X78571428Y-47478628D02*
X78190476Y-47478628D01*
X79142857Y-47669104D02*
X79619047Y-47669104D01*
X79047619Y-47954819D02*
X79380952Y-46954819D01*
X79380952Y-46954819D02*
X79714285Y-47954819D01*
X80047619Y-47573866D02*
X80809524Y-47573866D01*
X81238095Y-47907200D02*
X81380952Y-47954819D01*
X81380952Y-47954819D02*
X81619047Y-47954819D01*
X81619047Y-47954819D02*
X81714285Y-47907200D01*
X81714285Y-47907200D02*
X81761904Y-47859580D01*
X81761904Y-47859580D02*
X81809523Y-47764342D01*
X81809523Y-47764342D02*
X81809523Y-47669104D01*
X81809523Y-47669104D02*
X81761904Y-47573866D01*
X81761904Y-47573866D02*
X81714285Y-47526247D01*
X81714285Y-47526247D02*
X81619047Y-47478628D01*
X81619047Y-47478628D02*
X81428571Y-47431009D01*
X81428571Y-47431009D02*
X81333333Y-47383390D01*
X81333333Y-47383390D02*
X81285714Y-47335771D01*
X81285714Y-47335771D02*
X81238095Y-47240533D01*
X81238095Y-47240533D02*
X81238095Y-47145295D01*
X81238095Y-47145295D02*
X81285714Y-47050057D01*
X81285714Y-47050057D02*
X81333333Y-47002438D01*
X81333333Y-47002438D02*
X81428571Y-46954819D01*
X81428571Y-46954819D02*
X81666666Y-46954819D01*
X81666666Y-46954819D02*
X81809523Y-47002438D01*
X82142857Y-47954819D02*
X82666666Y-47288152D01*
X82142857Y-47288152D02*
X82666666Y-47954819D01*
X83571428Y-47954819D02*
X83000000Y-47954819D01*
X83285714Y-47954819D02*
X83285714Y-46954819D01*
X83285714Y-46954819D02*
X83190476Y-47097676D01*
X83190476Y-47097676D02*
X83095238Y-47192914D01*
X83095238Y-47192914D02*
X83000000Y-47240533D01*
X83952381Y-47050057D02*
X84000000Y-47002438D01*
X84000000Y-47002438D02*
X84095238Y-46954819D01*
X84095238Y-46954819D02*
X84333333Y-46954819D01*
X84333333Y-46954819D02*
X84428571Y-47002438D01*
X84428571Y-47002438D02*
X84476190Y-47050057D01*
X84476190Y-47050057D02*
X84523809Y-47145295D01*
X84523809Y-47145295D02*
X84523809Y-47240533D01*
X84523809Y-47240533D02*
X84476190Y-47383390D01*
X84476190Y-47383390D02*
X83904762Y-47954819D01*
X83904762Y-47954819D02*
X84523809Y-47954819D01*
X84857143Y-46954819D02*
X85523809Y-46954819D01*
X85523809Y-46954819D02*
X85095238Y-47954819D01*
X86047619Y-47383390D02*
X85952381Y-47335771D01*
X85952381Y-47335771D02*
X85904762Y-47288152D01*
X85904762Y-47288152D02*
X85857143Y-47192914D01*
X85857143Y-47192914D02*
X85857143Y-47145295D01*
X85857143Y-47145295D02*
X85904762Y-47050057D01*
X85904762Y-47050057D02*
X85952381Y-47002438D01*
X85952381Y-47002438D02*
X86047619Y-46954819D01*
X86047619Y-46954819D02*
X86238095Y-46954819D01*
X86238095Y-46954819D02*
X86333333Y-47002438D01*
X86333333Y-47002438D02*
X86380952Y-47050057D01*
X86380952Y-47050057D02*
X86428571Y-47145295D01*
X86428571Y-47145295D02*
X86428571Y-47192914D01*
X86428571Y-47192914D02*
X86380952Y-47288152D01*
X86380952Y-47288152D02*
X86333333Y-47335771D01*
X86333333Y-47335771D02*
X86238095Y-47383390D01*
X86238095Y-47383390D02*
X86047619Y-47383390D01*
X86047619Y-47383390D02*
X85952381Y-47431009D01*
X85952381Y-47431009D02*
X85904762Y-47478628D01*
X85904762Y-47478628D02*
X85857143Y-47573866D01*
X85857143Y-47573866D02*
X85857143Y-47764342D01*
X85857143Y-47764342D02*
X85904762Y-47859580D01*
X85904762Y-47859580D02*
X85952381Y-47907200D01*
X85952381Y-47907200D02*
X86047619Y-47954819D01*
X86047619Y-47954819D02*
X86238095Y-47954819D01*
X86238095Y-47954819D02*
X86333333Y-47907200D01*
X86333333Y-47907200D02*
X86380952Y-47859580D01*
X86380952Y-47859580D02*
X86428571Y-47764342D01*
X86428571Y-47764342D02*
X86428571Y-47573866D01*
X86428571Y-47573866D02*
X86380952Y-47478628D01*
X86380952Y-47478628D02*
X86333333Y-47431009D01*
X86333333Y-47431009D02*
X86238095Y-47383390D01*
X87142857Y-48335771D02*
X87095238Y-48288152D01*
X87095238Y-48288152D02*
X87000000Y-48145295D01*
X87000000Y-48145295D02*
X86952381Y-48050057D01*
X86952381Y-48050057D02*
X86904762Y-47907200D01*
X86904762Y-47907200D02*
X86857143Y-47669104D01*
X86857143Y-47669104D02*
X86857143Y-47478628D01*
X86857143Y-47478628D02*
X86904762Y-47240533D01*
X86904762Y-47240533D02*
X86952381Y-47097676D01*
X86952381Y-47097676D02*
X87000000Y-47002438D01*
X87000000Y-47002438D02*
X87095238Y-46859580D01*
X87095238Y-46859580D02*
X87142857Y-46811961D01*
X87857143Y-47431009D02*
X88000000Y-47478628D01*
X88000000Y-47478628D02*
X88047619Y-47526247D01*
X88047619Y-47526247D02*
X88095238Y-47621485D01*
X88095238Y-47621485D02*
X88095238Y-47764342D01*
X88095238Y-47764342D02*
X88047619Y-47859580D01*
X88047619Y-47859580D02*
X88000000Y-47907200D01*
X88000000Y-47907200D02*
X87904762Y-47954819D01*
X87904762Y-47954819D02*
X87523810Y-47954819D01*
X87523810Y-47954819D02*
X87523810Y-46954819D01*
X87523810Y-46954819D02*
X87857143Y-46954819D01*
X87857143Y-46954819D02*
X87952381Y-47002438D01*
X87952381Y-47002438D02*
X88000000Y-47050057D01*
X88000000Y-47050057D02*
X88047619Y-47145295D01*
X88047619Y-47145295D02*
X88047619Y-47240533D01*
X88047619Y-47240533D02*
X88000000Y-47335771D01*
X88000000Y-47335771D02*
X87952381Y-47383390D01*
X87952381Y-47383390D02*
X87857143Y-47431009D01*
X87857143Y-47431009D02*
X87523810Y-47431009D01*
X88428572Y-48335771D02*
X88476191Y-48288152D01*
X88476191Y-48288152D02*
X88571429Y-48145295D01*
X88571429Y-48145295D02*
X88619048Y-48050057D01*
X88619048Y-48050057D02*
X88666667Y-47907200D01*
X88666667Y-47907200D02*
X88714286Y-47669104D01*
X88714286Y-47669104D02*
X88714286Y-47478628D01*
X88714286Y-47478628D02*
X88666667Y-47240533D01*
X88666667Y-47240533D02*
X88619048Y-47097676D01*
X88619048Y-47097676D02*
X88571429Y-47002438D01*
X88571429Y-47002438D02*
X88476191Y-46859580D01*
X88476191Y-46859580D02*
X88428572Y-46811961D01*
X89714286Y-47954819D02*
X89142858Y-47954819D01*
X89428572Y-47954819D02*
X89428572Y-46954819D01*
X89428572Y-46954819D02*
X89333334Y-47097676D01*
X89333334Y-47097676D02*
X89238096Y-47192914D01*
X89238096Y-47192914D02*
X89142858Y-47240533D01*
X63954819Y-49730357D02*
X63478628Y-50063690D01*
X63954819Y-50301785D02*
X62954819Y-50301785D01*
X62954819Y-50301785D02*
X62954819Y-49920833D01*
X62954819Y-49920833D02*
X63002438Y-49825595D01*
X63002438Y-49825595D02*
X63050057Y-49777976D01*
X63050057Y-49777976D02*
X63145295Y-49730357D01*
X63145295Y-49730357D02*
X63288152Y-49730357D01*
X63288152Y-49730357D02*
X63383390Y-49777976D01*
X63383390Y-49777976D02*
X63431009Y-49825595D01*
X63431009Y-49825595D02*
X63478628Y-49920833D01*
X63478628Y-49920833D02*
X63478628Y-50301785D01*
X63954819Y-48777976D02*
X63954819Y-49349404D01*
X63954819Y-49063690D02*
X62954819Y-49063690D01*
X62954819Y-49063690D02*
X63097676Y-49158928D01*
X63097676Y-49158928D02*
X63192914Y-49254166D01*
X63192914Y-49254166D02*
X63240533Y-49349404D01*
X63954819Y-47825595D02*
X63954819Y-48397023D01*
X63954819Y-48111309D02*
X62954819Y-48111309D01*
X62954819Y-48111309D02*
X63097676Y-48206547D01*
X63097676Y-48206547D02*
X63192914Y-48301785D01*
X63192914Y-48301785D02*
X63240533Y-48397023D01*
X47954819Y-54166666D02*
X47478628Y-54499999D01*
X47954819Y-54738094D02*
X46954819Y-54738094D01*
X46954819Y-54738094D02*
X46954819Y-54357142D01*
X46954819Y-54357142D02*
X47002438Y-54261904D01*
X47002438Y-54261904D02*
X47050057Y-54214285D01*
X47050057Y-54214285D02*
X47145295Y-54166666D01*
X47145295Y-54166666D02*
X47288152Y-54166666D01*
X47288152Y-54166666D02*
X47383390Y-54214285D01*
X47383390Y-54214285D02*
X47431009Y-54261904D01*
X47431009Y-54261904D02*
X47478628Y-54357142D01*
X47478628Y-54357142D02*
X47478628Y-54738094D01*
X47954819Y-53214285D02*
X47954819Y-53785713D01*
X47954819Y-53499999D02*
X46954819Y-53499999D01*
X46954819Y-53499999D02*
X47097676Y-53595237D01*
X47097676Y-53595237D02*
X47192914Y-53690475D01*
X47192914Y-53690475D02*
X47240533Y-53785713D01*
X43859580Y-60815476D02*
X43907200Y-60863095D01*
X43907200Y-60863095D02*
X43954819Y-61005952D01*
X43954819Y-61005952D02*
X43954819Y-61101190D01*
X43954819Y-61101190D02*
X43907200Y-61244047D01*
X43907200Y-61244047D02*
X43811961Y-61339285D01*
X43811961Y-61339285D02*
X43716723Y-61386904D01*
X43716723Y-61386904D02*
X43526247Y-61434523D01*
X43526247Y-61434523D02*
X43383390Y-61434523D01*
X43383390Y-61434523D02*
X43192914Y-61386904D01*
X43192914Y-61386904D02*
X43097676Y-61339285D01*
X43097676Y-61339285D02*
X43002438Y-61244047D01*
X43002438Y-61244047D02*
X42954819Y-61101190D01*
X42954819Y-61101190D02*
X42954819Y-61005952D01*
X42954819Y-61005952D02*
X43002438Y-60863095D01*
X43002438Y-60863095D02*
X43050057Y-60815476D01*
X43954819Y-60386904D02*
X42954819Y-60386904D01*
X43431009Y-60386904D02*
X43431009Y-59815476D01*
X43954819Y-59815476D02*
X42954819Y-59815476D01*
X43954819Y-58767857D02*
X43478628Y-59101190D01*
X43954819Y-59339285D02*
X42954819Y-59339285D01*
X42954819Y-59339285D02*
X42954819Y-58958333D01*
X42954819Y-58958333D02*
X43002438Y-58863095D01*
X43002438Y-58863095D02*
X43050057Y-58815476D01*
X43050057Y-58815476D02*
X43145295Y-58767857D01*
X43145295Y-58767857D02*
X43288152Y-58767857D01*
X43288152Y-58767857D02*
X43383390Y-58815476D01*
X43383390Y-58815476D02*
X43431009Y-58863095D01*
X43431009Y-58863095D02*
X43478628Y-58958333D01*
X43478628Y-58958333D02*
X43478628Y-59339285D01*
X43002438Y-57815476D02*
X42954819Y-57910714D01*
X42954819Y-57910714D02*
X42954819Y-58053571D01*
X42954819Y-58053571D02*
X43002438Y-58196428D01*
X43002438Y-58196428D02*
X43097676Y-58291666D01*
X43097676Y-58291666D02*
X43192914Y-58339285D01*
X43192914Y-58339285D02*
X43383390Y-58386904D01*
X43383390Y-58386904D02*
X43526247Y-58386904D01*
X43526247Y-58386904D02*
X43716723Y-58339285D01*
X43716723Y-58339285D02*
X43811961Y-58291666D01*
X43811961Y-58291666D02*
X43907200Y-58196428D01*
X43907200Y-58196428D02*
X43954819Y-58053571D01*
X43954819Y-58053571D02*
X43954819Y-57958333D01*
X43954819Y-57958333D02*
X43907200Y-57815476D01*
X43907200Y-57815476D02*
X43859580Y-57767857D01*
X43859580Y-57767857D02*
X43526247Y-57767857D01*
X43526247Y-57767857D02*
X43526247Y-57958333D01*
X43954819Y-56815476D02*
X43954819Y-57386904D01*
X43954819Y-57101190D02*
X42954819Y-57101190D01*
X42954819Y-57101190D02*
X43097676Y-57196428D01*
X43097676Y-57196428D02*
X43192914Y-57291666D01*
X43192914Y-57291666D02*
X43240533Y-57386904D01*
X59954819Y-49166666D02*
X59478628Y-49499999D01*
X59954819Y-49738094D02*
X58954819Y-49738094D01*
X58954819Y-49738094D02*
X58954819Y-49357142D01*
X58954819Y-49357142D02*
X59002438Y-49261904D01*
X59002438Y-49261904D02*
X59050057Y-49214285D01*
X59050057Y-49214285D02*
X59145295Y-49166666D01*
X59145295Y-49166666D02*
X59288152Y-49166666D01*
X59288152Y-49166666D02*
X59383390Y-49214285D01*
X59383390Y-49214285D02*
X59431009Y-49261904D01*
X59431009Y-49261904D02*
X59478628Y-49357142D01*
X59478628Y-49357142D02*
X59478628Y-49738094D01*
X59383390Y-48595237D02*
X59335771Y-48690475D01*
X59335771Y-48690475D02*
X59288152Y-48738094D01*
X59288152Y-48738094D02*
X59192914Y-48785713D01*
X59192914Y-48785713D02*
X59145295Y-48785713D01*
X59145295Y-48785713D02*
X59050057Y-48738094D01*
X59050057Y-48738094D02*
X59002438Y-48690475D01*
X59002438Y-48690475D02*
X58954819Y-48595237D01*
X58954819Y-48595237D02*
X58954819Y-48404761D01*
X58954819Y-48404761D02*
X59002438Y-48309523D01*
X59002438Y-48309523D02*
X59050057Y-48261904D01*
X59050057Y-48261904D02*
X59145295Y-48214285D01*
X59145295Y-48214285D02*
X59192914Y-48214285D01*
X59192914Y-48214285D02*
X59288152Y-48261904D01*
X59288152Y-48261904D02*
X59335771Y-48309523D01*
X59335771Y-48309523D02*
X59383390Y-48404761D01*
X59383390Y-48404761D02*
X59383390Y-48595237D01*
X59383390Y-48595237D02*
X59431009Y-48690475D01*
X59431009Y-48690475D02*
X59478628Y-48738094D01*
X59478628Y-48738094D02*
X59573866Y-48785713D01*
X59573866Y-48785713D02*
X59764342Y-48785713D01*
X59764342Y-48785713D02*
X59859580Y-48738094D01*
X59859580Y-48738094D02*
X59907200Y-48690475D01*
X59907200Y-48690475D02*
X59954819Y-48595237D01*
X59954819Y-48595237D02*
X59954819Y-48404761D01*
X59954819Y-48404761D02*
X59907200Y-48309523D01*
X59907200Y-48309523D02*
X59859580Y-48261904D01*
X59859580Y-48261904D02*
X59764342Y-48214285D01*
X59764342Y-48214285D02*
X59573866Y-48214285D01*
X59573866Y-48214285D02*
X59478628Y-48261904D01*
X59478628Y-48261904D02*
X59431009Y-48309523D01*
X59431009Y-48309523D02*
X59383390Y-48404761D01*
X51954819Y-60648809D02*
X51478628Y-60982142D01*
X51954819Y-61220237D02*
X50954819Y-61220237D01*
X50954819Y-61220237D02*
X50954819Y-60839285D01*
X50954819Y-60839285D02*
X51002438Y-60744047D01*
X51002438Y-60744047D02*
X51050057Y-60696428D01*
X51050057Y-60696428D02*
X51145295Y-60648809D01*
X51145295Y-60648809D02*
X51288152Y-60648809D01*
X51288152Y-60648809D02*
X51383390Y-60696428D01*
X51383390Y-60696428D02*
X51431009Y-60744047D01*
X51431009Y-60744047D02*
X51478628Y-60839285D01*
X51478628Y-60839285D02*
X51478628Y-61220237D01*
X51954819Y-59744047D02*
X51954819Y-60220237D01*
X51954819Y-60220237D02*
X50954819Y-60220237D01*
X51431009Y-59410713D02*
X51431009Y-59077380D01*
X51954819Y-58934523D02*
X51954819Y-59410713D01*
X51954819Y-59410713D02*
X50954819Y-59410713D01*
X50954819Y-59410713D02*
X50954819Y-58934523D01*
X51954819Y-58505951D02*
X50954819Y-58505951D01*
X50954819Y-58505951D02*
X50954819Y-58267856D01*
X50954819Y-58267856D02*
X51002438Y-58124999D01*
X51002438Y-58124999D02*
X51097676Y-58029761D01*
X51097676Y-58029761D02*
X51192914Y-57982142D01*
X51192914Y-57982142D02*
X51383390Y-57934523D01*
X51383390Y-57934523D02*
X51526247Y-57934523D01*
X51526247Y-57934523D02*
X51716723Y-57982142D01*
X51716723Y-57982142D02*
X51811961Y-58029761D01*
X51811961Y-58029761D02*
X51907200Y-58124999D01*
X51907200Y-58124999D02*
X51954819Y-58267856D01*
X51954819Y-58267856D02*
X51954819Y-58505951D01*
X51954819Y-56982142D02*
X51954819Y-57553570D01*
X51954819Y-57267856D02*
X50954819Y-57267856D01*
X50954819Y-57267856D02*
X51097676Y-57363094D01*
X51097676Y-57363094D02*
X51192914Y-57458332D01*
X51192914Y-57458332D02*
X51240533Y-57553570D01*
X64666667Y-39357200D02*
X64809524Y-39404819D01*
X64809524Y-39404819D02*
X65047619Y-39404819D01*
X65047619Y-39404819D02*
X65142857Y-39357200D01*
X65142857Y-39357200D02*
X65190476Y-39309580D01*
X65190476Y-39309580D02*
X65238095Y-39214342D01*
X65238095Y-39214342D02*
X65238095Y-39119104D01*
X65238095Y-39119104D02*
X65190476Y-39023866D01*
X65190476Y-39023866D02*
X65142857Y-38976247D01*
X65142857Y-38976247D02*
X65047619Y-38928628D01*
X65047619Y-38928628D02*
X64857143Y-38881009D01*
X64857143Y-38881009D02*
X64761905Y-38833390D01*
X64761905Y-38833390D02*
X64714286Y-38785771D01*
X64714286Y-38785771D02*
X64666667Y-38690533D01*
X64666667Y-38690533D02*
X64666667Y-38595295D01*
X64666667Y-38595295D02*
X64714286Y-38500057D01*
X64714286Y-38500057D02*
X64761905Y-38452438D01*
X64761905Y-38452438D02*
X64857143Y-38404819D01*
X64857143Y-38404819D02*
X65095238Y-38404819D01*
X65095238Y-38404819D02*
X65238095Y-38452438D01*
X65571429Y-38404819D02*
X65809524Y-39404819D01*
X65809524Y-39404819D02*
X66000000Y-38690533D01*
X66000000Y-38690533D02*
X66190476Y-39404819D01*
X66190476Y-39404819D02*
X66428572Y-38404819D01*
X66714286Y-38404819D02*
X67333333Y-38404819D01*
X67333333Y-38404819D02*
X67000000Y-38785771D01*
X67000000Y-38785771D02*
X67142857Y-38785771D01*
X67142857Y-38785771D02*
X67238095Y-38833390D01*
X67238095Y-38833390D02*
X67285714Y-38881009D01*
X67285714Y-38881009D02*
X67333333Y-38976247D01*
X67333333Y-38976247D02*
X67333333Y-39214342D01*
X67333333Y-39214342D02*
X67285714Y-39309580D01*
X67285714Y-39309580D02*
X67238095Y-39357200D01*
X67238095Y-39357200D02*
X67142857Y-39404819D01*
X67142857Y-39404819D02*
X66857143Y-39404819D01*
X66857143Y-39404819D02*
X66761905Y-39357200D01*
X66761905Y-39357200D02*
X66714286Y-39309580D01*
X38219104Y-40071428D02*
X38219104Y-39595238D01*
X38504819Y-40166666D02*
X37504819Y-39833333D01*
X37504819Y-39833333D02*
X38504819Y-39500000D01*
X37504819Y-38976190D02*
X37504819Y-38785714D01*
X37504819Y-38785714D02*
X37552438Y-38690476D01*
X37552438Y-38690476D02*
X37647676Y-38595238D01*
X37647676Y-38595238D02*
X37838152Y-38547619D01*
X37838152Y-38547619D02*
X38171485Y-38547619D01*
X38171485Y-38547619D02*
X38361961Y-38595238D01*
X38361961Y-38595238D02*
X38457200Y-38690476D01*
X38457200Y-38690476D02*
X38504819Y-38785714D01*
X38504819Y-38785714D02*
X38504819Y-38976190D01*
X38504819Y-38976190D02*
X38457200Y-39071428D01*
X38457200Y-39071428D02*
X38361961Y-39166666D01*
X38361961Y-39166666D02*
X38171485Y-39214285D01*
X38171485Y-39214285D02*
X37838152Y-39214285D01*
X37838152Y-39214285D02*
X37647676Y-39166666D01*
X37647676Y-39166666D02*
X37552438Y-39071428D01*
X37552438Y-39071428D02*
X37504819Y-38976190D01*
X38504819Y-38119047D02*
X37504819Y-38119047D01*
X37504819Y-38119047D02*
X37504819Y-37880952D01*
X37504819Y-37880952D02*
X37552438Y-37738095D01*
X37552438Y-37738095D02*
X37647676Y-37642857D01*
X37647676Y-37642857D02*
X37742914Y-37595238D01*
X37742914Y-37595238D02*
X37933390Y-37547619D01*
X37933390Y-37547619D02*
X38076247Y-37547619D01*
X38076247Y-37547619D02*
X38266723Y-37595238D01*
X38266723Y-37595238D02*
X38361961Y-37642857D01*
X38361961Y-37642857D02*
X38457200Y-37738095D01*
X38457200Y-37738095D02*
X38504819Y-37880952D01*
X38504819Y-37880952D02*
X38504819Y-38119047D01*
X37838152Y-36690476D02*
X38504819Y-36690476D01*
X37457200Y-36928571D02*
X38171485Y-37166666D01*
X38171485Y-37166666D02*
X38171485Y-36547619D01*
X38504819Y-35642857D02*
X38504819Y-36214285D01*
X38504819Y-35928571D02*
X37504819Y-35928571D01*
X37504819Y-35928571D02*
X37647676Y-36023809D01*
X37647676Y-36023809D02*
X37742914Y-36119047D01*
X37742914Y-36119047D02*
X37790533Y-36214285D01*
X37933390Y-35071428D02*
X37885771Y-35166666D01*
X37885771Y-35166666D02*
X37838152Y-35214285D01*
X37838152Y-35214285D02*
X37742914Y-35261904D01*
X37742914Y-35261904D02*
X37695295Y-35261904D01*
X37695295Y-35261904D02*
X37600057Y-35214285D01*
X37600057Y-35214285D02*
X37552438Y-35166666D01*
X37552438Y-35166666D02*
X37504819Y-35071428D01*
X37504819Y-35071428D02*
X37504819Y-34880952D01*
X37504819Y-34880952D02*
X37552438Y-34785714D01*
X37552438Y-34785714D02*
X37600057Y-34738095D01*
X37600057Y-34738095D02*
X37695295Y-34690476D01*
X37695295Y-34690476D02*
X37742914Y-34690476D01*
X37742914Y-34690476D02*
X37838152Y-34738095D01*
X37838152Y-34738095D02*
X37885771Y-34785714D01*
X37885771Y-34785714D02*
X37933390Y-34880952D01*
X37933390Y-34880952D02*
X37933390Y-35071428D01*
X37933390Y-35071428D02*
X37981009Y-35166666D01*
X37981009Y-35166666D02*
X38028628Y-35214285D01*
X38028628Y-35214285D02*
X38123866Y-35261904D01*
X38123866Y-35261904D02*
X38314342Y-35261904D01*
X38314342Y-35261904D02*
X38409580Y-35214285D01*
X38409580Y-35214285D02*
X38457200Y-35166666D01*
X38457200Y-35166666D02*
X38504819Y-35071428D01*
X38504819Y-35071428D02*
X38504819Y-34880952D01*
X38504819Y-34880952D02*
X38457200Y-34785714D01*
X38457200Y-34785714D02*
X38409580Y-34738095D01*
X38409580Y-34738095D02*
X38314342Y-34690476D01*
X38314342Y-34690476D02*
X38123866Y-34690476D01*
X38123866Y-34690476D02*
X38028628Y-34738095D01*
X38028628Y-34738095D02*
X37981009Y-34785714D01*
X37981009Y-34785714D02*
X37933390Y-34880952D01*
X37838152Y-33833333D02*
X38504819Y-33833333D01*
X37457200Y-34071428D02*
X38171485Y-34309523D01*
X38171485Y-34309523D02*
X38171485Y-33690476D01*
X38219104Y-33357142D02*
X38219104Y-32880952D01*
X38504819Y-33452380D02*
X37504819Y-33119047D01*
X37504819Y-33119047D02*
X38504819Y-32785714D01*
X38504819Y-31928571D02*
X38504819Y-32499999D01*
X38504819Y-32214285D02*
X37504819Y-32214285D01*
X37504819Y-32214285D02*
X37647676Y-32309523D01*
X37647676Y-32309523D02*
X37742914Y-32404761D01*
X37742914Y-32404761D02*
X37790533Y-32499999D01*
X51357143Y-39454819D02*
X51357143Y-38454819D01*
X52357142Y-38502438D02*
X52261904Y-38454819D01*
X52261904Y-38454819D02*
X52119047Y-38454819D01*
X52119047Y-38454819D02*
X51976190Y-38502438D01*
X51976190Y-38502438D02*
X51880952Y-38597676D01*
X51880952Y-38597676D02*
X51833333Y-38692914D01*
X51833333Y-38692914D02*
X51785714Y-38883390D01*
X51785714Y-38883390D02*
X51785714Y-39026247D01*
X51785714Y-39026247D02*
X51833333Y-39216723D01*
X51833333Y-39216723D02*
X51880952Y-39311961D01*
X51880952Y-39311961D02*
X51976190Y-39407200D01*
X51976190Y-39407200D02*
X52119047Y-39454819D01*
X52119047Y-39454819D02*
X52214285Y-39454819D01*
X52214285Y-39454819D02*
X52357142Y-39407200D01*
X52357142Y-39407200D02*
X52404761Y-39359580D01*
X52404761Y-39359580D02*
X52404761Y-39026247D01*
X52404761Y-39026247D02*
X52214285Y-39026247D01*
X52833333Y-39454819D02*
X52833333Y-38454819D01*
X52833333Y-38454819D02*
X53404761Y-39454819D01*
X53404761Y-39454819D02*
X53404761Y-38454819D01*
X53880952Y-39454819D02*
X53880952Y-38454819D01*
X54214285Y-38454819D02*
X54785713Y-38454819D01*
X54499999Y-39454819D02*
X54499999Y-38454819D01*
X55309523Y-38454819D02*
X55499999Y-38454819D01*
X55499999Y-38454819D02*
X55595237Y-38502438D01*
X55595237Y-38502438D02*
X55690475Y-38597676D01*
X55690475Y-38597676D02*
X55738094Y-38788152D01*
X55738094Y-38788152D02*
X55738094Y-39121485D01*
X55738094Y-39121485D02*
X55690475Y-39311961D01*
X55690475Y-39311961D02*
X55595237Y-39407200D01*
X55595237Y-39407200D02*
X55499999Y-39454819D01*
X55499999Y-39454819D02*
X55309523Y-39454819D01*
X55309523Y-39454819D02*
X55214285Y-39407200D01*
X55214285Y-39407200D02*
X55119047Y-39311961D01*
X55119047Y-39311961D02*
X55071428Y-39121485D01*
X55071428Y-39121485D02*
X55071428Y-38788152D01*
X55071428Y-38788152D02*
X55119047Y-38597676D01*
X55119047Y-38597676D02*
X55214285Y-38502438D01*
X55214285Y-38502438D02*
X55309523Y-38454819D01*
X56738094Y-39454819D02*
X56404761Y-38978628D01*
X56166666Y-39454819D02*
X56166666Y-38454819D01*
X56166666Y-38454819D02*
X56547618Y-38454819D01*
X56547618Y-38454819D02*
X56642856Y-38502438D01*
X56642856Y-38502438D02*
X56690475Y-38550057D01*
X56690475Y-38550057D02*
X56738094Y-38645295D01*
X56738094Y-38645295D02*
X56738094Y-38788152D01*
X56738094Y-38788152D02*
X56690475Y-38883390D01*
X56690475Y-38883390D02*
X56642856Y-38931009D01*
X56642856Y-38931009D02*
X56547618Y-38978628D01*
X56547618Y-38978628D02*
X56166666Y-38978628D01*
X57690475Y-39454819D02*
X57119047Y-39454819D01*
X57404761Y-39454819D02*
X57404761Y-38454819D01*
X57404761Y-38454819D02*
X57309523Y-38597676D01*
X57309523Y-38597676D02*
X57214285Y-38692914D01*
X57214285Y-38692914D02*
X57119047Y-38740533D01*
X55954819Y-54254166D02*
X55478628Y-54587499D01*
X55954819Y-54825594D02*
X54954819Y-54825594D01*
X54954819Y-54825594D02*
X54954819Y-54444642D01*
X54954819Y-54444642D02*
X55002438Y-54349404D01*
X55002438Y-54349404D02*
X55050057Y-54301785D01*
X55050057Y-54301785D02*
X55145295Y-54254166D01*
X55145295Y-54254166D02*
X55288152Y-54254166D01*
X55288152Y-54254166D02*
X55383390Y-54301785D01*
X55383390Y-54301785D02*
X55431009Y-54349404D01*
X55431009Y-54349404D02*
X55478628Y-54444642D01*
X55478628Y-54444642D02*
X55478628Y-54825594D01*
X54954819Y-53349404D02*
X54954819Y-53825594D01*
X54954819Y-53825594D02*
X55431009Y-53873213D01*
X55431009Y-53873213D02*
X55383390Y-53825594D01*
X55383390Y-53825594D02*
X55335771Y-53730356D01*
X55335771Y-53730356D02*
X55335771Y-53492261D01*
X55335771Y-53492261D02*
X55383390Y-53397023D01*
X55383390Y-53397023D02*
X55431009Y-53349404D01*
X55431009Y-53349404D02*
X55526247Y-53301785D01*
X55526247Y-53301785D02*
X55764342Y-53301785D01*
X55764342Y-53301785D02*
X55859580Y-53349404D01*
X55859580Y-53349404D02*
X55907200Y-53397023D01*
X55907200Y-53397023D02*
X55954819Y-53492261D01*
X55954819Y-53492261D02*
X55954819Y-53730356D01*
X55954819Y-53730356D02*
X55907200Y-53825594D01*
X55907200Y-53825594D02*
X55859580Y-53873213D01*
X55478628Y-60958333D02*
X55954819Y-60958333D01*
X54954819Y-61291666D02*
X55478628Y-60958333D01*
X55478628Y-60958333D02*
X54954819Y-60625000D01*
X55954819Y-59815476D02*
X55954819Y-60291666D01*
X55954819Y-60291666D02*
X54954819Y-60291666D01*
X55431009Y-59482142D02*
X55431009Y-59148809D01*
X55954819Y-59005952D02*
X55954819Y-59482142D01*
X55954819Y-59482142D02*
X54954819Y-59482142D01*
X54954819Y-59482142D02*
X54954819Y-59005952D01*
X55954819Y-58577380D02*
X54954819Y-58577380D01*
X54954819Y-58577380D02*
X54954819Y-58339285D01*
X54954819Y-58339285D02*
X55002438Y-58196428D01*
X55002438Y-58196428D02*
X55097676Y-58101190D01*
X55097676Y-58101190D02*
X55192914Y-58053571D01*
X55192914Y-58053571D02*
X55383390Y-58005952D01*
X55383390Y-58005952D02*
X55526247Y-58005952D01*
X55526247Y-58005952D02*
X55716723Y-58053571D01*
X55716723Y-58053571D02*
X55811961Y-58101190D01*
X55811961Y-58101190D02*
X55907200Y-58196428D01*
X55907200Y-58196428D02*
X55954819Y-58339285D01*
X55954819Y-58339285D02*
X55954819Y-58577380D01*
X55954819Y-57053571D02*
X55954819Y-57624999D01*
X55954819Y-57339285D02*
X54954819Y-57339285D01*
X54954819Y-57339285D02*
X55097676Y-57434523D01*
X55097676Y-57434523D02*
X55192914Y-57529761D01*
X55192914Y-57529761D02*
X55240533Y-57624999D01*
X77880951Y-69454819D02*
X77404761Y-69454819D01*
X77404761Y-69454819D02*
X77404761Y-68454819D01*
X78404761Y-68454819D02*
X78595237Y-68454819D01*
X78595237Y-68454819D02*
X78690475Y-68502438D01*
X78690475Y-68502438D02*
X78785713Y-68597676D01*
X78785713Y-68597676D02*
X78833332Y-68788152D01*
X78833332Y-68788152D02*
X78833332Y-69121485D01*
X78833332Y-69121485D02*
X78785713Y-69311961D01*
X78785713Y-69311961D02*
X78690475Y-69407200D01*
X78690475Y-69407200D02*
X78595237Y-69454819D01*
X78595237Y-69454819D02*
X78404761Y-69454819D01*
X78404761Y-69454819D02*
X78309523Y-69407200D01*
X78309523Y-69407200D02*
X78214285Y-69311961D01*
X78214285Y-69311961D02*
X78166666Y-69121485D01*
X78166666Y-69121485D02*
X78166666Y-68788152D01*
X78166666Y-68788152D02*
X78214285Y-68597676D01*
X78214285Y-68597676D02*
X78309523Y-68502438D01*
X78309523Y-68502438D02*
X78404761Y-68454819D01*
X79833332Y-69454819D02*
X79499999Y-68978628D01*
X79261904Y-69454819D02*
X79261904Y-68454819D01*
X79261904Y-68454819D02*
X79642856Y-68454819D01*
X79642856Y-68454819D02*
X79738094Y-68502438D01*
X79738094Y-68502438D02*
X79785713Y-68550057D01*
X79785713Y-68550057D02*
X79833332Y-68645295D01*
X79833332Y-68645295D02*
X79833332Y-68788152D01*
X79833332Y-68788152D02*
X79785713Y-68883390D01*
X79785713Y-68883390D02*
X79738094Y-68931009D01*
X79738094Y-68931009D02*
X79642856Y-68978628D01*
X79642856Y-68978628D02*
X79261904Y-68978628D01*
X80214285Y-69169104D02*
X80690475Y-69169104D01*
X80119047Y-69454819D02*
X80452380Y-68454819D01*
X80452380Y-68454819D02*
X80785713Y-69454819D01*
X81119047Y-69073866D02*
X81880952Y-69073866D01*
X82309523Y-69407200D02*
X82452380Y-69454819D01*
X82452380Y-69454819D02*
X82690475Y-69454819D01*
X82690475Y-69454819D02*
X82785713Y-69407200D01*
X82785713Y-69407200D02*
X82833332Y-69359580D01*
X82833332Y-69359580D02*
X82880951Y-69264342D01*
X82880951Y-69264342D02*
X82880951Y-69169104D01*
X82880951Y-69169104D02*
X82833332Y-69073866D01*
X82833332Y-69073866D02*
X82785713Y-69026247D01*
X82785713Y-69026247D02*
X82690475Y-68978628D01*
X82690475Y-68978628D02*
X82499999Y-68931009D01*
X82499999Y-68931009D02*
X82404761Y-68883390D01*
X82404761Y-68883390D02*
X82357142Y-68835771D01*
X82357142Y-68835771D02*
X82309523Y-68740533D01*
X82309523Y-68740533D02*
X82309523Y-68645295D01*
X82309523Y-68645295D02*
X82357142Y-68550057D01*
X82357142Y-68550057D02*
X82404761Y-68502438D01*
X82404761Y-68502438D02*
X82499999Y-68454819D01*
X82499999Y-68454819D02*
X82738094Y-68454819D01*
X82738094Y-68454819D02*
X82880951Y-68502438D01*
X83214285Y-69454819D02*
X83738094Y-68788152D01*
X83214285Y-68788152D02*
X83738094Y-69454819D01*
X84642856Y-69454819D02*
X84071428Y-69454819D01*
X84357142Y-69454819D02*
X84357142Y-68454819D01*
X84357142Y-68454819D02*
X84261904Y-68597676D01*
X84261904Y-68597676D02*
X84166666Y-68692914D01*
X84166666Y-68692914D02*
X84071428Y-68740533D01*
X85023809Y-68550057D02*
X85071428Y-68502438D01*
X85071428Y-68502438D02*
X85166666Y-68454819D01*
X85166666Y-68454819D02*
X85404761Y-68454819D01*
X85404761Y-68454819D02*
X85499999Y-68502438D01*
X85499999Y-68502438D02*
X85547618Y-68550057D01*
X85547618Y-68550057D02*
X85595237Y-68645295D01*
X85595237Y-68645295D02*
X85595237Y-68740533D01*
X85595237Y-68740533D02*
X85547618Y-68883390D01*
X85547618Y-68883390D02*
X84976190Y-69454819D01*
X84976190Y-69454819D02*
X85595237Y-69454819D01*
X85928571Y-68454819D02*
X86595237Y-68454819D01*
X86595237Y-68454819D02*
X86166666Y-69454819D01*
X87119047Y-68883390D02*
X87023809Y-68835771D01*
X87023809Y-68835771D02*
X86976190Y-68788152D01*
X86976190Y-68788152D02*
X86928571Y-68692914D01*
X86928571Y-68692914D02*
X86928571Y-68645295D01*
X86928571Y-68645295D02*
X86976190Y-68550057D01*
X86976190Y-68550057D02*
X87023809Y-68502438D01*
X87023809Y-68502438D02*
X87119047Y-68454819D01*
X87119047Y-68454819D02*
X87309523Y-68454819D01*
X87309523Y-68454819D02*
X87404761Y-68502438D01*
X87404761Y-68502438D02*
X87452380Y-68550057D01*
X87452380Y-68550057D02*
X87499999Y-68645295D01*
X87499999Y-68645295D02*
X87499999Y-68692914D01*
X87499999Y-68692914D02*
X87452380Y-68788152D01*
X87452380Y-68788152D02*
X87404761Y-68835771D01*
X87404761Y-68835771D02*
X87309523Y-68883390D01*
X87309523Y-68883390D02*
X87119047Y-68883390D01*
X87119047Y-68883390D02*
X87023809Y-68931009D01*
X87023809Y-68931009D02*
X86976190Y-68978628D01*
X86976190Y-68978628D02*
X86928571Y-69073866D01*
X86928571Y-69073866D02*
X86928571Y-69264342D01*
X86928571Y-69264342D02*
X86976190Y-69359580D01*
X86976190Y-69359580D02*
X87023809Y-69407200D01*
X87023809Y-69407200D02*
X87119047Y-69454819D01*
X87119047Y-69454819D02*
X87309523Y-69454819D01*
X87309523Y-69454819D02*
X87404761Y-69407200D01*
X87404761Y-69407200D02*
X87452380Y-69359580D01*
X87452380Y-69359580D02*
X87499999Y-69264342D01*
X87499999Y-69264342D02*
X87499999Y-69073866D01*
X87499999Y-69073866D02*
X87452380Y-68978628D01*
X87452380Y-68978628D02*
X87404761Y-68931009D01*
X87404761Y-68931009D02*
X87309523Y-68883390D01*
X88214285Y-69835771D02*
X88166666Y-69788152D01*
X88166666Y-69788152D02*
X88071428Y-69645295D01*
X88071428Y-69645295D02*
X88023809Y-69550057D01*
X88023809Y-69550057D02*
X87976190Y-69407200D01*
X87976190Y-69407200D02*
X87928571Y-69169104D01*
X87928571Y-69169104D02*
X87928571Y-68978628D01*
X87928571Y-68978628D02*
X87976190Y-68740533D01*
X87976190Y-68740533D02*
X88023809Y-68597676D01*
X88023809Y-68597676D02*
X88071428Y-68502438D01*
X88071428Y-68502438D02*
X88166666Y-68359580D01*
X88166666Y-68359580D02*
X88214285Y-68311961D01*
X88547619Y-69169104D02*
X89023809Y-69169104D01*
X88452381Y-69454819D02*
X88785714Y-68454819D01*
X88785714Y-68454819D02*
X89119047Y-69454819D01*
X89357143Y-69835771D02*
X89404762Y-69788152D01*
X89404762Y-69788152D02*
X89500000Y-69645295D01*
X89500000Y-69645295D02*
X89547619Y-69550057D01*
X89547619Y-69550057D02*
X89595238Y-69407200D01*
X89595238Y-69407200D02*
X89642857Y-69169104D01*
X89642857Y-69169104D02*
X89642857Y-68978628D01*
X89642857Y-68978628D02*
X89595238Y-68740533D01*
X89595238Y-68740533D02*
X89547619Y-68597676D01*
X89547619Y-68597676D02*
X89500000Y-68502438D01*
X89500000Y-68502438D02*
X89404762Y-68359580D01*
X89404762Y-68359580D02*
X89357143Y-68311961D01*
X90642857Y-69454819D02*
X90071429Y-69454819D01*
X90357143Y-69454819D02*
X90357143Y-68454819D01*
X90357143Y-68454819D02*
X90261905Y-68597676D01*
X90261905Y-68597676D02*
X90166667Y-68692914D01*
X90166667Y-68692914D02*
X90071429Y-68740533D01*
X31454819Y-60904761D02*
X30454819Y-60904761D01*
X30454819Y-60904761D02*
X30454819Y-60666666D01*
X30454819Y-60666666D02*
X30502438Y-60523809D01*
X30502438Y-60523809D02*
X30597676Y-60428571D01*
X30597676Y-60428571D02*
X30692914Y-60380952D01*
X30692914Y-60380952D02*
X30883390Y-60333333D01*
X30883390Y-60333333D02*
X31026247Y-60333333D01*
X31026247Y-60333333D02*
X31216723Y-60380952D01*
X31216723Y-60380952D02*
X31311961Y-60428571D01*
X31311961Y-60428571D02*
X31407200Y-60523809D01*
X31407200Y-60523809D02*
X31454819Y-60666666D01*
X31454819Y-60666666D02*
X31454819Y-60904761D01*
X31454819Y-59904761D02*
X30788152Y-59904761D01*
X30454819Y-59904761D02*
X30502438Y-59952380D01*
X30502438Y-59952380D02*
X30550057Y-59904761D01*
X30550057Y-59904761D02*
X30502438Y-59857142D01*
X30502438Y-59857142D02*
X30454819Y-59904761D01*
X30454819Y-59904761D02*
X30550057Y-59904761D01*
X31407200Y-59476190D02*
X31454819Y-59380952D01*
X31454819Y-59380952D02*
X31454819Y-59190476D01*
X31454819Y-59190476D02*
X31407200Y-59095238D01*
X31407200Y-59095238D02*
X31311961Y-59047619D01*
X31311961Y-59047619D02*
X31264342Y-59047619D01*
X31264342Y-59047619D02*
X31169104Y-59095238D01*
X31169104Y-59095238D02*
X31121485Y-59190476D01*
X31121485Y-59190476D02*
X31121485Y-59333333D01*
X31121485Y-59333333D02*
X31073866Y-59428571D01*
X31073866Y-59428571D02*
X30978628Y-59476190D01*
X30978628Y-59476190D02*
X30931009Y-59476190D01*
X30931009Y-59476190D02*
X30835771Y-59428571D01*
X30835771Y-59428571D02*
X30788152Y-59333333D01*
X30788152Y-59333333D02*
X30788152Y-59190476D01*
X30788152Y-59190476D02*
X30835771Y-59095238D01*
X30788152Y-58619047D02*
X31788152Y-58619047D01*
X30835771Y-58619047D02*
X30788152Y-58523809D01*
X30788152Y-58523809D02*
X30788152Y-58333333D01*
X30788152Y-58333333D02*
X30835771Y-58238095D01*
X30835771Y-58238095D02*
X30883390Y-58190476D01*
X30883390Y-58190476D02*
X30978628Y-58142857D01*
X30978628Y-58142857D02*
X31264342Y-58142857D01*
X31264342Y-58142857D02*
X31359580Y-58190476D01*
X31359580Y-58190476D02*
X31407200Y-58238095D01*
X31407200Y-58238095D02*
X31454819Y-58333333D01*
X31454819Y-58333333D02*
X31454819Y-58523809D01*
X31454819Y-58523809D02*
X31407200Y-58619047D01*
X31454819Y-57571428D02*
X31407200Y-57666666D01*
X31407200Y-57666666D02*
X31311961Y-57714285D01*
X31311961Y-57714285D02*
X30454819Y-57714285D01*
X31454819Y-56761904D02*
X30931009Y-56761904D01*
X30931009Y-56761904D02*
X30835771Y-56809523D01*
X30835771Y-56809523D02*
X30788152Y-56904761D01*
X30788152Y-56904761D02*
X30788152Y-57095237D01*
X30788152Y-57095237D02*
X30835771Y-57190475D01*
X31407200Y-56761904D02*
X31454819Y-56857142D01*
X31454819Y-56857142D02*
X31454819Y-57095237D01*
X31454819Y-57095237D02*
X31407200Y-57190475D01*
X31407200Y-57190475D02*
X31311961Y-57238094D01*
X31311961Y-57238094D02*
X31216723Y-57238094D01*
X31216723Y-57238094D02*
X31121485Y-57190475D01*
X31121485Y-57190475D02*
X31073866Y-57095237D01*
X31073866Y-57095237D02*
X31073866Y-56857142D01*
X31073866Y-56857142D02*
X31026247Y-56761904D01*
X30788152Y-56380951D02*
X31454819Y-56142856D01*
X30788152Y-55904761D02*
X31454819Y-56142856D01*
X31454819Y-56142856D02*
X31692914Y-56238094D01*
X31692914Y-56238094D02*
X31740533Y-56285713D01*
X31740533Y-56285713D02*
X31788152Y-56380951D01*
X31454819Y-54999999D02*
X31454819Y-55571427D01*
X31454819Y-55285713D02*
X30454819Y-55285713D01*
X30454819Y-55285713D02*
X30597676Y-55380951D01*
X30597676Y-55380951D02*
X30692914Y-55476189D01*
X30692914Y-55476189D02*
X30740533Y-55571427D01*
X31073866Y-54571427D02*
X31073866Y-53809523D01*
X31407200Y-53380951D02*
X31454819Y-53238094D01*
X31454819Y-53238094D02*
X31454819Y-52999999D01*
X31454819Y-52999999D02*
X31407200Y-52904761D01*
X31407200Y-52904761D02*
X31359580Y-52857142D01*
X31359580Y-52857142D02*
X31264342Y-52809523D01*
X31264342Y-52809523D02*
X31169104Y-52809523D01*
X31169104Y-52809523D02*
X31073866Y-52857142D01*
X31073866Y-52857142D02*
X31026247Y-52904761D01*
X31026247Y-52904761D02*
X30978628Y-52999999D01*
X30978628Y-52999999D02*
X30931009Y-53190475D01*
X30931009Y-53190475D02*
X30883390Y-53285713D01*
X30883390Y-53285713D02*
X30835771Y-53333332D01*
X30835771Y-53333332D02*
X30740533Y-53380951D01*
X30740533Y-53380951D02*
X30645295Y-53380951D01*
X30645295Y-53380951D02*
X30550057Y-53333332D01*
X30550057Y-53333332D02*
X30502438Y-53285713D01*
X30502438Y-53285713D02*
X30454819Y-53190475D01*
X30454819Y-53190475D02*
X30454819Y-52952380D01*
X30454819Y-52952380D02*
X30502438Y-52809523D01*
X31407200Y-52428570D02*
X31454819Y-52285713D01*
X31454819Y-52285713D02*
X31454819Y-52047618D01*
X31454819Y-52047618D02*
X31407200Y-51952380D01*
X31407200Y-51952380D02*
X31359580Y-51904761D01*
X31359580Y-51904761D02*
X31264342Y-51857142D01*
X31264342Y-51857142D02*
X31169104Y-51857142D01*
X31169104Y-51857142D02*
X31073866Y-51904761D01*
X31073866Y-51904761D02*
X31026247Y-51952380D01*
X31026247Y-51952380D02*
X30978628Y-52047618D01*
X30978628Y-52047618D02*
X30931009Y-52238094D01*
X30931009Y-52238094D02*
X30883390Y-52333332D01*
X30883390Y-52333332D02*
X30835771Y-52380951D01*
X30835771Y-52380951D02*
X30740533Y-52428570D01*
X30740533Y-52428570D02*
X30645295Y-52428570D01*
X30645295Y-52428570D02*
X30550057Y-52380951D01*
X30550057Y-52380951D02*
X30502438Y-52333332D01*
X30502438Y-52333332D02*
X30454819Y-52238094D01*
X30454819Y-52238094D02*
X30454819Y-51999999D01*
X30454819Y-51999999D02*
X30502438Y-51857142D01*
X31454819Y-51428570D02*
X30454819Y-51428570D01*
X30454819Y-51428570D02*
X30454819Y-51190475D01*
X30454819Y-51190475D02*
X30502438Y-51047618D01*
X30502438Y-51047618D02*
X30597676Y-50952380D01*
X30597676Y-50952380D02*
X30692914Y-50904761D01*
X30692914Y-50904761D02*
X30883390Y-50857142D01*
X30883390Y-50857142D02*
X31026247Y-50857142D01*
X31026247Y-50857142D02*
X31216723Y-50904761D01*
X31216723Y-50904761D02*
X31311961Y-50952380D01*
X31311961Y-50952380D02*
X31407200Y-51047618D01*
X31407200Y-51047618D02*
X31454819Y-51190475D01*
X31454819Y-51190475D02*
X31454819Y-51428570D01*
X31454819Y-49904761D02*
X31454819Y-50476189D01*
X31454819Y-50190475D02*
X30454819Y-50190475D01*
X30454819Y-50190475D02*
X30597676Y-50285713D01*
X30597676Y-50285713D02*
X30692914Y-50380951D01*
X30692914Y-50380951D02*
X30740533Y-50476189D01*
X30454819Y-49571427D02*
X30454819Y-48952380D01*
X30454819Y-48952380D02*
X30835771Y-49285713D01*
X30835771Y-49285713D02*
X30835771Y-49142856D01*
X30835771Y-49142856D02*
X30883390Y-49047618D01*
X30883390Y-49047618D02*
X30931009Y-48999999D01*
X30931009Y-48999999D02*
X31026247Y-48952380D01*
X31026247Y-48952380D02*
X31264342Y-48952380D01*
X31264342Y-48952380D02*
X31359580Y-48999999D01*
X31359580Y-48999999D02*
X31407200Y-49047618D01*
X31407200Y-49047618D02*
X31454819Y-49142856D01*
X31454819Y-49142856D02*
X31454819Y-49428570D01*
X31454819Y-49428570D02*
X31407200Y-49523808D01*
X31407200Y-49523808D02*
X31359580Y-49571427D01*
X30454819Y-48333332D02*
X30454819Y-48238094D01*
X30454819Y-48238094D02*
X30502438Y-48142856D01*
X30502438Y-48142856D02*
X30550057Y-48095237D01*
X30550057Y-48095237D02*
X30645295Y-48047618D01*
X30645295Y-48047618D02*
X30835771Y-47999999D01*
X30835771Y-47999999D02*
X31073866Y-47999999D01*
X31073866Y-47999999D02*
X31264342Y-48047618D01*
X31264342Y-48047618D02*
X31359580Y-48095237D01*
X31359580Y-48095237D02*
X31407200Y-48142856D01*
X31407200Y-48142856D02*
X31454819Y-48238094D01*
X31454819Y-48238094D02*
X31454819Y-48333332D01*
X31454819Y-48333332D02*
X31407200Y-48428570D01*
X31407200Y-48428570D02*
X31359580Y-48476189D01*
X31359580Y-48476189D02*
X31264342Y-48523808D01*
X31264342Y-48523808D02*
X31073866Y-48571427D01*
X31073866Y-48571427D02*
X30835771Y-48571427D01*
X30835771Y-48571427D02*
X30645295Y-48523808D01*
X30645295Y-48523808D02*
X30550057Y-48476189D01*
X30550057Y-48476189D02*
X30502438Y-48428570D01*
X30502438Y-48428570D02*
X30454819Y-48333332D01*
X30454819Y-47142856D02*
X30454819Y-47333332D01*
X30454819Y-47333332D02*
X30502438Y-47428570D01*
X30502438Y-47428570D02*
X30550057Y-47476189D01*
X30550057Y-47476189D02*
X30692914Y-47571427D01*
X30692914Y-47571427D02*
X30883390Y-47619046D01*
X30883390Y-47619046D02*
X31264342Y-47619046D01*
X31264342Y-47619046D02*
X31359580Y-47571427D01*
X31359580Y-47571427D02*
X31407200Y-47523808D01*
X31407200Y-47523808D02*
X31454819Y-47428570D01*
X31454819Y-47428570D02*
X31454819Y-47238094D01*
X31454819Y-47238094D02*
X31407200Y-47142856D01*
X31407200Y-47142856D02*
X31359580Y-47095237D01*
X31359580Y-47095237D02*
X31264342Y-47047618D01*
X31264342Y-47047618D02*
X31026247Y-47047618D01*
X31026247Y-47047618D02*
X30931009Y-47095237D01*
X30931009Y-47095237D02*
X30883390Y-47142856D01*
X30883390Y-47142856D02*
X30835771Y-47238094D01*
X30835771Y-47238094D02*
X30835771Y-47428570D01*
X30835771Y-47428570D02*
X30883390Y-47523808D01*
X30883390Y-47523808D02*
X30931009Y-47571427D01*
X30931009Y-47571427D02*
X31026247Y-47619046D01*
%TO.C,C1*%
D12*
X44265000Y-53738748D02*
X44265000Y-54261252D01*
X45735000Y-53738748D02*
X45735000Y-54261252D01*
%TO.C,BLED1*%
X60040000Y-58187500D02*
X60040000Y-60872500D01*
X60040000Y-60872500D02*
X61960000Y-60872500D01*
X61960000Y-60872500D02*
X61960000Y-58187500D01*
%TO.C,R7*%
X60265000Y-54314564D02*
X60265000Y-53860436D01*
X61735000Y-54314564D02*
X61735000Y-53860436D01*
%TO.C,R2*%
X48265000Y-48685436D02*
X48265000Y-49139564D01*
X49735000Y-48685436D02*
X49735000Y-49139564D01*
%TO.C,R6*%
X56265000Y-49314564D02*
X56265000Y-48860436D01*
X57735000Y-49314564D02*
X57735000Y-48860436D01*
%TO.C,R3*%
X52265000Y-53772936D02*
X52265000Y-54227064D01*
X53735000Y-53772936D02*
X53735000Y-54227064D01*
%TO.C,C2*%
X44265000Y-48738748D02*
X44265000Y-49261252D01*
X45735000Y-48738748D02*
X45735000Y-49261252D01*
%TO.C,R9*%
X64265000Y-53860436D02*
X64265000Y-54314564D01*
X65735000Y-53860436D02*
X65735000Y-54314564D01*
%TO.C,ModuloDeCarga1*%
X47940000Y-69440000D02*
X52060000Y-69440000D01*
X47940000Y-69535000D02*
X47940000Y-69440000D01*
X47940000Y-74560000D02*
X47940000Y-74465000D01*
X52060000Y-69440000D02*
X52060000Y-69535000D01*
X52060000Y-74465000D02*
X52060000Y-74560000D01*
X52060000Y-74560000D02*
X47940000Y-74560000D01*
X52600000Y-74470000D02*
X52840000Y-74800000D01*
X52360000Y-74800000D01*
X52600000Y-74470000D01*
G36*
X52840000Y-74800000D02*
G01*
X52360000Y-74800000D01*
X52600000Y-74470000D01*
X52840000Y-74800000D01*
G37*
%TO.C,R4*%
X52265000Y-48772936D02*
X52265000Y-49227064D01*
X53735000Y-48772936D02*
X53735000Y-49227064D01*
%TO.C,SW2*%
X73957500Y-37350000D02*
X73957500Y-32150000D01*
X76007500Y-31400000D02*
X85907500Y-31400000D01*
X85907500Y-38100000D02*
X76007500Y-38100000D01*
X87957500Y-32150000D02*
X87957500Y-37350000D01*
X88257500Y-37750000D02*
X88257500Y-39050000D01*
X88257500Y-39050000D02*
X86957500Y-39050000D01*
%TO.C,STDBY1*%
X48040000Y-57502500D02*
X48040000Y-60187500D01*
X49960000Y-57502500D02*
X48040000Y-57502500D01*
X49960000Y-60187500D02*
X49960000Y-57502500D01*
%TO.C,LORA-Sx1278(B)1*%
X73460000Y-42380000D02*
X73460000Y-41000000D01*
X74840000Y-42380000D02*
X73460000Y-42380000D01*
X76110000Y-39620000D02*
X94000000Y-39620000D01*
X76110000Y-42380000D02*
X76110000Y-39620000D01*
X76110000Y-42380000D02*
X94000000Y-42380000D01*
X94000000Y-42380000D02*
X94000000Y-39620000D01*
%TO.C,R11*%
X64265000Y-49314564D02*
X64265000Y-48860436D01*
X65735000Y-49314564D02*
X65735000Y-48860436D01*
%TO.C,R1*%
X48265000Y-53860436D02*
X48265000Y-54314564D01*
X49735000Y-53860436D02*
X49735000Y-54314564D01*
%TO.C,CHRG1*%
X44040000Y-57377500D02*
X44040000Y-60062500D01*
X45960000Y-57377500D02*
X44040000Y-57377500D01*
X45960000Y-60062500D02*
X45960000Y-57377500D01*
%TO.C,R8*%
X60265000Y-48860436D02*
X60265000Y-49314564D01*
X61735000Y-48860436D02*
X61735000Y-49314564D01*
%TO.C,RLED1*%
X52040000Y-58062500D02*
X52040000Y-60747500D01*
X52040000Y-60747500D02*
X53960000Y-60747500D01*
X53960000Y-60747500D02*
X53960000Y-58062500D01*
%TO.C,SW3*%
X59000000Y-37350000D02*
X59000000Y-32150000D01*
X61050000Y-31400000D02*
X70950000Y-31400000D01*
X70950000Y-38100000D02*
X61050000Y-38100000D01*
X73000000Y-32150000D02*
X73000000Y-37350000D01*
X73300000Y-37750000D02*
X73300000Y-39050000D01*
X73300000Y-39050000D02*
X72000000Y-39050000D01*
%TO.C,AOD4184A1*%
X39075000Y-32150000D02*
X39075000Y-38570000D01*
X39075000Y-38570000D02*
X39345000Y-38570000D01*
X45975000Y-32150000D02*
X45975000Y-38570000D01*
X45975000Y-38570000D02*
X45705000Y-38570000D01*
X39385000Y-40300000D02*
X38915000Y-40640000D01*
X38915000Y-39960000D01*
X39385000Y-40300000D01*
G36*
X39385000Y-40300000D02*
G01*
X38915000Y-40640000D01*
X38915000Y-39960000D01*
X39385000Y-40300000D01*
G37*
%TO.C,IGNITOR1*%
X46880000Y-30130000D02*
X57620000Y-30130000D01*
X46880000Y-33750000D02*
X48120000Y-33750000D01*
X46880000Y-34750000D02*
X48120000Y-34750000D01*
X46880000Y-36050000D02*
X48120000Y-36050000D01*
X46880000Y-38170000D02*
X46880000Y-30130000D01*
X49700000Y-38170000D02*
X46880000Y-38170000D01*
X51880000Y-33750000D02*
X53188000Y-33750000D01*
X51880000Y-34750000D02*
X53188000Y-34750000D01*
X51880000Y-36050000D02*
X54457000Y-36050000D01*
X55543000Y-36050000D02*
X57620000Y-36050000D01*
X56812000Y-33750000D02*
X57620000Y-33750000D01*
X56812000Y-34750000D02*
X57620000Y-34750000D01*
X57620000Y-30130000D02*
X57620000Y-38170000D01*
X57620000Y-38170000D02*
X50300000Y-38170000D01*
X50000000Y-38170000D02*
X50440000Y-38780000D01*
X49560000Y-38780000D01*
X50000000Y-38170000D01*
G36*
X50440000Y-38780000D02*
G01*
X49560000Y-38780000D01*
X50000000Y-38170000D01*
X50440000Y-38780000D01*
G37*
%TO.C,R5*%
X56265000Y-54227064D02*
X56265000Y-53772936D01*
X57735000Y-54227064D02*
X57735000Y-53772936D01*
%TO.C,YLED1*%
X56040000Y-58187500D02*
X56040000Y-60872500D01*
X56040000Y-60872500D02*
X57960000Y-60872500D01*
X57960000Y-60872500D02*
X57960000Y-58187500D01*
%TO.C,LORA-Sx1278(A)1*%
X73460000Y-67880000D02*
X73460000Y-66500000D01*
X74840000Y-67880000D02*
X73460000Y-67880000D01*
X76110000Y-65120000D02*
X94000000Y-65120000D01*
X76110000Y-67880000D02*
X76110000Y-65120000D01*
X76110000Y-67880000D02*
X94000000Y-67880000D01*
X94000000Y-67880000D02*
X94000000Y-65120000D01*
%TO.C,Display1-SSD1306*%
X32620000Y-48582500D02*
X34000000Y-48582500D01*
X32620000Y-49962500D02*
X32620000Y-48582500D01*
X32620000Y-51232500D02*
X32620000Y-58962500D01*
X32620000Y-51232500D02*
X35380000Y-51232500D01*
X32620000Y-58962500D02*
X35380000Y-58962500D01*
X35380000Y-51232500D02*
X35380000Y-58962500D01*
%TD*%
M02*
