%TF.GenerationSoftware,KiCad,Pcbnew,10.0.6*%
%TF.CreationDate,2026-09-16T22:58:31-06:00*%
%TF.ProjectId,ignition-system,69676e69-7469-46f6-9e2d-73797374656d,rev?*%
%TF.SameCoordinates,Original*%
%TF.FileFunction,Soldermask,Bot*%
%TF.FilePolarity,Negative*%
%FSLAX46Y46*%
G04 Gerber Fmt 4.6, Leading zero omitted, Abs format (unit mm)*
G04 Created by KiCad (PCBNEW 10.0.6) date 2026-09-16 22:58:31*
%MOMM*%
%LPD*%
G01*
G04 APERTURE LIST*
G04 Aperture macros list*
%AMRoundRect*
0 Rectangle with rounded corners*
0 $1 Rounding radius*
0 $2 $3 $4 $5 $6 $7 $8 $9 X,Y pos of 4 corners*
0 Add a 4 corners polygon primitive as box body*
4,1,4,$2,$3,$4,$5,$6,$7,$8,$9,$2,$3,0*
0 Add four circle primitives for the rounded corners*
1,1,$1+$1,$2,$3*
1,1,$1+$1,$4,$5*
1,1,$1+$1,$6,$7*
1,1,$1+$1,$8,$9*
0 Add four rect primitives between the rounded corners*
20,1,$1+$1,$2,$3,$4,$5,0*
20,1,$1+$1,$4,$5,$6,$7,0*
20,1,$1+$1,$6,$7,$8,$9,0*
20,1,$1+$1,$8,$9,$2,$3,0*%
%AMFreePoly0*
4,1,37,0.800000,0.796148,0.878414,0.796148,1.032228,0.765552,1.177117,0.705537,1.307515,0.618408,1.418408,0.507515,1.505537,0.377117,1.565552,0.232228,1.596148,0.078414,1.596148,-0.078414,1.565552,-0.232228,1.505537,-0.377117,1.418408,-0.507515,1.307515,-0.618408,1.177117,-0.705537,1.032228,-0.765552,0.878414,-0.796148,0.800000,-0.796148,0.800000,-0.800000,-1.400000,-0.800000,
-1.403843,-0.796157,-1.439018,-0.796157,-1.511114,-0.766294,-1.566294,-0.711114,-1.596157,-0.639018,-1.596157,-0.603843,-1.600000,-0.600000,-1.600000,0.600000,-1.596157,0.603843,-1.596157,0.639018,-1.566294,0.711114,-1.511114,0.766294,-1.439018,0.796157,-1.403843,0.796157,-1.400000,0.800000,0.800000,0.800000,0.800000,0.796148,0.800000,0.796148,$1*%
%AMFreePoly1*
4,1,37,1.403843,0.796157,1.439018,0.796157,1.511114,0.766294,1.566294,0.711114,1.596157,0.639018,1.596157,0.603843,1.600000,0.600000,1.600000,-0.600000,1.596157,-0.603843,1.596157,-0.639018,1.566294,-0.711114,1.511114,-0.766294,1.439018,-0.796157,1.403843,-0.796157,1.400000,-0.800000,-0.800000,-0.800000,-0.800000,-0.796148,-0.878414,-0.796148,-1.032228,-0.765552,-1.177117,-0.705537,
-1.307515,-0.618408,-1.418408,-0.507515,-1.505537,-0.377117,-1.565552,-0.232228,-1.596148,-0.078414,-1.596148,0.078414,-1.565552,0.232228,-1.505537,0.377117,-1.418408,0.507515,-1.307515,0.618408,-1.177117,0.705537,-1.032228,0.765552,-0.878414,0.796148,-0.800000,0.796148,-0.800000,0.800000,1.400000,0.800000,1.403843,0.796157,1.403843,0.796157,$1*%
%AMFreePoly2*
4,1,37,0.603843,0.796157,0.639018,0.796157,0.711114,0.766294,0.766294,0.711114,0.796157,0.639018,0.796157,0.603843,0.800000,0.600000,0.800000,-0.600000,0.796157,-0.603843,0.796157,-0.639018,0.766294,-0.711114,0.711114,-0.766294,0.639018,-0.796157,0.603843,-0.796157,0.600000,-0.800000,0.000000,-0.800000,0.000000,-0.796148,-0.078414,-0.796148,-0.232228,-0.765552,-0.377117,-0.705537,
-0.507515,-0.618408,-0.618408,-0.507515,-0.705537,-0.377117,-0.765552,-0.232228,-0.796148,-0.078414,-0.796148,0.078414,-0.765552,0.232228,-0.705537,0.377117,-0.618408,0.507515,-0.507515,0.618408,-0.377117,0.705537,-0.232228,0.765552,-0.078414,0.796148,0.000000,0.796148,0.000000,0.800000,0.600000,0.800000,0.603843,0.796157,0.603843,0.796157,$1*%
%AMFreePoly3*
4,1,37,0.000000,0.796148,0.078414,0.796148,0.232228,0.765552,0.377117,0.705537,0.507515,0.618408,0.618408,0.507515,0.705537,0.377117,0.765552,0.232228,0.796148,0.078414,0.796148,-0.078414,0.765552,-0.232228,0.705537,-0.377117,0.618408,-0.507515,0.507515,-0.618408,0.377117,-0.705537,0.232228,-0.765552,0.078414,-0.796148,0.000000,-0.796148,0.000000,-0.800000,-0.600000,-0.800000,
-0.603843,-0.796157,-0.639018,-0.796157,-0.711114,-0.766294,-0.766294,-0.711114,-0.796157,-0.639018,-0.796157,-0.603843,-0.800000,-0.600000,-0.800000,0.600000,-0.796157,0.603843,-0.796157,0.639018,-0.766294,0.711114,-0.711114,0.766294,-0.639018,0.796157,-0.603843,0.796157,-0.600000,0.800000,0.000000,0.800000,0.000000,0.796148,0.000000,0.796148,$1*%
G04 Aperture macros list end*
%ADD10C,3.200000*%
%ADD11C,2.000000*%
%ADD12C,1.700000*%
%ADD13R,1.700000X1.700000*%
%ADD14RoundRect,0.250001X-1.149999X-1.149999X1.149999X-1.149999X1.149999X1.149999X-1.149999X1.149999X0*%
%ADD15C,2.800000*%
%ADD16RoundRect,0.250000X-0.625000X0.350000X-0.625000X-0.350000X0.625000X-0.350000X0.625000X0.350000X0*%
%ADD17O,1.750000X1.200000*%
%ADD18C,2.200000*%
%ADD19C,1.850000*%
%ADD20FreePoly0,90.000000*%
%ADD21RoundRect,0.200000X0.600000X-0.600000X0.600000X0.600000X-0.600000X0.600000X-0.600000X-0.600000X0*%
%ADD22RoundRect,0.800000X0.000010X-0.800000X0.000010X0.800000X-0.000010X0.800000X-0.000010X-0.800000X0*%
%ADD23C,1.600000*%
%ADD24FreePoly1,90.000000*%
%ADD25FreePoly2,90.000000*%
%ADD26FreePoly3,90.000000*%
G04 APERTURE END LIST*
D10*
%TO.C,REF\u002A\u002A*%
X33000000Y-32000000D03*
%TD*%
D11*
%TO.C,SW2*%
X86957500Y-37750000D03*
X86957500Y-31750000D03*
X74957500Y-37750000D03*
X74957500Y-31750000D03*
D12*
X84957500Y-36000000D03*
X80957500Y-36000000D03*
X76957500Y-36000000D03*
%TD*%
D13*
%TO.C,LORA-Sx1278(B)1*%
X74840000Y-41000000D03*
D12*
X77380000Y-41000000D03*
X79920000Y-41000000D03*
X82460000Y-41000000D03*
X85000000Y-41000000D03*
X87540000Y-41000000D03*
X90080000Y-41000000D03*
X92620000Y-41000000D03*
%TD*%
D10*
%TO.C,REF\u002A\u002A*%
X93000000Y-32000000D03*
%TD*%
D11*
%TO.C,SW3*%
X72000000Y-37750000D03*
X72000000Y-31750000D03*
X60000000Y-37750000D03*
X60000000Y-31750000D03*
D12*
X70000000Y-36000000D03*
X66000000Y-36000000D03*
X62000000Y-36000000D03*
%TD*%
D14*
%TO.C,IGNITOR1*%
X50000000Y-34250000D03*
D15*
X55000000Y-34250000D03*
%TD*%
D10*
%TO.C,REF\u002A\u002A*%
X93000000Y-73000000D03*
%TD*%
D13*
%TO.C,LORA-Sx1278(A)1*%
X74840000Y-66500000D03*
D12*
X77380000Y-66500000D03*
X79920000Y-66500000D03*
X82460000Y-66500000D03*
X85000000Y-66500000D03*
X87540000Y-66500000D03*
X90080000Y-66500000D03*
X92620000Y-66500000D03*
%TD*%
D13*
%TO.C,Display1-SSD1306*%
X34000000Y-49962500D03*
D12*
X34000000Y-52502500D03*
X34000000Y-55042500D03*
X34000000Y-57582500D03*
%TD*%
D10*
%TO.C,REF\u002A\u002A*%
X33000000Y-73000000D03*
%TD*%
D16*
%TO.C,InBatt1*%
X40550000Y-71000000D03*
D17*
X40550000Y-73000000D03*
%TD*%
D18*
%TO.C,RaspberryPi_Pico1-RP2040*%
X93030000Y-56475000D03*
D19*
X90000000Y-56175000D03*
X90000000Y-51325000D03*
D18*
X93030000Y-51025000D03*
D20*
X93160000Y-63440000D03*
D21*
X93160000Y-62640000D03*
D22*
X90620000Y-63440000D03*
D23*
X90620000Y-62640000D03*
D24*
X88080000Y-63440000D03*
D25*
X88080000Y-62640000D03*
D22*
X85540000Y-63440000D03*
D23*
X85540000Y-62640000D03*
D22*
X83000000Y-63440000D03*
D23*
X83000000Y-62640000D03*
D22*
X80460000Y-63440000D03*
D23*
X80460000Y-62640000D03*
D22*
X77920000Y-63440000D03*
D23*
X77920000Y-62640000D03*
D24*
X75380000Y-63440000D03*
D25*
X75380000Y-62640000D03*
D22*
X72840000Y-63440000D03*
D23*
X72840000Y-62640000D03*
D22*
X70300000Y-63440000D03*
D23*
X70300000Y-62640000D03*
D22*
X67760000Y-63440000D03*
D23*
X67760000Y-62640000D03*
D22*
X65220000Y-63440000D03*
D23*
X65220000Y-62640000D03*
D24*
X62680000Y-63440000D03*
D25*
X62680000Y-62640000D03*
D22*
X60140000Y-63440000D03*
D23*
X60140000Y-62640000D03*
D22*
X57600000Y-63440000D03*
D23*
X57600000Y-62640000D03*
D22*
X55060000Y-63440000D03*
D23*
X55060000Y-62640000D03*
D22*
X52520000Y-63440000D03*
D23*
X52520000Y-62640000D03*
D24*
X49980000Y-63440000D03*
D25*
X49980000Y-62640000D03*
D22*
X47440000Y-63440000D03*
D23*
X47440000Y-62640000D03*
D22*
X44900000Y-63440000D03*
D23*
X44900000Y-62640000D03*
X44900000Y-44860000D03*
D22*
X44900000Y-44060000D03*
D23*
X47440000Y-44860000D03*
D22*
X47440000Y-44060000D03*
D26*
X49980000Y-44860000D03*
D20*
X49980000Y-44060000D03*
D23*
X52520000Y-44860000D03*
D22*
X52520000Y-44060000D03*
D23*
X55060000Y-44860000D03*
D22*
X55060000Y-44060000D03*
D23*
X57600000Y-44860000D03*
D22*
X57600000Y-44060000D03*
D23*
X60140000Y-44860000D03*
D22*
X60140000Y-44060000D03*
D26*
X62680000Y-44860000D03*
D20*
X62680000Y-44060000D03*
D23*
X65220000Y-44860000D03*
D22*
X65220000Y-44060000D03*
D23*
X67760000Y-44860000D03*
D22*
X67760000Y-44060000D03*
D23*
X70300000Y-44860000D03*
D22*
X70300000Y-44060000D03*
D23*
X72840000Y-44860000D03*
D22*
X72840000Y-44060000D03*
D26*
X75380000Y-44860000D03*
D20*
X75380000Y-44060000D03*
D23*
X77920000Y-44860000D03*
D22*
X77920000Y-44060000D03*
D23*
X80460000Y-44860000D03*
D22*
X80460000Y-44060000D03*
D23*
X83000000Y-44860000D03*
D22*
X83000000Y-44060000D03*
D23*
X85540000Y-44860000D03*
D22*
X85540000Y-44060000D03*
D26*
X88080000Y-44860000D03*
D20*
X88080000Y-44060000D03*
D23*
X90620000Y-44860000D03*
D22*
X90620000Y-44060000D03*
D23*
X93160000Y-44860000D03*
D22*
X93160000Y-44060000D03*
%TD*%
D16*
%TO.C,TH1*%
X60550000Y-71000000D03*
D17*
X60550000Y-73000000D03*
%TD*%
D16*
%TO.C,SW1*%
X77550000Y-71000000D03*
D17*
X77550000Y-73000000D03*
%TD*%
M02*
